<svg xmlns="http://www.w3.org/2000/svg" width="22" height="21" viewBox="0 0 22 21"><g fill="none" fill-rule="evenodd" transform="translate(-9.694 -10)"><path fill="#2874F0" d="M14.275 22.704c2.272-.412 4.347-.618 6.225-.618 1.878 0 3.953.206 6.225.618a5.15 5.15 0 0 1 4.23 5.068V31h-20.91v-3.228a5.15 5.15 0 0 1 4.23-5.068zm1.274-7.724c0-2.58 2.163-4.673 4.832-4.673 2.667 0 4.83 2.092 4.83 4.673 0 2.58-2.163 4.673-4.83 4.673-2.67 0-4.833-2.092-4.833-4.673z"/><ellipse cx="20.557" cy="20" rx="20.557" ry="20"/></g></svg>