<svg width="24" height="24" viewBox="0 0 24 24" fill="none" xmlns="http://www.w3.org/2000/svg">
<path d="M22.4999 5.24902V11.249C22.4999 11.4479 22.4209 11.6387 22.2803 11.7794C22.1396 11.92 21.9488 11.999 21.7499 11.999C21.551 11.999 21.3603 11.92 21.2196 11.7794C21.0789 11.6387 20.9999 11.4479 20.9999 11.249V7.05934L13.2806 14.7796C13.2109 14.8494 13.1282 14.9047 13.0371 14.9424C12.9461 14.9802 12.8485 14.9996 12.7499 14.9996C12.6514 14.9996 12.5538 14.9802 12.4627 14.9424C12.3717 14.9047 12.289 14.8494 12.2193 14.7796L8.99993 11.5593L2.78055 17.7796C2.63982 17.9204 2.44895 17.9994 2.24993 17.9994C2.05091 17.9994 1.86003 17.9204 1.7193 17.7796C1.57857 17.6389 1.49951 17.448 1.49951 17.249C1.49951 17.05 1.57857 16.8591 1.7193 16.7184L8.4693 9.9684C8.53896 9.89867 8.62167 9.84335 8.71272 9.8056C8.80377 9.76786 8.90137 9.74843 8.99993 9.74843C9.09849 9.74843 9.19609 9.76786 9.28713 9.8056C9.37818 9.84335 9.4609 9.89867 9.53055 9.9684L12.7499 13.1887L19.9396 5.99902H15.7499C15.551 5.99902 15.3603 5.92001 15.2196 5.77935C15.0789 5.6387 14.9999 5.44794 14.9999 5.24902C14.9999 5.05011 15.0789 4.85935 15.2196 4.71869C15.3603 4.57804 15.551 4.49902 15.7499 4.49902H21.7499C21.9488 4.49902 22.1396 4.57804 22.2803 4.71869C22.4209 4.85935 22.4999 5.05011 22.4999 5.24902Z" fill="#212121"/>
</svg>
