<svg width="24" height="24" viewBox="0 0 24 24" fill="none" xmlns="http://www.w3.org/2000/svg">
<path d="M21 14.249V19.499C21 19.8968 20.842 20.2784 20.5607 20.5597C20.2794 20.841 19.8978 20.999 19.5 20.999H4.5C4.10218 20.999 3.72064 20.841 3.43934 20.5597C3.15804 20.2784 3 19.8968 3 19.499V14.249C3 14.0501 3.07902 13.8593 3.21967 13.7187C3.36032 13.578 3.55109 13.499 3.75 13.499C3.94891 13.499 4.13968 13.578 4.28033 13.7187C4.42098 13.8593 4.5 14.0501 4.5 14.249V19.499H19.5V14.249C19.5 14.0501 19.579 13.8593 19.7197 13.7187C19.8603 13.578 20.0511 13.499 20.25 13.499C20.4489 13.499 20.6397 13.578 20.7803 13.7187C20.921 13.8593 21 14.0501 21 14.249ZM11.4694 14.7796C11.539 14.8494 11.6217 14.9047 11.7128 14.9424C11.8038 14.9802 11.9014 14.9996 12 14.9996C12.0986 14.9996 12.1962 14.9802 12.2872 14.9424C12.3783 14.9047 12.461 14.8494 12.5306 14.7796L16.2806 11.0296C16.3503 10.96 16.4056 10.8772 16.4433 10.7862C16.481 10.6952 16.5004 10.5976 16.5004 10.499C16.5004 10.4005 16.481 10.3029 16.4433 10.2119C16.4056 10.1208 16.3503 10.0381 16.2806 9.9684C16.2109 9.89872 16.1282 9.84344 16.0372 9.80573C15.9461 9.76802 15.8485 9.74861 15.75 9.74861C15.6515 9.74861 15.5539 9.76802 15.4628 9.80573C15.3718 9.84344 15.2891 9.89872 15.2194 9.9684L12.75 12.4387V3.74902C12.75 3.55011 12.671 3.35935 12.5303 3.21869C12.3897 3.07804 12.1989 2.99902 12 2.99902C11.8011 2.99902 11.6103 3.07804 11.4697 3.21869C11.329 3.35935 11.25 3.55011 11.25 3.74902V12.4387L8.78063 9.9684C8.63989 9.82767 8.44902 9.74861 8.25 9.74861C8.05098 9.74861 7.86011 9.82767 7.71937 9.9684C7.57864 10.1091 7.49958 10.3 7.49958 10.499C7.49958 10.698 7.57864 10.8889 7.71937 11.0296L11.4694 14.7796Z" fill="#212121"/>
</svg>
