<svg width="24" height="24" viewBox="0 0 24 24" fill="none" xmlns="http://www.w3.org/2000/svg">
<path d="M20.3125 4.99902H2.3125C1.9644 4.99902 1.63056 5.1373 1.38442 5.38345C1.13828 5.62959 1 5.96343 1 6.31152V18.3115C1 18.6596 1.13828 18.9935 1.38442 19.2396C1.63056 19.4857 1.9644 19.624 2.3125 19.624H20.3125C20.6606 19.624 20.9944 19.4857 21.2406 19.2396C21.4867 18.9935 21.625 18.6596 21.625 18.3115V6.31152C21.625 5.96343 21.4867 5.62959 21.2406 5.38345C20.9944 5.1373 20.6606 4.99902 20.3125 4.99902ZM2.3125 6.12402H20.3125C20.3622 6.12402 20.4099 6.14378 20.4451 6.17894C20.4802 6.2141 20.5 6.2618 20.5 6.31152V8.31152H2.125V6.31152C2.125 6.2618 2.14475 6.2141 2.17992 6.17894C2.21508 6.14378 2.26277 6.12402 2.3125 6.12402ZM20.3125 18.499H2.3125C2.26277 18.499 2.21508 18.4793 2.17992 18.4441C2.14475 18.4089 2.125 18.3613 2.125 18.3115V9.43652H20.5V18.3115C20.5 18.3613 20.4802 18.4089 20.4451 18.4441C20.4099 18.4793 20.3622 18.499 20.3125 18.499Z" fill="#212121"/>
<path d="M4.00391 10.8779H8.42225" stroke="#212121" stroke-linecap="round"/>
<path d="M4.00391 12.6709H8.42225" stroke="#212121" stroke-linecap="round"/>
<path d="M4.00391 10.8774C4.95069 10.8561 7.15987 10.8774 7.15987 12.771C7.15987 14.6646 4.95069 14.6432 4.00391 14.6646" stroke="#212121" stroke-linecap="round"/>
<path d="M7.15884 17.8924C7.37257 18.0672 7.68758 18.0357 7.86244 17.822C8.03731 17.6083 8.00581 17.2933 7.79208 17.1184L7.15884 17.8924ZM3.68729 15.052L7.15884 17.8924L7.79208 17.1184L4.32053 14.2781L3.68729 15.052Z" fill="#212121"/>
</svg>
