<svg width="24" height="24" viewBox="0 0 24 24" fill="none" xmlns="http://www.w3.org/2000/svg">
<path d="M21.1406 11.9993H18.1406C17.7428 11.9993 17.3613 12.1574 17.08 12.4387C16.7987 12.72 16.6406 13.1015 16.6406 13.4993V17.2493C16.6406 17.6472 16.7987 18.0287 17.08 18.31C17.3613 18.5913 17.7428 18.7493 18.1406 18.7493H19.6406C20.0384 18.7493 20.42 18.5913 20.7013 18.31C20.9826 18.0287 21.1406 17.6472 21.1406 17.2493V11.9993ZM21.1406 11.9993C21.1407 10.8111 20.9054 9.63462 20.4484 8.53777C19.9915 7.44093 19.3218 6.44543 18.4781 5.60871C17.6344 4.772 16.6334 4.11063 15.5328 3.66277C14.4322 3.21492 13.2538 2.98943 12.0656 2.99934C10.8782 2.99068 9.70083 3.21708 8.60132 3.66549C7.5018 4.11391 6.50189 4.77547 5.6592 5.61206C4.81651 6.44865 4.1477 7.44373 3.69131 8.53996C3.23492 9.63619 2.99997 10.8119 3 11.9993V17.2493C3 17.6472 3.15804 18.0287 3.43934 18.31C3.72064 18.5913 4.10218 18.7493 4.5 18.7493H6C6.39782 18.7493 6.77936 18.5913 7.06066 18.31C7.34196 18.0287 7.5 17.6472 7.5 17.2493V13.4993C7.5 13.1015 7.34196 12.72 7.06066 12.4387C6.77936 12.1574 6.39782 11.9993 6 11.9993H3" stroke="#212121" stroke-width="1.2" stroke-linecap="round" stroke-linejoin="round"/>
<path d="M21.1406 17.249V19.499C21.1406 20.2947 20.8246 21.0577 20.2619 21.6203C19.6993 22.183 18.9363 22.499 18.1406 22.499H12.75" stroke="#212121" stroke-width="1.2" stroke-linecap="round" stroke-linejoin="round"/>
</svg>
