<svg width="24" height="24" viewBox="0 0 24 24" fill="none" xmlns="http://www.w3.org/2000/svg">
<path d="M5.26904 9.74897C5.2678 8.85947 5.44262 7.97853 5.78343 7.15692C6.12424 6.33531 6.6243 5.58927 7.25477 4.96182C7.88525 4.33437 8.63368 3.83791 9.45693 3.50106C10.2802 3.16421 11.1619 2.99363 12.0514 2.99915C15.763 3.02675 18.7317 6.11178 18.7317 9.8337V10.499C18.7317 13.8567 19.4342 15.8051 20.0529 16.87C20.1196 16.9838 20.1551 17.1132 20.1558 17.2451C20.1565 17.3769 20.1224 17.5066 20.0569 17.6211C19.9915 17.7356 19.8971 17.8309 19.7831 17.8972C19.6691 17.9635 19.5397 17.9986 19.4078 17.999H4.59222C4.46034 17.9986 4.33087 17.9635 4.21689 17.8972C4.1029 17.8308 4.00844 17.7356 3.94301 17.6211C3.87759 17.5065 3.84352 17.3768 3.84425 17.2449C3.84498 17.113 3.88048 16.9837 3.94716 16.8699C4.56622 15.8049 5.26904 13.8565 5.26904 10.499L5.26904 9.74897Z" stroke="#212121" stroke-width="1.4" stroke-linecap="round" stroke-linejoin="round"/>
<path d="M9 17.999V18.749C9 19.5447 9.31607 20.3077 9.87868 20.8703C10.4413 21.433 11.2044 21.749 12 21.749C12.7956 21.749 13.5587 21.433 14.1213 20.8703C14.6839 20.3077 15 19.5447 15 18.749V17.999" stroke="#212121" stroke-width="1.4" stroke-linecap="round" stroke-linejoin="round"/>
</svg>
