<svg width="24" height="24" viewBox="0 0 24 24" fill="none" xmlns="http://www.w3.org/2000/svg">
<path d="M21 16.621V7.37727C20.9993 7.24374 20.9634 7.11277 20.8959 6.99755C20.8284 6.88234 20.7317 6.78695 20.6156 6.72102L12.3656 2.08039C12.2545 2.01621 12.1284 1.98242 12 1.98242C11.8716 1.98242 11.7455 2.01621 11.6344 2.08039L3.38437 6.72102C3.26827 6.78695 3.1716 6.88234 3.10411 6.99755C3.03663 7.11277 3.00072 7.24374 3 7.37727V16.621C3.00072 16.7545 3.03663 16.8855 3.10411 17.0007C3.1716 17.1159 3.26827 17.2113 3.38437 17.2773L11.6344 21.9179C11.7455 21.9821 11.8716 22.0159 12 22.0159C12.1284 22.0159 12.2545 21.9821 12.3656 21.9179L20.6156 17.2773C20.7317 17.2113 20.8284 17.1159 20.8959 17.0007C20.9634 16.8855 20.9993 16.7545 21 16.621V16.621Z" stroke="#212121" stroke-width="1.4" stroke-linecap="round" stroke-linejoin="round"/>
<path d="M16.5938 14.2959V9.4209L7.5 4.40527" stroke="#212121" stroke-width="1.4" stroke-linecap="round" stroke-linejoin="round"/>
<path d="M20.8973 6.99316L12.0848 11.9994L3.10352 6.99316" stroke="#212121" stroke-width="1.4" stroke-linecap="round" stroke-linejoin="round"/>
<path d="M12.0844 11.999L12 22.0115" stroke="#212121" stroke-width="1.4" stroke-linecap="round" stroke-linejoin="round"/>
</svg>
