<svg xmlns="http://www.w3.org/2000/svg" width="23" height="22" viewBox="0 0 23 22"><g fill="none" fill-rule="evenodd" transform="translate(-9.694 -9)"><ellipse cx="20.557" cy="20" rx="20.557" ry="20"/><path d="M7 6h28v28H7z"/><path fill="#2874F0" fill-rule="nonzero" d="M31.5 27v1.167a2.34 2.34 0 0 1-2.333 2.333H12.833a2.333 2.333 0 0 1-2.333-2.333V11.833A2.333 2.333 0 0 1 12.833 9.5h16.334a2.34 2.34 0 0 1 2.333 2.333V13H21a2.333 2.333 0 0 0-2.333 2.333v9.334A2.333 2.333 0 0 0 21 27h10.5zM21 24.667h11.667v-9.334H21v9.334zm4.667-2.917c-.97 0-1.75-.782-1.75-1.75s.78-1.75 1.75-1.75c.968 0 1.75.782 1.75 1.75s-.782 1.75-1.75 1.75z"/></g></svg>