<svg xmlns="http://www.w3.org/2000/svg" width="24" height="24" viewBox="0 0 24 24" fill="none">
  <g clip-path="url(#clip0_11829_87876)">
    <path d="M12 21C16.9706 21 21 16.9706 21 12C21 7.02944 16.9706 3 12 3C7.02944 3 3 7.02944 3 12C3 16.9706 7.02944 21 12 21Z" stroke="black" stroke-width="1.4" stroke-linecap="round" stroke-linejoin="round"/>
    <path d="M12 15C14.0711 15 15.75 13.3211 15.75 11.25C15.75 9.17893 14.0711 7.5 12 7.5C9.92893 7.5 8.25 9.17893 8.25 11.25C8.25 13.3211 9.92893 15 12 15Z" stroke="black" stroke-width="1.4" stroke-linecap="round" stroke-linejoin="round"/>
    <path d="M5.98047 18.6904C6.54476 17.5789 7.40581 16.6454 8.46816 15.9933C9.53052 15.3413 10.7527 14.9961 11.9992 14.9961C13.2457 14.9961 14.4679 15.3413 15.5303 15.9933C16.5926 16.6454 17.4537 17.5789 18.018 18.6904" stroke="black" stroke-width="1.4" stroke-linecap="round" stroke-linejoin="round"/>
  </g>
  <defs>
    <clipPath id="clip0_11829_87876">
      <rect width="24" height="24" fill="white"/>
    </clipPath>
  </defs>
</svg>
