<svg width="24" height="24" viewBox="0 0 24 24" fill="none" xmlns="http://www.w3.org/2000/svg">
<path d="M20.25 7.49902H3.75C3.33579 7.49902 3 7.83481 3 8.24902V11.249C3 11.6632 3.33579 11.999 3.75 11.999H20.25C20.6642 11.999 21 11.6632 21 11.249V8.24902C21 7.83481 20.6642 7.49902 20.25 7.49902Z" stroke="#212121" stroke-width="1.2" stroke-linecap="round" stroke-linejoin="round"/>
<path d="M19.5 11.999V18.749C19.5 18.9479 19.421 19.1387 19.2803 19.2794C19.1397 19.42 18.9489 19.499 18.75 19.499H5.25C5.05109 19.499 4.86032 19.42 4.71967 19.2794C4.57902 19.1387 4.5 18.9479 4.5 18.749V11.999" stroke="#212121" stroke-width="1.2" stroke-linecap="round" stroke-linejoin="round"/>
<path d="M12 7.49902V19.499" stroke="#212121" stroke-width="1.2" stroke-linecap="round" stroke-linejoin="round"/>
<path d="M16.2469 6.43945C15.1781 7.49882 12 7.49882 12 7.49882C12 7.49882 12 4.3207 13.0594 3.25195C13.4821 2.82926 14.0554 2.5918 14.6531 2.5918C15.2509 2.5918 15.8242 2.82926 16.2469 3.25195C16.6696 3.67464 16.907 4.24793 16.907 4.8457C16.907 5.44347 16.6696 6.01676 16.2469 6.43945V6.43945Z" stroke="#212121" stroke-width="1.2" stroke-linecap="round" stroke-linejoin="round"/>
<path d="M7.75341 6.43945C8.82216 7.49882 12.0003 7.49882 12.0003 7.49882C12.0003 7.49882 12.0003 4.3207 10.9409 3.25195C10.5182 2.82926 9.94494 2.5918 9.34716 2.5918C8.74939 2.5918 8.1761 2.82926 7.75341 3.25195C7.33073 3.67464 7.09326 4.24793 7.09326 4.8457C7.09326 5.44347 7.33073 6.01676 7.75341 6.43945Z" stroke="#212121" stroke-width="1.2" stroke-linecap="round" stroke-linejoin="round"/>
</svg>
