<svg width="24" height="24" viewBox="0 0 24 24" fill="none" xmlns="http://www.w3.org/2000/svg">
<path d="M4.49979 13.0547V19.2729C4.49979 19.4658 4.57881 19.6507 4.71947 19.7871C4.86012 19.9235 5.05088 20.0001 5.24979 20.0001H18.7498C18.9487 20.0001 19.1395 19.9235 19.2801 19.7871C19.4208 19.6507 19.4998 19.4658 19.4998 19.2729V13.0547" stroke="#212121" stroke-width="1.4" stroke-linecap="round" stroke-linejoin="round"/>
<path d="M5.0625 4H18.9375C19.1002 4.0013 19.2582 4.05324 19.3881 4.14817C19.5181 4.24309 19.6132 4.37599 19.6594 4.52727L21 9.09091H3L4.34062 4.52727C4.38682 4.37599 4.4819 4.24309 4.61187 4.14817C4.74183 4.05324 4.8998 4.0013 5.0625 4V4Z" stroke="#212121" stroke-width="1.4" stroke-linecap="round" stroke-linejoin="round"/>
<path d="M9 9.09082V10.5454C9 11.3169 8.68393 12.0568 8.12132 12.6024C7.55871 13.148 6.79565 13.4545 6 13.4545C5.20435 13.4545 4.44129 13.148 3.87868 12.6024C3.31607 12.0568 3 11.3169 3 10.5454V9.09082" stroke="#212121" stroke-width="1.4" stroke-linecap="round" stroke-linejoin="round"/>
<path d="M14.9999 9.09082V10.5454C14.9999 11.3169 14.6839 12.0568 14.1213 12.6024C13.5586 13.148 12.7956 13.4545 11.9999 13.4545C11.2043 13.4545 10.4412 13.148 9.87861 12.6024C9.316 12.0568 8.99993 11.3169 8.99993 10.5454V9.09082" stroke="#212121" stroke-width="1.4" stroke-linecap="round" stroke-linejoin="round"/>
<path d="M20.9999 9.09082V10.5454C20.9999 11.3169 20.6838 12.0568 20.1212 12.6024C19.5586 13.148 18.7955 13.4545 17.9999 13.4545C17.2042 13.4545 16.4412 13.148 15.8785 12.6024C15.3159 12.0568 14.9999 11.3169 14.9999 10.5454V9.09082" stroke="#212121" stroke-width="1.4" stroke-linecap="round" stroke-linejoin="round"/>
</svg>
