<svg xmlns="http://www.w3.org/2000/svg" width="23" height="19" viewBox="0 0 23 19"><g fill="none" fill-rule="evenodd"><path fill="#2874F0" fill-rule="nonzero" d="M20.5 2.75h-9L9.25.5H2.5A2.247 2.247 0 0 0 .26 2.75l-.01 13.5A2.257 2.257 0 0 0 2.5 18.5h18a2.257 2.257 0 0 0 2.25-2.25V5a2.257 2.257 0 0 0-2.25-2.25zm-5.625 3.375a2.257 2.257 0 0 1 2.25 2.25 2.257 2.257 0 0 1-2.25 2.25 2.257 2.257 0 0 1-2.25-2.25 2.257 2.257 0 0 1 2.25-2.25zm4.5 9h-9V14c0-1.496 3.004-2.25 4.5-2.25s4.5.754 4.5 2.25v1.125z"/><path d="M-2-4h27v27H-2z"/></g></svg>