<svg width="24" height="24" viewBox="0 0 24 24" fill="none" xmlns="http://www.w3.org/2000/svg">
<path d="M12 20.249C12 20.249 2.625 14.999 2.625 8.62403C2.625 7.49705 3.01546 6.40488 3.72996 5.53334C4.44445 4.66179 5.43884 4.06472 6.54393 3.8437C7.64903 3.62268 8.79657 3.79137 9.79131 4.32106C10.7861 4.85076 11.5665 5.70874 12 6.74903V6.74903C12.4335 5.70874 13.2139 4.85076 14.2087 4.32106C15.2034 3.79137 16.351 3.62268 17.4561 3.8437C18.5612 4.06472 19.5555 4.66179 20.27 5.53334C20.9845 6.40488 21.375 7.49705 21.375 8.62403C21.375 14.999 12 20.249 12 20.249Z" stroke="#212121" stroke-width="1.4" stroke-linecap="round" stroke-linejoin="round"/>
</svg>
