<svg xmlns="http://www.w3.org/2000/svg" width="159" height="40" viewBox="0 0 159 40" fill="none">
  <path d="M70.1938 38.7339H66.2354L68.9507 21.5703H75.9863C78.1362 21.5703 79.6493 21.9677 80.5307 22.7574C81.4171 23.5521 81.8654 24.6678 81.8654 26.1044C81.8654 26.8329 81.7992 27.5156 81.6668 28.1422C81.5343 28.7638 81.2949 29.3904 80.9484 30.0323C80.5969 30.6691 80.1486 31.2092 79.5933 31.6525C79.0329 32.0957 78.2942 32.4625 77.3721 32.7477C76.4499 33.0279 75.375 33.1654 74.1574 33.1654H71.0752L70.1938 38.7339ZM71.5795 30.0323H74.3204C76.6232 30.0323 77.7694 28.9472 77.7694 26.7718C77.7694 26.0841 77.5707 25.5694 77.1836 25.228C76.7913 24.8816 76.1188 24.7034 75.1712 24.7034H72.4303L71.5795 30.0323Z" fill="#FFC200"/>
  <path d="M88.4722 35.5967L88.1819 38.4652C87.2852 38.8116 86.3682 38.9898 85.441 38.9898C84.3864 38.9898 83.5764 38.7452 83.0211 38.2714C82.4658 37.7874 82.1855 37.0894 82.1855 36.1826C82.1855 35.938 82.2008 35.6681 82.2467 35.3726L84.5036 20.9805H88.294L86.1746 34.4301C86.1542 34.6237 86.1491 34.7614 86.1491 34.848C86.1491 35.2352 86.2153 35.4847 86.358 35.6171C86.4955 35.7496 86.7758 35.8159 87.1935 35.8159C87.5399 35.821 87.9628 35.7496 88.4722 35.5967Z" fill="#FFC200"/>
  <path d="M103.405 25.9297L101.352 38.727H98.4022L98.4939 36.0118C97.1489 37.9987 95.427 38.992 93.3229 38.992C92.1868 38.992 91.3411 38.6814 90.7756 38.0497C90.205 37.4179 89.9248 36.5772 89.9248 35.5278C89.9248 35.0845 89.9554 34.6922 90.0165 34.3509L91.3717 25.9297H95.1467L93.9444 33.4136C93.8986 33.6581 93.8833 33.9178 93.8833 34.1827C93.8833 35.1456 94.2195 35.6196 94.9022 35.6196C95.432 35.6196 96.0281 35.319 96.6904 34.7178C97.3578 34.1166 97.9844 33.3677 98.5703 32.4608L99.6147 25.9347L103.405 25.9297Z" fill="#FFC200"/>
  <path d="M103.746 38.3625L104.398 35.2038C104.51 35.3311 105.02 35.4943 105.927 35.6879C106.828 35.8713 107.679 35.963 108.469 35.963C110.109 35.963 110.924 35.5555 110.924 34.7505C110.924 34.4602 110.715 34.2359 110.298 34.0627C109.89 33.8793 109.386 33.7316 108.795 33.6043C108.204 33.482 107.613 33.324 107.022 33.1202C106.436 32.9062 105.937 32.5648 105.519 32.0707C105.106 31.5765 104.903 30.9499 104.903 30.1908C104.903 28.7287 105.427 27.6079 106.482 26.8336C107.531 26.0592 109.121 25.6719 111.235 25.6719C111.933 25.6719 112.611 25.7177 113.273 25.7992C113.93 25.8909 114.44 25.9827 114.791 26.0846C115.132 26.1814 115.362 26.2629 115.469 26.3189L114.832 29.3707C114.562 29.1974 114.063 29.0445 113.329 28.9172C112.6 28.7847 111.892 28.7184 111.215 28.7184C109.534 28.7184 108.693 29.1057 108.693 29.8801C108.693 30.1603 108.897 30.3845 109.309 30.5475C109.727 30.7055 110.231 30.8429 110.812 30.9652C111.393 31.0926 111.979 31.2506 112.56 31.4493C113.151 31.6531 113.65 31.9994 114.063 32.4936C114.48 32.9877 114.689 33.6143 114.689 34.3734C114.689 35.9476 114.129 37.1091 113.003 37.858C111.882 38.6018 110.338 38.9687 108.382 38.9687C107.633 38.9687 106.874 38.9178 106.11 38.8108C105.351 38.7191 104.78 38.6222 104.398 38.5356C104.026 38.4643 103.807 38.4033 103.746 38.3625Z" fill="#FFC200"/>
  <path d="M42.4488 3.72432L42.6883 2.16561C42.729 1.92107 42.6577 1.67649 42.4947 1.48799C42.3368 1.29949 42.1024 1.19246 41.8528 1.19246H32.3871C31.9693 1.19246 31.6178 1.49299 31.5516 1.90565L29.0094 17.9789C28.9737 18.2234 29.04 18.4732 29.203 18.6617C29.3609 18.8502 29.5953 18.9622 29.8398 18.9622H32.0254C32.4431 18.9622 32.7896 18.6617 32.8609 18.249L33.8441 12.0132H39.2596C39.6723 12.0132 40.0238 11.7127 40.0901 11.3L40.3142 9.93979C40.3499 9.69525 40.2836 9.44569 40.1206 9.25719C39.9576 9.0636 39.7233 8.95645 39.4736 8.95645H34.3638L35.0312 4.44273H41.6082C42.0362 4.43764 42.3877 4.14208 42.4488 3.72432ZM92.0648 9.08903L91.9985 9.06341C91.4126 8.8851 90.73 8.78853 89.9811 8.78853C88.7635 8.78853 87.8363 9.28253 87.23 10.2607C86.6391 11.2236 86.3334 12.3089 86.3334 13.4806C86.3334 14.2193 86.4607 14.8407 86.7155 15.3246C86.9804 15.8239 87.3574 16.0839 87.8363 16.0839C88.3712 16.0839 88.9876 15.7373 89.6754 15.0597C90.3479 14.3974 90.9643 13.6029 91.4942 12.7062L92.0648 9.08903ZM96.0385 7.23977L94.3013 18.2642C94.235 18.682 93.8835 18.9777 93.4658 18.9777H92.1769C91.9476 18.9777 91.7285 18.8858 91.5706 18.7177C91.4127 18.5547 91.326 18.3305 91.3362 18.1013L91.3872 16.7359L91.2343 16.904C91.2292 16.9091 90.7351 17.4593 90.1645 17.9025C89.3137 18.5648 88.3712 18.9215 88.2693 18.9622C87.7446 19.1558 87.1791 19.2525 86.5881 19.2525C85.289 19.2525 84.321 18.7889 83.6129 17.8413C82.9098 16.8988 82.5583 15.6458 82.5583 14.1276C82.5583 13.338 82.6398 12.5585 82.7926 11.8147C82.9506 11.0709 83.2257 10.3168 83.618 9.56789C84.0102 8.82409 84.5044 8.16174 85.0852 7.60644C85.6609 7.05113 86.4251 6.59763 87.3472 6.2512C88.2693 5.90987 89.3239 5.73677 90.4702 5.73677C91.8813 5.73677 93.5269 5.91511 95.361 6.27683C95.8144 6.36853 96.1098 6.78635 96.0385 7.23977ZM105.27 5.86414C104.404 6.06792 103.558 6.59775 102.998 7.01041C102.361 7.47911 101.449 8.47262 101.434 8.48281L101.281 8.65097L101.362 6.89822C101.373 6.66897 101.291 6.43972 101.128 6.2716C100.97 6.10348 100.746 6.0119 100.517 6.0119H99.2175C98.7998 6.0119 98.4483 6.30733 98.382 6.72509L96.604 17.9993C96.5684 18.2438 96.6397 18.4884 96.7976 18.6769C96.9555 18.8654 97.1899 18.9724 97.4395 18.9724H99.4468C99.8645 18.9724 100.216 18.6719 100.282 18.2592L101.22 12.2577C101.755 11.5037 102.447 10.8567 103.288 10.3269C103.915 9.93457 104.557 9.67986 105.199 9.58307C105.55 9.52703 105.83 9.25722 105.896 8.9057L106.284 6.84225C106.34 6.56205 106.248 6.27676 106.039 6.07807C105.846 5.87938 105.55 5.803 105.27 5.86414ZM64.9923 11.509C64.9923 10.7651 64.8598 10.1435 64.6051 9.66466C64.3402 9.16539 63.9683 8.91068 63.4894 8.91068C62.9544 8.91068 62.3329 9.25214 61.6502 9.93481C60.9727 10.6022 60.3613 11.3917 59.8264 12.2883L59.2558 15.9005L59.3271 15.9209C59.913 16.1043 60.5906 16.1958 61.3446 16.1958C62.5673 16.1958 63.4945 15.7018 64.0956 14.7236C64.6866 13.7659 64.9923 12.6858 64.9923 11.509ZM67.7077 7.15295C68.4056 8.09545 68.7622 9.34885 68.7622 10.8619C68.7622 11.8605 68.6247 12.8385 68.3547 13.7657C68.0847 14.6929 67.6567 15.5946 67.081 16.4505C66.5105 17.2962 65.6851 17.9891 64.6255 18.4985C63.5607 19.0131 62.2972 19.2782 60.8759 19.2782C60.3155 19.2782 59.6073 19.2222 58.7718 19.105L58.6852 19.0948L58.5324 20.6232C58.5273 20.6385 58.5273 20.6536 58.5273 20.6739L58.084 23.3588C58.0127 23.7663 57.6663 24.062 57.2536 24.062H55.2617C55.012 24.062 54.7828 23.955 54.6248 23.7665C54.4618 23.578 54.3905 23.3333 54.4312 23.0837L57.0295 6.72509C57.0957 6.31243 57.4472 6.01687 57.865 6.01687H59.1539C59.3831 6.01687 59.6073 6.10858 59.7652 6.2716C59.9232 6.43972 60.0098 6.66386 59.9996 6.88802L59.9487 8.27385L60.1015 8.08032C60.1168 8.06504 61.3446 6.57227 63.2245 5.9813C63.7441 5.81828 64.2434 5.73677 64.7477 5.73677C66.0265 5.74187 66.9995 6.20027 67.7077 7.15295ZM114.185 6.0119H112.616L112.963 3.77034C112.998 3.5258 112.927 3.27613 112.769 3.09273C112.611 2.90423 112.372 2.7972 112.127 2.7972H110.543C110.171 2.7972 109.84 3.04171 109.733 3.40342L108.963 6.0119H108.097C107.68 6.0119 107.333 6.30745 107.267 6.72011L107.068 7.93256C107.033 8.1771 107.094 8.42665 107.262 8.61515C107.42 8.80365 107.654 8.91068 107.904 8.91068H108.428L107.491 14.912C107.425 15.289 107.389 15.6814 107.389 16.0941C107.389 17.1588 107.669 17.9331 108.25 18.463C108.821 18.9826 109.692 19.2525 110.848 19.2525C111.541 19.2525 112.519 18.9622 112.637 18.9214C112.728 18.8858 112.902 18.8299 112.922 18.8197C112.958 18.8044 112.993 18.789 113.024 18.7737C113.268 18.6412 113.426 18.4019 113.457 18.1319L113.605 16.8888C113.63 16.629 113.538 16.3639 113.345 16.1856C113.289 16.1347 113.233 16.089 113.166 16.0483C113.121 16.0279 113.08 16.0073 113.034 15.9921C113.003 15.9819 112.927 15.9666 112.626 15.9717C112.555 15.9717 112.479 15.9769 112.402 15.9769C112.265 15.9769 112.178 15.9717 112.132 15.9615C112.015 15.9411 111.725 15.88 111.577 15.7475C111.506 15.6864 111.287 15.4929 111.287 14.7796C111.287 14.7083 111.292 14.6014 111.312 14.4485L112.173 8.9159H113.951C114.353 8.9159 114.705 8.63056 114.781 8.23828L115.016 7.02559C115.067 6.77595 115 6.52142 114.837 6.32782C114.68 6.12404 114.44 6.0119 114.185 6.0119ZM82.2526 6.3532C82.0947 6.13922 81.84 6.0119 81.5751 6.0119H79.4761C79.1042 6.0119 78.7731 6.26162 78.6661 6.61315C78.4878 7.22449 78.1515 7.92735 77.6573 8.71192C76.9696 9.81744 76.4041 10.5003 75.9252 10.806L75.8488 10.8415C75.6807 10.9281 75.4157 11.0554 74.4885 11.2184L74.3714 11.2388L75.8233 2.16561C75.859 1.92107 75.7927 1.67139 75.6297 1.48799C75.4718 1.29949 75.2374 1.18724 74.9929 1.18724H72.9856C72.5679 1.18724 72.2164 1.48802 72.1501 1.90068L69.5977 18.0045C69.557 18.2491 69.6283 18.4936 69.7863 18.6821C69.9442 18.8706 70.1836 18.9826 70.4282 18.9826H72.4354C72.8532 18.9826 73.2047 18.6821 73.2709 18.2694L73.9281 14.0714H75.1865L76.9186 18.4478C77.046 18.7739 77.3568 18.9826 77.7032 18.9826H79.8837C80.3473 18.9826 80.7294 18.6056 80.7294 18.1369C80.7294 18.0248 80.7039 17.9078 80.658 17.8008L78.6763 12.6908L78.717 12.6552C79.5372 11.9165 80.3778 10.867 81.2184 9.54749C81.7636 8.69161 82.1507 7.86627 82.38 7.10718C82.4615 6.84226 82.4106 6.56717 82.2526 6.3532ZM53.1882 4.9012C54.0237 4.9012 54.6503 4.68721 55.0477 4.25418C55.4501 3.81604 55.6488 3.27614 55.6488 2.59347C55.6488 2.06363 55.5011 1.66634 55.2005 1.40142C54.905 1.1365 54.4465 1.00391 53.8352 1.00391C52.9997 1.00391 52.373 1.22298 51.9808 1.65093C51.5732 2.08906 51.3745 2.63419 51.3745 3.31686C51.3745 3.84669 51.5273 4.24411 51.8228 4.50393C52.1285 4.77394 52.5717 4.9012 53.1882 4.9012ZM53.8658 6.0119H51.8789C51.4611 6.0119 51.1147 6.30745 51.0434 6.72011L49.2654 17.9993C49.2297 18.2438 49.2959 18.4935 49.4589 18.6769C49.6169 18.8654 49.8512 18.9724 50.0958 18.9724H52.0827C52.5004 18.9724 52.8468 18.6719 52.9182 18.2592L54.6962 6.98504C54.7318 6.7405 54.6656 6.49083 54.5026 6.30742C54.3446 6.12402 54.1154 6.0119 53.8658 6.0119ZM48.1191 1.48799C48.277 1.67649 48.3534 1.92107 48.3127 2.16561L46.3564 14.6473C46.336 14.8613 46.3309 14.9935 46.3309 15.0801C46.3309 15.4979 46.4124 15.7884 46.5703 15.9361C46.7181 16.0736 47.0441 16.15 47.1002 16.1602C47.2785 16.1857 47.4466 16.2775 47.574 16.41C47.7421 16.5883 47.8287 16.8326 47.8083 17.0771L47.6962 18.198C47.6708 18.4375 47.5689 18.6361 47.4211 18.7431C47.2836 18.8348 47.1155 18.9215 46.9015 19.003C46.6875 19.0845 46.0863 19.2578 45.6686 19.2578C44.614 19.2578 43.7989 19.0131 43.2436 18.5291C42.6934 18.0503 42.4132 17.3523 42.4132 16.4505C42.4132 16.206 42.4386 15.9362 42.4896 15.6458C42.5049 15.5235 44.614 2.05862 44.6395 1.91088C44.7057 1.49822 45.0573 1.19744 45.475 1.19744H47.4823C47.7268 1.19235 47.9561 1.29949 48.1191 1.48799Z" fill="#2A55E5"/>
  <path d="M147.834 10.6948C147.834 10.6948 152.801 13.1555 155.252 14.1998C157.636 15.2137 157.906 19.0143 155.282 20.2981C152.659 21.582 151.935 21.7907 151.935 21.7907C151.935 21.7907 152.348 20.726 152.292 19.6969C152.124 17.8628 146.703 16.3752 143.111 15.4939C143.111 15.4939 140.355 6.84333 139.107 4.4336C137.854 2.00859 135.312 1 135.312 1L141.318 1.08134C141.318 1.08134 143.386 0.979403 144.303 3.19554C145.215 5.42186 147.834 10.6948 147.834 10.6948Z" fill="url(#paint0_linear_11912_12648)"/>
  <path d="M147.483 29.6581C147.483 29.6581 145.047 34.5692 143.978 37.0808C142.959 39.4651 139.087 39.7351 137.803 37.1114C136.519 34.4877 136.387 34.0241 136.387 34.0241C136.387 34.0241 137.161 34.1769 138.394 34.1208C140.228 33.9527 141.802 28.5321 142.684 24.9404C142.684 24.9404 151.329 22.1792 153.744 20.9362C156.169 19.6829 157.173 17.1406 157.173 17.1406L157.091 24.0439C157.091 24.0439 157.193 25.2207 154.977 26.1377C152.756 27.0445 147.483 29.6581 147.483 29.6581Z" fill="url(#paint1_linear_11912_12648)"/>
  <path d="M128.368 29.2855C128.368 29.2855 123.426 26.8399 120.945 25.7803C118.561 24.7665 118.29 20.961 120.914 19.6822C123.538 18.3984 124.592 18.1641 124.592 18.1641C124.592 18.1641 123.91 19.2542 124.078 20.482C124.251 22.3211 129.499 23.6049 133.08 24.4862C133.08 24.4862 135.943 33.0858 137.084 35.5465C138.48 38.5421 140.793 39.0008 140.793 39.0008L133.982 38.8988C133.982 38.8988 132.805 39.0007 131.888 36.7846C130.981 34.5583 128.368 29.2855 128.368 29.2855Z" fill="url(#paint2_linear_11912_12648)"/>
  <path d="M128.776 10.3235C128.776 10.3235 131.221 5.38696 132.281 2.90082C133.295 0.516563 137.095 0.251616 138.379 2.87022C139.663 5.49392 139.785 5.96775 139.785 5.96775C139.785 5.96775 138.817 5.98286 137.793 6.0389C135.954 6.21211 134.456 11.4596 133.58 15.0462C133.58 15.0462 124.96 17.8634 122.52 19.0504C119.163 20.6807 119.035 22.7696 119.035 22.7696L119.173 15.9479C119.173 15.9479 119.071 14.7711 121.287 13.8541C123.503 12.9371 128.776 10.3235 128.776 10.3235Z" fill="url(#paint3_linear_11912_12648)"/>
  <defs>
    <linearGradient id="paint0_linear_11912_12648" x1="135.441" y1="0.871007" x2="155.206" y2="20.6365" gradientUnits="userSpaceOnUse">
      <stop offset="0.0411" stop-color="#FFF300"/>
      <stop offset="0.2727" stop-color="#FFF300"/>
      <stop offset="0.5022" stop-color="#FFE500"/>
      <stop offset="0.8126" stop-color="#F2A930"/>
    </linearGradient>
    <linearGradient id="paint1_linear_11912_12648" x1="137.547" y1="37.1137" x2="157.346" y2="17.3145" gradientUnits="userSpaceOnUse">
      <stop offset="0.1874" stop-color="#F2A930"/>
      <stop offset="0.4978" stop-color="#FFE500"/>
      <stop offset="0.7273" stop-color="#FFF300"/>
      <stop offset="0.9589" stop-color="#FFF300"/>
    </linearGradient>
    <linearGradient id="paint2_linear_11912_12648" x1="120.945" y1="19.3882" x2="140.675" y2="39.1188" gradientUnits="userSpaceOnUse">
      <stop offset="0.1874" stop-color="#F2A930"/>
      <stop offset="0.4978" stop-color="#FFE500"/>
      <stop offset="0.7273" stop-color="#FFF300"/>
      <stop offset="0.9589" stop-color="#FFF300"/>
    </linearGradient>
    <linearGradient id="paint3_linear_11912_12648" x1="118.929" y1="22.6637" x2="138.681" y2="2.91183" gradientUnits="userSpaceOnUse">
      <stop offset="0.0411" stop-color="#FFF300"/>
      <stop offset="0.2727" stop-color="#FFF300"/>
      <stop offset="0.5022" stop-color="#FFE500"/>
      <stop offset="0.8126" stop-color="#F2A930"/>
    </linearGradient>
  </defs>
</svg>
