<?xml version="1.0" encoding="UTF-8"?><svg xmlns="http://www.w3.org/2000/svg" xmlns:xlink="http://www.w3.org/1999/xlink" viewBox="0 0 189.52 36.76"><defs><style>.cls-1{fill:#fdf7f6;opacity:.04;}.cls-2{fill:#fdf9f8;opacity:.03;}.cls-3{fill:none;}.cls-4{fill:#fcf5f3;opacity:.06;}.cls-5{fill:#fcf6f4;opacity:.05;}.cls-6{fill:#fcf7f5;opacity:.05;}.cls-7{fill:#faf0ed;opacity:.08;}.cls-8{fill:#fdfaf9;opacity:.03;}.cls-9{fill:#fefbfa;opacity:.02;}.cls-10{fill:#fdf8f7;opacity:.04;}.cls-11{fill:#f8e8e4;opacity:.13;}.cls-12{fill:#f8e9e5;opacity:.12;}.cls-13{fill:#fbf1ee;opacity:.08;}.cls-14{fill:#fbf2ef;opacity:.07;}.cls-15{fill:#fbf2f0;opacity:.07;}.cls-16{fill:#fbf3f1;opacity:.06;}.cls-17{fill:#fcf4f2;opacity:.06;}.cls-18{fill:#f9eae6;opacity:.12;}.cls-19{fill:#f9ece8;opacity:.11;}.cls-20{fill:#f9ebe7;opacity:.11;}.cls-21{fill:#f9ede9;opacity:.1;}.cls-22{fill:#faedea;opacity:.1;}.cls-23{fill:#faeeeb;opacity:.09;}.cls-24{fill:#faefec;opacity:.09;}.cls-25{fill:url(#linear-gradient);}.cls-26{clip-path:url(#clippath);}.cls-27{fill:#040101;}.cls-28{fill:#010000;}.cls-29{fill:#030101;}.cls-30{fill:#060201;}.cls-31{fill:#050201;}.cls-32{fill:#020100;}.cls-33{fill:#6b2815;}.cls-34{fill:#6a2815;}.cls-35{fill:#682714;}.cls-36{fill:#7f2f19;}.cls-37{fill:#6c2815;}.cls-38{fill:#823119;}.cls-39{fill:#803019;}.cls-40{fill:#752c17;}.cls-41{fill:#692714;}.cls-42{fill:#662614;}.cls-43{fill:#9a391e;}.cls-44{fill:#99391e;}.cls-45{fill:#98391d;}.cls-46{fill:#6d2915;}.cls-47{fill:#813019;}.cls-48{fill:#7e2f18;}.cls-49{fill:#8c341b;}.cls-50{fill:#93371d;}.cls-51{fill:#a03c1f;}.cls-52{fill:#a13c1f;}.cls-53{fill:#87321a;}.cls-54{fill:#b74424;}.cls-55{fill:#ba4524;}.cls-56{fill:#9e3b1f;}.cls-57{fill:#9f3b1f;}.cls-58{fill:#8d351b;}.cls-59{fill:#9d3b1e;}.cls-60{fill:#a23c1f;}.cls-61{fill:#8e351c;}.cls-62{fill:#92361c;}.cls-63{fill:#c44926;}.cls-64{fill:#91361c;}.cls-65{fill:#c34926;}.cls-66{fill:#b54423;}.cls-67{fill:#b84524;}.cls-68{fill:#b64423;}.cls-69{fill:#672614;}.cls-70{fill:#742b17;}.cls-71{fill:#33130a;}.cls-72{fill:#32130a;}.cls-73{fill:#bc4624;}.cls-74{fill:#31120a;}.cls-75{fill:#301209;}.cls-76{fill:#8f351c;}.cls-77{fill:#bb4624;}.cls-78{fill:#90361c;}.cls-79{fill:#b94524;}.cls-80{fill:#86321a;}.cls-81{fill:#94371d;}.cls-82{fill:#af4122;}.cls-83{fill:#a83f21;}.cls-84{fill:#a93f21;}.cls-85{fill:#aa3f21;}.cls-86{fill:#c14825;}.cls-87{fill:#b34323;}.cls-88{fill:#be4725;}.cls-89{fill:#ac4021;}.cls-90{fill:#b04222;}.cls-91{fill:#b14222;}.cls-92{fill:#b24223;}.cls-93{fill:#a63e20;}.cls-94{fill:#b44323;}.cls-95{fill:#a53e20;}.cls-96{fill:#a73e20;}.cls-97{fill:#c24826;}.cls-98{fill:#bd4725;}.cls-99{fill:#bf4725;}.cls-100{fill:#ab4021;}.cls-101{fill:#c04825;}.cls-102{fill:#c94b27;}.cls-103{fill:#c54a26;}.cls-104{fill:#c84b27;}.cls-105{fill:#c74a27;}.cls-106{fill:#c64a26;}.cls-107{fill:#ad4122;}.cls-108{fill:#ae4122;}.cls-109{fill:#150804;}.cls-110{fill:#140704;}.cls-111{fill:#130704;}.cls-112{fill:#120703;}.cls-113{fill:#190905;}.cls-114{fill:#180905;}.cls-115{fill:#260e07;}.cls-116{fill:#170904;}.cls-117{fill:#250e07;}.cls-118{fill:#200c06;}.cls-119{fill:#1f0c06;}.cls-120{fill:#240d07;}.cls-121{fill:#230d07;}.cls-122{fill:#220d07;}.cls-123{fill:#210c06;}.cls-124{fill:#0c0402;}.cls-125{fill:#0b0402;}.cls-126{fill:#44190d;}.cls-127{fill:#41180d;}.cls-128{fill:#42190d;}.cls-129{fill:#090302;}.cls-130{fill:#080302;}.cls-131{fill:#070301;}.cls-132{fill:#160804;}.cls-133{fill:#0d0503;}.cls-134{fill:#110603;}.cls-135{fill:#100603;}.cls-136{fill:#0f0603;}.cls-137{fill:#1e0b06;}.cls-138{fill:#43190d;}.cls-139{fill:#37150b;}.cls-140{fill:#38150b;}.cls-141{fill:#451a0d;}.cls-142{fill:#36140a;}.cls-143{fill:#1b0a05;}.cls-144{fill:#1a0a05;}.cls-145{fill:#0a0402;}.cls-146{fill:#3f180c;}.cls-147{fill:#40180c;}.cls-148{fill:#0e0503;}.cls-149{fill:#3e170c;}.cls-150{fill:#1d0b06;}.cls-151{fill:#1c0a05;}.cls-152{fill:#95381d;}.cls-153{fill:#a43d20;}.cls-154{fill:#6f2916;}.cls-155{fill:#702a16;}.cls-156{fill:#a33d20;}.cls-157{fill:#732b16;}.cls-158{fill:#97381d;}.cls-159{fill:#96381d;}.cls-160{fill:#8a331b;}.cls-161{fill:#461a0e;}.cls-162{fill:#552010;}.cls-163{fill:#88331a;}.cls-164{fill:#8b341b;}.cls-165{fill:#9b3a1e;}.cls-166{fill:#6e2915;}.cls-167{fill:#89331b;}.cls-168{fill:#9c3a1e;}.cls-169{fill:#712a16;}.cls-170{fill:#833119;}.cls-171{fill:#562011;}.cls-172{fill:#652614;}.cls-173{fill:#642513;}.cls-174{fill:#632513;}.cls-175{fill:#5c2212;}.cls-176{fill:#5b2212;}.cls-177{fill:#280f08;}.cls-178{fill:#5a2211;}.cls-179{fill:#2a1008;}.cls-180{fill:#2b1008;}.cls-181{fill:#572011;}.cls-182{fill:#5d2312;}.cls-183{fill:#2d1109;}.cls-184{fill:#4b1c0f;}.cls-185{fill:#290f08;}.cls-186{fill:#491b0e;}.cls-187{fill:#481b0e;}.cls-188{fill:#2c1009;}.cls-189{fill:#35140a;}.cls-190{fill:#2e1109;}.cls-191{fill:#2f1209;}.cls-192{fill:#3d170c;}.cls-193{fill:#39150b;}.cls-194{fill:#3a160b;}.cls-195{fill:#3b160b;}.cls-196{fill:#3c160c;}.cls-197{fill:#34130a;}.cls-198{fill:#592111;}.cls-199{fill:#582111;}.cls-200{fill:#85321a;}.cls-201{fill:#4d1d0f;}.cls-202{fill:#5f2312;}.cls-203{fill:#622513;}.cls-204{fill:#4a1c0e;}.cls-205{fill:#602413;}.cls-206{fill:#541f10;}.cls-207{fill:#471a0e;}.cls-208{fill:#762c17;}.cls-209{fill:#772c17;}.cls-210{fill:#782d17;}.cls-211{fill:#7a2e18;}.cls-212{fill:#7b2e18;}.cls-213{fill:#4c1c0f;}.cls-214{fill:#5e2312;}.cls-215{fill:#612413;}.cls-216{fill:#722b16;}.cls-217{fill:#501e10;}.cls-218{fill:#531f10;}.cls-219{fill:#792d17;}.cls-220{fill:#511e10;}.cls-221{fill:#84311a;}.cls-222{fill:#4e1d0f;}.cls-223{fill:#7d2f18;}.cls-224{fill:#270f08;}.cls-225{fill:#521f10;}.cls-226{fill:#7c2e18;}.cls-227{fill:#4f1d0f;}.cls-228{fill:url(#linear-gradient-2);opacity:.65;}.cls-228,.cls-229{mix-blend-mode:multiply;}.cls-230{fill:#f7e4df;opacity:.15;}.cls-231{fill:#f7e5e0;opacity:.14;}.cls-232{fill:#f6e3dd;opacity:.16;}.cls-233{fill:#f7e3de;opacity:.15;}.cls-234{fill:#f8e7e2;opacity:.13;}.cls-235{fill:#f8e8e3;opacity:.13;}.cls-236{fill:#f7e6e1;opacity:.14;}.cls-237{fill:#f3d6ce;opacity:.23;}.cls-238{fill:#f3d7cf;opacity:.22;}.cls-239{fill:#f2d5cd;opacity:.23;}.cls-240{fill:#f4d9d2;opacity:.21;}.cls-241{fill:#f3d9d1;opacity:.21;}.cls-242{fill:#f3d8d0;opacity:.22;}.cls-243{fill:#f5ddd6;opacity:.19;}.cls-244{fill:#f4dcd5;opacity:.19;}.cls-245{fill:#f4dad3;opacity:.2;}.cls-246{fill:#f4dbd4;opacity:.2;}.cls-247{fill:#f6e1db;opacity:.17;}.cls-248{fill:#f5ded8;opacity:.18;}.cls-249{fill:#f5dfd9;opacity:.18;}.cls-250{fill:#f5ded7;opacity:.19;}.cls-251{fill:#edc5b9;opacity:.32;}.cls-252{fill:#eec5ba;opacity:.32;}.cls-253{fill:#edc4b8;opacity:.33;}.cls-254{fill:#f6e2dc;opacity:.16;}.cls-255{fill:#f6e0da;opacity:.17;}.cls-256{fill:#fefcfb;opacity:.02;}.cls-257{fill:#fff;opacity:0;}.cls-258{isolation:isolate;}.cls-259{fill:#fefdfd;opacity:0;}.cls-260{fill:#fefcfc;opacity:.01;}.cls-261{fill:#fffefe;opacity:0;}.cls-229{opacity:.5;}.cls-262{fill:#da856c;opacity:.68;}.cls-263{fill:#da846b;opacity:.69;}.cls-264{fill:#da836a;opacity:.69;}.cls-265{fill:#db8870;opacity:.66;}.cls-266{fill:#e09883;opacity:.57;}.cls-267{fill:#e09782;opacity:.58;}.cls-268{fill:#e19c88;opacity:.55;}.cls-269{fill:#df947f;opacity:.59;}.cls-270{fill:#df947e;opacity:.6;}.cls-271{fill:#e09984;opacity:.57;}.cls-272{fill:#df937d;opacity:.6;}.cls-273{fill:#de927c;opacity:.61;}.cls-274{fill:#df9580;opacity:.59;}.cls-275{fill:#de917b;opacity:.61;}.cls-276{fill:#e09681;opacity:.58;}.cls-277{fill:#de8f79;opacity:.62;}.cls-278{fill:#de907a;opacity:.62;}.cls-279{fill:#dd8f78;opacity:.62;}.cls-280{fill:#e4a391;opacity:.51;}.cls-281{fill:#e3a390;opacity:.51;}.cls-282{fill:#e3a28f;opacity:.52;}.cls-283{fill:#e3a18e;opacity:.52;}.cls-284{fill:#e3a08d;opacity:.53;}.cls-285{fill:#e29f8c;opacity:.53;}.cls-286{fill:#e4a492;opacity:.5;}.cls-287{fill:#e29e8a;opacity:.54;}.cls-288{fill:#e29d89;opacity:.55;}.cls-289{fill:#e19b87;opacity:.56;}.cls-290{fill:#e19a86;opacity:.56;}.cls-291{fill:#e29e8b;opacity:.54;}.cls-292{fill:#e19985;opacity:.56;}.cls-293{fill:#e5a897;opacity:.48;}.cls-294{fill:#e6ac9b;opacity:.46;}.cls-295{fill:#e5a998;opacity:.48;}.cls-296{fill:#e5aa99;opacity:.47;}.cls-297{fill:#e5a796;opacity:.49;}.cls-298{fill:#e4a593;opacity:.5;}.cls-299{fill:#e4a694;opacity:.5;}.cls-300{fill:#e4a795;opacity:.49;}.cls-301{fill:#d06141;opacity:.88;}.cls-302{fill:#cf5f3f;opacity:.89;}.cls-303{fill:#cf5d3d;opacity:.9;}.cls-304{fill:#ce5c3b;opacity:.91;}.cls-305{fill:#ce5d3c;opacity:.9;}.cls-306{fill:#cf6040;opacity:.88;}.cls-307{fill:#ce5a39;opacity:.92;}.cls-308{fill:#ce5b3a;opacity:.91;}.cls-309{fill:#cf5e3e;opacity:.89;}.cls-310{fill:#cd5938;opacity:.92;}.cls-311{fill:#cd5735;opacity:.94;}.cls-312{fill:#d26a4c;opacity:.83;}.cls-313{fill:#cd5837;opacity:.93;}.cls-314{fill:#d36b4d;opacity:.82;}.cls-315{fill:#d26749;opacity:.84;}.cls-316{fill:#d2694b;opacity:.83;}.cls-317{fill:#d36c4e;opacity:.82;}.cls-318{fill:#d16748;opacity:.85;}.cls-319{fill:#d2684a;opacity:.84;}.cls-320{fill:#d16445;opacity:.86;}.cls-321{fill:#d16546;opacity:.86;}.cls-322{fill:#d06344;opacity:.87;}.cls-323{fill:#d06242;opacity:.87;}.cls-324{fill:#d06243;opacity:.87;}.cls-325{fill:#d16647;opacity:.85;}.cls-326{fill:#d6775c;opacity:.75;}.cls-327{fill:#d6765a;opacity:.76;}.cls-328{fill:#d77a5f;opacity:.74;}.cls-329{fill:#d67559;opacity:.77;}.cls-330{fill:#d57357;opacity:.78;}.cls-331{fill:#d57256;opacity:.78;}.cls-332{fill:#d6765b;opacity:.76;}.cls-333{fill:#d47154;opacity:.79;}.cls-334{fill:#d47053;opacity:.8;}.cls-335{fill:#d57155;opacity:.79;}.cls-336{fill:#d57458;opacity:.77;}.cls-337{fill:#d46f52;opacity:.8;}.cls-338{fill:#d46e51;opacity:.81;}.cls-339{fill:#d36c4f;opacity:.81;}.cls-340{fill:#d36d50;opacity:.81;}.cls-341{fill:#d98067;opacity:.7;}.cls-342{fill:#d98168;opacity:.7;}.cls-343{fill:#db856d;opacity:.68;}.cls-344{fill:#d97f65;opacity:.71;}.cls-345{fill:#d87e64;opacity:.72;}.cls-346{fill:#da8269;opacity:.69;}.cls-347{fill:#d87c62;opacity:.73;}.cls-348{fill:#d87d63;opacity:.72;}.cls-349{fill:#d87b61;opacity:.73;}.cls-350{fill:#d77b60;opacity:.74;}.cls-351{fill:#d98066;opacity:.71;}.cls-352{fill:#d7785d;opacity:.75;}.cls-353{fill:#d7795e;opacity:.75;}.cls-354{fill:#edc2b6;opacity:.34;}.cls-355{fill:#ecc1b5;opacity:.34;}.cls-356{fill:#edc3b7;opacity:.33;}.cls-357{fill:#f0cec4;opacity:.27;}.cls-358{fill:#efcbc1;opacity:.29;}.cls-359{fill:#efcabf;opacity:.3;}.cls-360{fill:#eec6bb;opacity:.31;}.cls-361{fill:#efcac0;opacity:.29;}.cls-362{fill:#eec7bc;opacity:.31;}.cls-363{fill:#eec8bd;opacity:.31;}.cls-364{fill:#efc9be;opacity:.3;}.cls-365{fill:#f1cfc6;opacity:.26;}.cls-366{fill:#f2d3ca;opacity:.25;}.cls-367{fill:#f1d0c7;opacity:.26;}.cls-368{fill:#f1d1c8;opacity:.25;}.cls-369{fill:#f0ccc2;opacity:.28;}.cls-370{fill:#f0cdc3;opacity:.28;}.cls-371{fill:#f0cfc5;opacity:.27;}.cls-372{fill:#f2d4cb;opacity:.24;}.cls-373{fill:#f2d4cc;opacity:.24;}.cls-374{fill:#f1d2c9;opacity:.25;}.cls-375{fill:#e7ae9e;opacity:.45;}.cls-376{fill:#e8b1a2;opacity:.43;}.cls-377{fill:#e7af9f;opacity:.44;}.cls-378{fill:#e7b0a0;opacity:.44;}.cls-379{fill:#e6ad9d;opacity:.45;}.cls-380{fill:#e6ab9a;opacity:.47;}.cls-381{fill:#e6ac9c;opacity:.46;}.cls-382{fill:#e8b3a4;opacity:.42;}.cls-383{fill:#e8b4a5;opacity:.42;}.cls-384{fill:#e9b5a6;opacity:.41;}.cls-385{fill:#e7b1a1;opacity:.44;}.cls-386{fill:#e8b2a3;opacity:.43;}.cls-387{fill:#eab9ab;opacity:.39;}.cls-388{fill:#eabbad;opacity:.38;}.cls-389{fill:#e9b6a8;opacity:.4;}.cls-390{fill:#eabaac;opacity:.38;}.cls-391{fill:#e9b7a9;opacity:.4;}.cls-392{fill:#eab8aa;opacity:.39;}.cls-393{fill:#e9b6a7;opacity:.41;}.cls-394{fill:#ebbeb1;opacity:.36;}.cls-395{fill:#ecbfb2;opacity:.36;}.cls-396{fill:#ecc0b4;opacity:.35;}.cls-397{fill:#ebbcaf;opacity:.37;}.cls-398{fill:#ecc0b3;opacity:.35;}.cls-399{fill:#ebbbae;opacity:.38;}.cls-400{fill:#ebbdb0;opacity:.37;}.cls-401{fill:#dd8d76;opacity:.63;}.cls-402{fill:#dd8e77;opacity:.63;}.cls-403{fill:#dd8c75;opacity:.64;}.cls-404{fill:#dc8b74;opacity:.64;}.cls-405{fill:#dc8a73;opacity:.65;}.cls-406{fill:#dc8a72;opacity:.65;}.cls-407{fill:#dc8971;opacity:.66;}.cls-408{fill:#db876f;opacity:.67;}.cls-409{fill:#db866e;opacity:.67;}.cls-410{fill:#c53;opacity:.94;}.cls-411{fill:#cc5331;opacity:.95;}.cls-412{fill:#cc5432;opacity:.95;}.cls-413{fill:#cd5836;opacity:.93;}.cls-414{fill:#cb5330;opacity:.96;}.cls-415{fill:#cc5634;opacity:.94;}.cls-416{fill:#cb512e;opacity:.97;}.cls-417{fill:#ca4e2a;opacity:.99;}.cls-418{fill:#ca4e2b;opacity:.98;}.cls-419{fill:#cb522f;opacity:.96;}.cls-420{fill:#ca4d29;opacity:.99;}.cls-421{fill:#cb502d;opacity:.97;}.cls-422{fill:#ca4f2c;opacity:.98;}.cls-423{fill:#c94c28;opacity:1;}</style><linearGradient id="linear-gradient" x1="106.55" y1="28.73" x2="95.61" y2="11.6" gradientUnits="userSpaceOnUse"><stop offset="0" stop-color="#f9a020"/><stop offset=".25" stop-color="#f89b20"/><stop offset=".53" stop-color="#f68d20"/><stop offset=".62" stop-color="#f68820"/><stop offset=".73" stop-color="#f58120"/><stop offset="1" stop-color="#f47521"/></linearGradient><linearGradient id="linear-gradient-2" x1="104.82" y1="28.5" x2="88.83" y2="-2.76" gradientUnits="userSpaceOnUse"><stop offset="0" stop-color="#f68820" stop-opacity="0"/><stop offset=".11" stop-color="#ee7f22" stop-opacity=".14"/><stop offset=".31" stop-color="#e37226" stop-opacity=".35"/><stop offset=".5" stop-color="#db6829" stop-opacity=".52"/><stop offset=".69" stop-color="#d5602c" stop-opacity=".64"/><stop offset=".85" stop-color="#d15c2d" stop-opacity=".71"/><stop offset=".98" stop-color="#d05b2e" stop-opacity=".74"/></linearGradient><clipPath id="clippath"><path class="cls-3" d="m114.26,16.07c0,8.73-7.08,15.8-15.8,15.8s-15.8-7.08-15.8-15.8S89.73.27,98.46.27s15.8,7.07,15.8,15.8Z"/></clipPath></defs><g class="cls-258"><g id="Logo"><g><path d="m8.54,1.18H0v29.84h8.5c4.52,0,7.78-1.06,10.65-3.45,3.4-2.82,5.42-7.06,5.42-11.46C24.56,7.31,17.98,1.18,8.54,1.18Zm6.8,22.42c-1.83,1.65-4.21,2.37-7.97,2.37h-1.56V6.24h1.56c3.76,0,6.04.67,7.97,2.41,2.01,1.79,3.22,4.57,3.22,7.43s-1.21,5.73-3.22,7.52Z"/><rect x="27.24" y="1.18" width="5.82" height="29.84"/><path d="m47.3,12.63c-3.49-1.29-4.52-2.15-4.52-3.76,0-1.88,1.83-3.31,4.34-3.31,1.75,0,3.18.72,4.69,2.42l3.05-3.99c-2.5-2.19-5.5-3.31-8.77-3.31-5.28,0-9.31,3.67-9.31,8.55,0,4.11,1.88,6.22,7.34,8.18,2.28.8,3.44,1.34,4.02,1.7,1.16.76,1.75,1.83,1.75,3.09,0,2.42-1.92,4.21-4.52,4.21-2.77,0-5.01-1.39-6.35-3.98l-3.76,3.62c2.68,3.94,5.9,5.68,10.33,5.68,6.05,0,10.29-4.02,10.29-9.8,0-4.74-1.96-6.89-8.58-9.31Z"/><path d="m57.72,16.12c0,8.77,6.89,15.57,15.75,15.57,2.51,0,4.65-.49,7.3-1.74v-6.85c-2.33,2.33-4.39,3.27-7.03,3.27-5.86,0-10.02-4.25-10.02-10.29,0-5.73,4.29-10.25,9.75-10.25,2.78,0,4.88.99,7.3,3.36V2.34c-2.55-1.3-4.66-1.83-7.16-1.83-8.82,0-15.89,6.94-15.89,15.62Z"/><polygon points="126.92 21.22 118.96 1.18 112.61 1.18 125.27 31.79 128.4 31.79 141.3 1.18 134.98 1.18 126.92 21.22"/><polygon points="143.93 31.02 160.44 31.02 160.44 25.97 149.74 25.97 149.74 17.91 160.04 17.91 160.04 12.86 149.74 12.86 149.74 6.24 160.44 6.24 160.44 1.18 143.93 1.18 143.93 31.02"/><path d="m183.49,9.99c0-5.59-3.85-8.81-10.56-8.81h-8.63v29.84h5.81v-11.99h.76l8.06,11.99h7.16l-9.4-12.57c4.39-.89,6.8-3.89,6.8-8.46Zm-11.68,4.93h-1.7V5.88h1.79c3.63,0,5.6,1.52,5.6,4.42s-1.97,4.62-5.69,4.62Z"/><g><path d="m188.13,2.74c0-.52-.36-.81-1-.81h-.84v2.63h.63v-1.02l.74,1.02h.77l-.87-1.09c.37-.1.58-.37.58-.73Zm-1.11.36h-.11v-.69h.11c.31,0,.47.11.47.34s-.16.35-.48.35Z"/><path d="m187.25.95c-1.28,0-2.29,1.02-2.29,2.29s1.03,2.3,2.29,2.3,2.27-1.03,2.27-2.3-1.02-2.29-2.27-2.29Zm0,4.18c-1.01,0-1.83-.84-1.83-1.88s.81-1.88,1.83-1.88,1.82.86,1.82,1.88-.81,1.88-1.82,1.88Z"/></g><g><g><path class="cls-25" d="m114.26,16.07c0,8.73-7.07,15.8-15.8,15.8s-15.8-7.08-15.8-15.8S89.73.26,98.46.26s15.8,7.08,15.8,15.8Z"/><path class="cls-228" d="m114.26,16.07c0,8.73-7.07,15.8-15.8,15.8s-15.8-7.08-15.8-15.8S89.73.26,98.46.26s15.8,7.08,15.8,15.8Z"/></g><g class="cls-229"><g class="cls-26"><g><path class="cls-28" d="m98.52.01c8.9,0,16.12,7.21,16.12,16.11s-7.22,16.12-16.12,16.13c-.36,0-.72-.01-1.07-.03-8.41-.55-15.05-7.54-15.05-16.08,0-.22,0-.43.01-.65C82.75,6.88,89.83.01,98.52.01Z"/><path class="cls-32" d="m98.53.03c8.9,0,16.13,7.2,16.13,16.1s-7.22,16.13-16.12,16.13c-.36,0-.72-.01-1.07-.03-8.41-.55-15.06-7.53-15.06-16.08,0-.22,0-.43.01-.65C82.76,6.9,89.85.03,98.53.03Z"/><path class="cls-29" d="m98.54.04c8.9,0,16.13,7.19,16.13,16.1s-7.22,16.13-16.12,16.14c-.36,0-.72-.01-1.07-.03-8.41-.54-15.06-7.53-15.06-16.07,0-.22,0-.43.01-.65C82.77,6.91,89.86.04,98.54.04Z"/><path class="cls-27" d="m98.55.06c8.9,0,16.14,7.19,16.14,16.09s-7.22,16.13-16.11,16.14c-.36,0-.72-.01-1.07-.03-8.41-.54-15.06-7.53-15.06-16.07,0-.22,0-.43.01-.65C82.78,6.93,89.87.05,98.55.06Z"/><path class="cls-31" d="m98.56.07c8.9,0,16.14,7.18,16.14,16.08s-7.22,16.13-16.11,16.15c-.36,0-.72-.01-1.07-.03-8.41-.54-15.07-7.52-15.07-16.06,0-.22,0-.43.01-.65C82.8,6.94,89.88.07,98.56.07Z"/><path class="cls-30" d="m98.57.09c8.9,0,16.14,7.17,16.14,16.07s-7.23,16.13-16.11,16.15c-.36,0-.72-.01-1.07-.03-8.41-.54-15.07-7.52-15.07-16.06,0-.22,0-.43.01-.65C82.81,6.96,89.89.08,98.57.09Z"/><path class="cls-131" d="m98.58.1c8.9.01,16.15,7.16,16.15,16.06s-7.23,16.14-16.11,16.16c-.36,0-.72,0-1.07-.03-8.41-.53-15.07-7.51-15.08-16.05,0-.22,0-.43.01-.65C82.82,6.97,89.9.09,98.58.1Z"/><path class="cls-130" d="m98.59.12c8.9.01,16.15,7.15,16.15,16.05s-7.23,16.14-16.11,16.17c-.36,0-.72,0-1.07-.03-8.41-.53-15.08-7.51-15.08-16.05,0-.22,0-.43.01-.65C82.83,6.99,89.91.1,98.59.12Z"/><path class="cls-129" d="m98.6.13c8.89.01,16.15,7.15,16.15,16.04s-7.23,16.14-16.1,16.17c-.36,0-.72,0-1.07-.03-8.41-.53-15.08-7.51-15.08-16.05,0-.22,0-.43.01-.65.34-8.62,7.42-15.5,16.1-15.49Z"/><path class="cls-145" d="m98.6.15c8.89.02,16.16,7.14,16.16,16.03s-7.23,16.14-16.1,16.18c-.36,0-.72,0-1.07-.03-8.41-.52-15.08-7.5-15.09-16.04,0-.22,0-.43.01-.65.34-8.62,7.42-15.5,16.09-15.49Z"/><path class="cls-125" d="m98.61.16c8.89.02,16.16,7.13,16.16,16.02s-7.23,16.15-16.1,16.18c-.36,0-.72,0-1.07-.03-8.41-.52-15.09-7.5-15.09-16.04,0-.22,0-.43.01-.65.34-8.62,7.42-15.51,16.09-15.49Z"/><path class="cls-124" d="m98.62.17c8.89.02,16.16,7.12,16.16,16.01s-7.23,16.15-16.1,16.19c-.36,0-.72,0-1.07-.03-8.41-.52-15.09-7.49-15.09-16.03,0-.22,0-.43.01-.65.34-8.62,7.42-15.51,16.09-15.49Z"/><path class="cls-133" d="m98.63.19c8.89.02,16.17,7.11,16.17,16.01s-7.23,16.15-16.1,16.19c-.36,0-.72,0-1.07-.03-8.41-.52-15.09-7.49-15.1-16.03,0-.22,0-.43.01-.65.34-8.62,7.42-15.51,16.09-15.49Z"/><path class="cls-148" d="m98.64.2c8.89.02,16.17,7.11,16.17,16s-7.24,16.15-16.1,16.2c-.36,0-.72,0-1.07-.03-8.41-.51-15.1-7.49-15.1-16.02,0-.22,0-.43.01-.65.34-8.62,7.42-15.51,16.09-15.49Z"/><path class="cls-136" d="m98.65.22c8.89.02,16.18,7.1,16.18,15.99s-7.24,16.15-16.09,16.21c-.36,0-.72,0-1.07-.03-8.41-.51-15.1-7.48-15.11-16.02,0-.22,0-.43.01-.65.34-8.63,7.43-15.52,16.09-15.5Z"/><path class="cls-135" d="m98.66.23c8.89.02,16.18,7.09,16.18,15.98s-7.24,16.16-16.09,16.21c-.36,0-.72,0-1.07-.03-8.41-.51-15.1-7.48-15.11-16.01,0-.22,0-.43.01-.65.34-8.63,7.43-15.52,16.09-15.5Z"/><path class="cls-134" d="m98.67.25c8.89.03,16.18,7.08,16.18,15.97s-7.24,16.16-16.09,16.22c-.36,0-.72,0-1.07-.03-8.41-.51-15.11-7.47-15.11-16.01,0-.22,0-.43.01-.65.34-8.63,7.43-15.52,16.08-15.5Z"/><path class="cls-112" d="m98.68.26c8.89.03,16.19,7.07,16.19,15.96s-7.24,16.16-16.09,16.22c-.36,0-.72,0-1.07-.03-8.42-.5-15.11-7.47-15.12-16.01,0-.22,0-.43.01-.65.34-8.63,7.43-15.53,16.08-15.5Z"/><path class="cls-111" d="m98.69.28c8.89.03,16.19,7.06,16.19,15.95s-7.24,16.16-16.09,16.23c-.36,0-.72,0-1.07-.03-8.42-.5-15.11-7.47-15.12-16,0-.22,0-.43.01-.65.33-8.63,7.43-15.53,16.08-15.5Z"/><path class="cls-110" d="m98.7.29c8.88.03,16.19,7.06,16.19,15.94s-7.24,16.17-16.08,16.23c-.36,0-.72,0-1.08-.03-8.42-.5-15.12-7.46-15.13-16,0-.22,0-.43.01-.65.33-8.63,7.43-15.53,16.08-15.5Z"/><path class="cls-109" d="m98.71.31c8.88.03,16.2,7.05,16.2,15.93s-7.24,16.17-16.08,16.24c-.36,0-.72,0-1.08-.03-8.42-.49-15.12-7.46-15.13-15.99,0-.22,0-.43.01-.65.33-8.64,7.43-15.54,16.08-15.51Z"/><path class="cls-132" d="m98.72.32c8.88.03,16.2,7.04,16.2,15.92s-7.24,16.17-16.08,16.24c-.36,0-.72,0-1.08-.03-8.42-.49-15.12-7.45-15.13-15.99,0-.22,0-.43.01-.65.33-8.64,7.43-15.54,16.08-15.51Z"/><path class="cls-116" d="m98.73.33c8.88.03,16.2,7.03,16.2,15.92s-7.25,16.17-16.08,16.25c-.36,0-.72,0-1.08-.03-8.42-.49-15.13-7.45-15.14-15.98,0-.22,0-.43.01-.65.33-8.64,7.43-15.54,16.07-15.51Z"/><path class="cls-114" d="m98.74.35c8.88.04,16.21,7.02,16.21,15.91s-7.25,16.17-16.08,16.26c-.36,0-.72,0-1.08-.03-8.42-.49-15.13-7.45-15.14-15.98,0-.22,0-.43.01-.65.33-8.64,7.43-15.55,16.07-15.51Z"/><path class="cls-113" d="m98.75.36c8.88.04,16.21,7.02,16.21,15.9s-7.25,16.18-16.08,16.26c-.36,0-.72,0-1.08-.03-8.42-.48-15.13-7.44-15.14-15.97,0-.22,0-.43.01-.65.33-8.64,7.43-15.55,16.07-15.51Z"/><path class="cls-144" d="m98.76.38c8.88.04,16.22,7.01,16.22,15.89s-7.25,16.18-16.07,16.27c-.36,0-.72,0-1.08-.02-8.42-.48-15.14-7.44-15.15-15.97,0-.22,0-.43.01-.65.33-8.64,7.43-15.55,16.07-15.51Z"/><path class="cls-143" d="m98.76.39c8.88.04,16.22,7,16.22,15.88s-7.25,16.18-16.07,16.27c-.36,0-.72,0-1.08-.02-8.42-.48-15.14-7.44-15.15-15.96,0-.22,0-.43.01-.65.33-8.65,7.43-15.55,16.07-15.52Z"/><path class="cls-151" d="m98.77.41c8.88.04,16.22,6.99,16.22,15.87s-7.25,16.18-16.07,16.28c-.36,0-.72,0-1.08-.02-8.42-.48-15.14-7.43-15.16-15.96,0-.22,0-.43.01-.65.33-8.65,7.43-15.56,16.07-15.52Z"/><path class="cls-150" d="m98.78.42c8.88.04,16.23,6.98,16.23,15.86s-7.25,16.19-16.07,16.28c-.36,0-.72,0-1.08-.02-8.42-.47-15.15-7.43-15.16-15.96,0-.22,0-.43.01-.65.33-8.65,7.43-15.56,16.07-15.52Z"/><path class="cls-137" d="m98.79.44c8.88.05,16.23,6.98,16.23,15.85s-7.25,16.19-16.07,16.29c-.36,0-.72,0-1.08-.02-8.42-.47-15.15-7.42-15.16-15.95,0-.22,0-.43.01-.65.33-8.65,7.43-15.56,16.06-15.52Z"/><path class="cls-119" d="m98.8.45c8.87.05,16.23,6.97,16.23,15.84s-7.25,16.19-16.06,16.29c-.36,0-.72,0-1.08-.02-8.42-.47-15.15-7.42-15.17-15.95,0-.22,0-.43.01-.65.33-8.65,7.43-15.57,16.06-15.52Z"/><path class="cls-118" d="m98.81.47c8.87.05,16.24,6.96,16.24,15.84s-7.26,16.19-16.06,16.3c-.36,0-.72,0-1.08-.02-8.42-.46-15.16-7.42-15.17-15.94,0-.22,0-.43.01-.65.33-8.65,7.43-15.57,16.06-15.52Z"/><path class="cls-123" d="m98.82.48c8.87.05,16.24,6.95,16.24,15.83s-7.26,16.2-16.06,16.31c-.36,0-.72,0-1.08-.02-8.42-.46-15.16-7.41-15.17-15.94,0-.22,0-.43.01-.65.33-8.66,7.43-15.57,16.06-15.53Z"/><path class="cls-122" d="m98.83.5c8.87.05,16.24,6.94,16.24,15.82s-7.26,16.2-16.06,16.31c-.36,0-.72,0-1.08-.02-8.42-.46-15.16-7.41-15.18-15.93,0-.22,0-.43.01-.65.33-8.66,7.43-15.58,16.06-15.53Z"/><path class="cls-121" d="m98.84.51c8.87.05,16.25,6.94,16.25,15.81s-7.26,16.2-16.06,16.32c-.36,0-.72,0-1.08-.02-8.43-.46-15.17-7.4-15.18-15.93,0-.22,0-.43.01-.65.33-8.66,7.43-15.58,16.06-15.53Z"/><path class="cls-120" d="m98.85.52c8.87.05,16.25,6.93,16.25,15.8s-7.26,16.2-16.06,16.32c-.36,0-.72,0-1.08-.02-8.43-.45-15.17-7.4-15.19-15.92,0-.22,0-.43.01-.65.33-8.66,7.43-15.58,16.05-15.53Z"/><path class="cls-117" d="m98.86.54c8.87.06,16.26,6.92,16.26,15.79s-7.26,16.2-16.05,16.33c-.36,0-.72,0-1.08-.02-8.43-.45-15.17-7.4-15.19-15.92,0-.22,0-.43.01-.65.33-8.66,7.43-15.59,16.05-15.53Z"/><path class="cls-115" d="m98.87.55c8.87.06,16.26,6.91,16.26,15.78s-7.26,16.21-16.05,16.33c-.36,0-.72,0-1.08-.02-8.43-.45-15.18-7.39-15.19-15.92,0-.22,0-.43.01-.65.33-8.66,7.43-15.59,16.05-15.53Z"/><path class="cls-224" d="m98.88.57c8.87.06,16.26,6.9,16.26,15.77s-7.26,16.21-16.05,16.34c-.36,0-.72,0-1.08-.02-8.43-.44-15.18-7.39-15.2-15.91,0-.22,0-.43.01-.65.33-8.67,7.43-15.59,16.05-15.54Z"/><path class="cls-177" d="m98.89.58c8.87.06,16.27,6.89,16.27,15.76s-7.27,16.21-16.05,16.35c-.36,0-.72,0-1.08-.02-8.43-.44-15.18-7.38-15.2-15.91,0-.22,0-.43.01-.65.33-8.67,7.43-15.6,16.05-15.54Z"/><path class="cls-185" d="m98.9.6c8.87.06,16.27,6.89,16.27,15.75s-7.27,16.21-16.05,16.35c-.36,0-.72,0-1.08-.02-8.43-.44-15.19-7.38-15.2-15.9,0-.22,0-.43.01-.65.33-8.67,7.43-15.6,16.05-15.54Z"/><path class="cls-179" d="m98.91.61c8.87.06,16.27,6.88,16.27,15.75s-7.27,16.22-16.04,16.36c-.36,0-.72,0-1.08-.02-8.43-.44-15.19-7.38-15.21-15.9,0-.22,0-.43.01-.64.33-8.67,7.43-15.6,16.05-15.54Z"/><path class="cls-180" d="m98.92.63c8.86.06,16.28,6.87,16.28,15.74s-7.27,16.22-16.04,16.36c-.36,0-.72,0-1.08-.02-8.43-.43-15.19-7.37-15.21-15.89,0-.22,0-.43.01-.64.33-8.67,7.43-15.6,16.04-15.54Z"/><path class="cls-188" d="m98.92.64c8.86.07,16.28,6.86,16.28,15.73s-7.27,16.22-16.04,16.37c-.36,0-.72,0-1.08-.02-8.43-.43-15.2-7.37-15.22-15.89,0-.22,0-.43.01-.64.33-8.67,7.43-15.61,16.04-15.54Z"/><path class="cls-183" d="m98.93.66c8.86.07,16.28,6.85,16.28,15.72s-7.27,16.22-16.04,16.37c-.36,0-.72,0-1.08-.02-8.43-.43-15.2-7.36-15.22-15.88,0-.22,0-.43.01-.64.33-8.68,7.43-15.61,16.04-15.55Z"/><path class="cls-190" d="m98.94.67c8.86.07,16.29,6.85,16.29,15.71s-7.27,16.22-16.04,16.38c-.36,0-.72,0-1.08-.02-8.43-.43-15.2-7.36-15.22-15.88,0-.22,0-.43.01-.64.33-8.68,7.43-15.61,16.04-15.55Z"/><path class="cls-191" d="m98.95.68c8.86.07,16.29,6.84,16.29,15.7s-7.27,16.23-16.04,16.38c-.36,0-.72,0-1.08-.02-8.43-.42-15.21-7.36-15.23-15.87,0-.22,0-.43.01-.64.33-8.68,7.43-15.62,16.04-15.55Z"/><path class="cls-75" d="m98.96.7c8.86.07,16.3,6.83,16.3,15.69s-7.27,16.23-16.03,16.39c-.36,0-.72,0-1.08-.02-8.43-.42-15.21-7.35-15.23-15.87,0-.22,0-.43.01-.64.33-8.68,7.43-15.62,16.04-15.55Z"/><path class="cls-74" d="m98.97.71c8.86.07,16.3,6.82,16.3,15.68s-7.28,16.23-16.03,16.4c-.36,0-.72,0-1.08-.02-8.43-.42-15.21-7.35-15.24-15.87,0-.22,0-.43.01-.64.32-8.68,7.43-15.62,16.04-15.55Z"/><path class="cls-72" d="m98.98.73c8.86.08,16.3,6.81,16.3,15.67s-7.28,16.23-16.03,16.4c-.36,0-.72,0-1.08-.02-8.43-.41-15.22-7.34-15.24-15.86,0-.22,0-.43.01-.64.32-8.68,7.43-15.63,16.03-15.55Z"/><path class="cls-71" d="m98.99.74c8.86.08,16.31,6.81,16.31,15.66s-7.28,16.24-16.03,16.41c-.36,0-.72,0-1.08-.01-8.43-.41-15.22-7.34-15.24-15.86,0-.22,0-.43.01-.64.32-8.69,7.43-15.63,16.03-15.56Z"/><path class="cls-197" d="m99,.76c8.86.08,16.31,6.8,16.31,15.66s-7.28,16.24-16.03,16.41c-.36,0-.72,0-1.08-.01-8.43-.41-15.22-7.34-15.25-15.85,0-.21,0-.43.01-.64.32-8.69,7.43-15.63,16.03-15.56Z"/><path class="cls-189" d="m99.01.77c8.86.08,16.31,6.79,16.31,15.65s-7.28,16.24-16.02,16.42c-.36,0-.72,0-1.08-.01-8.44-.41-15.23-7.33-15.25-15.85,0-.21,0-.43.01-.64.32-8.69,7.43-15.64,16.03-15.56Z"/><path class="cls-142" d="m99.02.79c8.85.08,16.32,6.78,16.32,15.64s-7.28,16.24-16.02,16.42c-.36,0-.72,0-1.08-.01-8.44-.4-15.23-7.33-15.25-15.84,0-.21,0-.43.01-.64.32-8.69,7.43-15.64,16.03-15.56Z"/><path class="cls-139" d="m99.03.8c8.85.08,16.32,6.77,16.32,15.63s-7.28,16.24-16.02,16.43c-.36,0-.72,0-1.08-.01-8.44-.4-15.23-7.32-15.26-15.84,0-.21,0-.43.01-.64.32-8.69,7.43-15.64,16.03-15.56Z"/><path class="cls-140" d="m99.04.82c8.85.08,16.32,6.76,16.32,15.62s-7.28,16.25-16.02,16.43c-.36,0-.72,0-1.08-.01-8.44-.4-15.24-7.32-15.26-15.83,0-.21,0-.43.01-.64.32-8.69,7.43-15.64,16.02-15.56Z"/><path class="cls-193" d="m99.05.83c8.85.09,16.33,6.76,16.33,15.61s-7.29,16.25-16.02,16.44c-.36,0-.72,0-1.08-.01-8.44-.4-15.24-7.32-15.27-15.83,0-.21,0-.43.01-.64.32-8.7,7.43-15.65,16.02-15.57Z"/><path class="cls-194" d="m99.06.84c8.85.09,16.33,6.75,16.33,15.6s-7.29,16.25-16.02,16.45c-.36,0-.72,0-1.08-.01-8.44-.39-15.24-7.31-15.27-15.83,0-.21,0-.43.01-.64.32-8.7,7.43-15.65,16.02-15.57Z"/><path class="cls-195" d="m99.07.86c8.85.09,16.34,6.74,16.34,15.59s-7.29,16.25-16.01,16.45c-.36,0-.72,0-1.08-.01-8.44-.39-15.25-7.31-15.27-15.82,0-.21,0-.43.01-.64.32-8.7,7.43-15.65,16.02-15.57Z"/><path class="cls-196" d="m99.08.87c8.85.09,16.34,6.73,16.34,15.58s-7.29,16.26-16.01,16.46c-.36,0-.72,0-1.08-.01-8.44-.39-15.25-7.3-15.28-15.82,0-.21,0-.43.01-.64.32-8.7,7.43-15.66,16.02-15.57Z"/><path class="cls-192" d="m99.08.89c8.85.09,16.34,6.72,16.34,15.57s-7.29,16.26-16.01,16.46c-.36,0-.72,0-1.08-.01-8.44-.38-15.25-7.3-15.28-15.81,0-.21,0-.43.01-.64.32-8.7,7.44-15.66,16.02-15.57Z"/><path class="cls-149" d="m99.09.9c8.85.09,16.35,6.72,16.35,15.57s-7.29,16.26-16.01,16.47c-.36,0-.72,0-1.08-.01-8.44-.38-15.26-7.3-15.28-15.81,0-.21,0-.43.01-.64.32-8.7,7.44-15.66,16.02-15.57Z"/><path class="cls-146" d="m99.1.92c8.85.09,16.35,6.71,16.35,15.56s-7.29,16.26-16.01,16.47c-.36,0-.72,0-1.08-.01-8.44-.38-15.26-7.29-15.29-15.8,0-.21,0-.43.01-.64.32-8.71,7.44-15.67,16.01-15.58Z"/><path class="cls-147" d="m99.11.93c8.85.1,16.35,6.7,16.35,15.55s-7.29,16.26-16,16.48c-.36,0-.72,0-1.08,0-8.44-.38-15.26-7.29-15.29-15.8,0-.21,0-.43.01-.64.32-8.71,7.44-15.67,16.01-15.58Z"/><path class="cls-127" d="m99.12.95c8.84.1,16.36,6.69,16.36,15.54s-7.29,16.27-16,16.49c-.36,0-.72,0-1.08,0-8.44-.37-15.27-7.28-15.3-15.79,0-.21,0-.43.01-.64.32-8.71,7.44-15.67,16.01-15.58Z"/><path class="cls-128" d="m99.13.96c8.84.1,16.36,6.68,16.36,15.53s-7.3,16.27-16,16.49c-.36,0-.72,0-1.08,0-8.44-.37-15.27-7.28-15.3-15.79,0-.21,0-.43.01-.64.32-8.71,7.44-15.68,16.01-15.58Z"/><path class="cls-138" d="m99.14.98c8.84.1,16.36,6.68,16.36,15.52s-7.3,16.27-16,16.5c-.36,0-.72,0-1.08,0-8.44-.37-15.27-7.28-15.3-15.79,0-.21,0-.43.01-.64.32-8.71,7.44-15.68,16.01-15.58Z"/><path class="cls-126" d="m99.15.99c8.84.1,16.37,6.67,16.37,15.51s-7.3,16.27-16,16.5c-.36,0-.72,0-1.08,0-8.44-.37-15.28-7.27-15.31-15.78,0-.21,0-.43.01-.64.32-8.71,7.44-15.68,16.01-15.58Z"/><path class="cls-141" d="m99.16,1c8.84.1,16.37,6.66,16.37,15.5s-7.3,16.28-16,16.51c-.36.01-.72,0-1.08,0-8.44-.36-15.28-7.27-15.31-15.78,0-.21,0-.43.01-.64.32-8.72,7.44-15.68,16.01-15.59Z"/><path class="cls-161" d="m99.17,1.02c8.84.11,16.38,6.65,16.38,15.49s-7.3,16.28-15.99,16.51c-.36.01-.72,0-1.08,0-8.45-.36-15.28-7.26-15.31-15.77,0-.21,0-.43.01-.64.32-8.72,7.44-15.69,16-15.59Z"/><path class="cls-207" d="m99.18,1.03c8.84.11,16.38,6.64,16.38,15.49s-7.3,16.28-15.99,16.52c-.36.01-.72,0-1.08,0-8.45-.36-15.29-7.26-15.32-15.77,0-.21,0-.43.01-.64.32-8.72,7.44-15.69,16-15.59Z"/><path class="cls-187" d="m99.19,1.05c8.84.11,16.38,6.64,16.38,15.48s-7.3,16.28-15.99,16.52c-.36.01-.72,0-1.08,0-8.45-.35-15.29-7.26-15.32-15.76,0-.21,0-.43.01-.64.32-8.72,7.44-15.69,16-15.59Z"/><path class="cls-186" d="m99.2,1.06c8.84.11,16.39,6.63,16.39,15.47s-7.3,16.28-15.99,16.53c-.36.01-.72,0-1.08,0-8.45-.35-15.29-7.25-15.33-15.76,0-.21,0-.43.01-.64.32-8.72,7.44-15.7,16-15.59Z"/><path class="cls-204" d="m99.21,1.08c8.84.11,16.39,6.62,16.39,15.46s-7.31,16.29-15.99,16.54c-.36.01-.72,0-1.08,0-8.45-.35-15.3-7.25-15.33-15.75,0-.21,0-.43.01-.64.32-8.72,7.44-15.7,16-15.59Z"/><path class="cls-184" d="m99.22,1.09c8.84.11,16.39,6.61,16.39,15.45s-7.31,16.29-15.98,16.54c-.36.01-.72,0-1.08,0-8.45-.35-15.3-7.25-15.33-15.75,0-.21,0-.43.01-.64.32-8.72,7.44-15.7,16-15.6Z"/><path class="cls-213" d="m99.23,1.11c8.83.11,16.4,6.6,16.4,15.44s-7.31,16.29-15.98,16.55c-.36.01-.72,0-1.08,0-8.45-.34-15.3-7.24-15.34-15.74,0-.21,0-.43.01-.64.32-8.73,7.44-15.71,15.99-15.6Z"/><path class="cls-201" d="m99.24,1.12c8.83.12,16.4,6.59,16.4,15.43s-7.31,16.29-15.98,16.55c-.36.01-.72,0-1.08,0-8.45-.34-15.31-7.24-15.34-15.74,0-.21,0-.43.01-.64.32-8.73,7.44-15.71,15.99-15.6Z"/><path class="cls-222" d="m99.24,1.14c8.83.12,16.4,6.59,16.4,15.42s-7.31,16.3-15.98,16.56c-.36.01-.72.01-1.08,0-8.45-.34-15.31-7.23-15.35-15.74,0-.21,0-.43.01-.64.31-8.73,7.44-15.71,15.99-15.6Z"/><path class="cls-227" d="m99.25,1.15c8.83.12,16.41,6.58,16.41,15.41s-7.31,16.3-15.98,16.56c-.36.01-.72.01-1.08,0-8.45-.33-15.31-7.23-15.35-15.73,0-.21,0-.43.01-.64.31-8.73,7.44-15.72,15.99-15.6Z"/><path class="cls-217" d="m99.26,1.16c8.83.12,16.41,6.57,16.41,15.4s-7.31,16.3-15.98,16.57c-.36.01-.72.01-1.08,0-8.45-.33-15.32-7.23-15.35-15.73,0-.21,0-.43.01-.64.31-8.73,7.44-15.72,15.99-15.6Z"/><path class="cls-220" d="m99.27,1.18c8.83.12,16.41,6.56,16.41,15.4s-7.31,16.3-15.97,16.57c-.36.01-.72.01-1.08,0-8.45-.33-15.32-7.22-15.36-15.72,0-.21,0-.43.01-.64.31-8.73,7.44-15.72,15.99-15.61Z"/><path class="cls-225" d="m99.28,1.19c8.83.12,16.42,6.55,16.42,15.39s-7.31,16.31-15.97,16.58c-.36.01-.72.01-1.08,0-8.45-.33-15.32-7.22-15.36-15.72,0-.21,0-.43.01-.64.31-8.74,7.44-15.73,15.99-15.61Z"/><path class="cls-218" d="m99.29,1.21c8.83.12,16.42,6.55,16.42,15.38s-7.32,16.31-15.97,16.59c-.36.01-.72.01-1.08,0-8.45-.32-15.33-7.21-15.36-15.71,0-.21,0-.43.01-.64.31-8.74,7.44-15.73,15.98-15.61Z"/><path class="cls-206" d="m99.3,1.22c8.83.13,16.43,6.54,16.43,15.37s-7.32,16.31-15.97,16.59c-.36.01-.72.01-1.08,0-8.45-.32-15.33-7.21-15.37-15.71,0-.21,0-.43.01-.64.31-8.74,7.44-15.73,15.98-15.61Z"/><path class="cls-162" d="m99.31,1.24c8.83.13,16.43,6.53,16.43,15.36s-7.32,16.31-15.97,16.6c-.36.01-.72.01-1.08,0-8.45-.32-15.33-7.21-15.37-15.7,0-.21,0-.43.01-.64.31-8.74,7.44-15.73,15.98-15.61Z"/><path class="cls-171" d="m99.32,1.25c8.83.13,16.43,6.52,16.43,15.35s-7.32,16.31-15.96,16.6c-.36.01-.72.01-1.08,0-8.45-.32-15.34-7.2-15.38-15.7,0-.21,0-.43.01-.64.31-8.74,7.44-15.74,15.98-15.61Z"/><path class="cls-181" d="m99.33,1.27c8.83.13,16.44,6.51,16.44,15.34s-7.32,16.32-15.96,16.61c-.36.01-.72.01-1.08,0-8.45-.31-15.34-7.2-15.38-15.7,0-.21,0-.43,0-.64.31-8.74,7.44-15.74,15.98-15.62Z"/><path class="cls-199" d="m99.34,1.28c8.82.13,16.44,6.51,16.44,15.33s-7.32,16.32-15.96,16.61c-.36.01-.72.01-1.08,0-8.46-.31-15.34-7.19-15.38-15.69,0-.21,0-.43,0-.64.31-8.75,7.44-15.74,15.98-15.62Z"/><path class="cls-198" d="m99.35,1.3c8.82.13,16.44,6.5,16.44,15.32s-7.32,16.32-15.96,16.62c-.36.01-.72.01-1.08,0-8.46-.31-15.35-7.19-15.39-15.69,0-.21,0-.43,0-.64.31-8.75,7.44-15.75,15.97-15.62Z"/><path class="cls-178" d="m99.36,1.31c8.82.14,16.45,6.49,16.45,15.31s-7.32,16.32-15.96,16.63c-.36.01-.72.01-1.08,0-8.46-.3-15.35-7.19-15.39-15.68,0-.21,0-.43,0-.64.31-8.75,7.44-15.75,15.97-15.62Z"/><path class="cls-176" d="m99.37,1.33c8.82.14,16.45,6.48,16.45,15.31s-7.32,16.33-15.96,16.63c-.36.01-.72.01-1.08,0-8.46-.3-15.35-7.18-15.39-15.68,0-.21,0-.43,0-.64.31-8.75,7.44-15.75,15.97-15.62Z"/><path class="cls-175" d="m99.38,1.34c8.82.14,16.45,6.47,16.45,15.3s-7.33,16.33-15.95,16.64c-.36.01-.72.01-1.08,0-8.46-.3-15.36-7.18-15.4-15.67,0-.21,0-.43,0-.64.31-8.75,7.44-15.76,15.97-15.62Z"/><path class="cls-182" d="m99.39,1.35c8.82.14,16.46,6.46,16.46,15.29s-7.33,16.33-15.95,16.64c-.36.01-.72.01-1.08,0-8.46-.3-15.36-7.17-15.4-15.67,0-.21,0-.43,0-.64.31-8.75,7.44-15.76,15.97-15.63Z"/><path class="cls-214" d="m99.4,1.37c8.82.14,16.46,6.46,16.46,15.28s-7.33,16.33-15.95,16.65c-.36.01-.72.01-1.08,0-8.46-.29-15.36-7.17-15.41-15.66,0-.21,0-.43,0-.64.31-8.76,7.44-15.76,15.97-15.63Z"/><path class="cls-202" d="m99.4,1.38c8.82.14,16.47,6.45,16.47,15.27s-7.33,16.33-15.95,16.65c-.36.01-.72.01-1.08,0-8.46-.29-15.37-7.17-15.41-15.66,0-.21,0-.43,0-.64.31-8.76,7.44-15.77,15.97-15.63Z"/><path class="cls-205" d="m99.41,1.4c8.82.14,16.47,6.44,16.47,15.26s-7.33,16.34-15.95,16.66c-.36.01-.72.02-1.08,0-8.46-.29-15.37-7.16-15.41-15.65,0-.21,0-.42,0-.64.31-8.76,7.44-15.77,15.96-15.63Z"/><path class="cls-215" d="m99.42,1.41c8.82.15,16.47,6.43,16.47,15.25s-7.33,16.34-15.94,16.66c-.36.01-.72.02-1.08,0-8.46-.29-15.37-7.16-15.42-15.65,0-.21,0-.42,0-.64.31-8.76,7.44-15.77,15.96-15.63Z"/><path class="cls-203" d="m99.43,1.43c8.82.15,16.48,6.42,16.48,15.24s-7.33,16.34-15.94,16.67c-.36.01-.72.02-1.08,0-8.46-.28-15.38-7.15-15.42-15.65,0-.21,0-.42,0-.64.31-8.76,7.44-15.77,15.96-15.63Z"/><path class="cls-174" d="m99.44,1.44c8.81.15,16.48,6.42,16.48,15.23s-7.33,16.34-15.94,16.68c-.36.01-.72.02-1.08,0-8.46-.28-15.38-7.15-15.42-15.64,0-.21,0-.42,0-.64.31-8.76,7.44-15.78,15.96-15.64Z"/><path class="cls-173" d="m99.45,1.46c8.81.15,16.48,6.41,16.48,15.22s-7.34,16.35-15.94,16.68c-.36.01-.72.02-1.08,0-8.46-.28-15.38-7.15-15.43-15.64,0-.21,0-.42,0-.64.31-8.77,7.44-15.78,15.96-15.64Z"/><path class="cls-172" d="m99.46,1.47c8.81.15,16.49,6.4,16.49,15.22s-7.34,16.35-15.94,16.69c-.36.01-.72.02-1.08,0-8.46-.27-15.39-7.14-15.43-15.63,0-.21,0-.42,0-.64.31-8.77,7.44-15.78,15.96-15.64Z"/><path class="cls-42" d="m99.47,1.49c8.81.15,16.49,6.39,16.49,15.21s-7.34,16.35-15.94,16.69c-.36.01-.72.02-1.08,0-8.46-.27-15.39-7.14-15.44-15.63,0-.21,0-.42,0-.64.31-8.77,7.44-15.79,15.96-15.64Z"/><path class="cls-69" d="m99.48,1.5c8.81.15,16.49,6.38,16.49,15.2s-7.34,16.35-15.93,16.7c-.36.02-.72.02-1.08,0-8.46-.27-15.39-7.13-15.44-15.62,0-.21,0-.42,0-.64.31-8.77,7.44-15.79,15.95-15.64Z"/><path class="cls-35" d="m99.49,1.51c8.81.16,16.5,6.38,16.5,15.19s-7.34,16.35-15.93,16.7c-.36.02-.72.02-1.08,0-8.46-.27-15.4-7.13-15.44-15.62,0-.21,0-.42,0-.64.31-8.77,7.44-15.79,15.95-15.64Z"/><path class="cls-41" d="m99.5,1.53c8.81.16,16.5,6.37,16.5,15.18s-7.34,16.36-15.93,16.71c-.36.02-.72.02-1.08,0-8.47-.26-15.4-7.13-15.45-15.61,0-.21,0-.42,0-.64.31-8.77,7.44-15.8,15.95-15.65Z"/><path class="cls-34" d="m99.51,1.54c8.81.16,16.51,6.36,16.51,15.17s-7.34,16.36-15.93,16.71c-.36.02-.72.02-1.08,0-8.47-.26-15.4-7.12-15.45-15.61,0-.21,0-.42,0-.64.31-8.78,7.44-15.8,15.95-15.65Z"/><path class="cls-33" d="m99.52,1.56c8.81.16,16.51,6.35,16.51,15.16s-7.34,16.36-15.93,16.72c-.36.02-.72.02-1.08,0-8.47-.26-15.41-7.12-15.46-15.61,0-.21,0-.42,0-.64.3-8.78,7.44-15.8,15.95-15.65Z"/><path class="cls-37" d="m99.53,1.57c8.81.16,16.51,6.34,16.51,15.15s-7.34,16.36-15.92,16.73c-.36.02-.72.02-1.09,0-8.47-.26-15.41-7.11-15.46-15.6,0-.21,0-.42,0-.64.3-8.78,7.45-15.81,15.95-15.65Z"/><path class="cls-46" d="m99.54,1.59c8.81.16,16.52,6.34,16.52,15.14s-7.35,16.37-15.92,16.73c-.36.02-.72.02-1.09,0-8.47-.25-15.41-7.11-15.46-15.6,0-.21,0-.42,0-.64.3-8.78,7.45-15.81,15.94-15.65Z"/><path class="cls-166" d="m99.55,1.6c8.8.17,16.52,6.33,16.52,15.14s-7.35,16.37-15.92,16.74c-.36.02-.72.02-1.09,0-8.47-.25-15.42-7.11-15.47-15.59,0-.21,0-.42,0-.64.3-8.78,7.45-15.81,15.94-15.65Z"/><path class="cls-154" d="m99.56,1.62c8.8.17,16.52,6.32,16.52,15.13s-7.35,16.37-15.92,16.74c-.36.02-.72.02-1.09,0-8.47-.25-15.42-7.1-15.47-15.59,0-.21,0-.42,0-.64.3-8.78,7.45-15.81,15.94-15.66Z"/><path class="cls-155" d="m99.56,1.63c8.8.17,16.53,6.31,16.53,15.12s-7.35,16.37-15.92,16.75c-.36.02-.72.02-1.09,0-8.47-.24-15.42-7.1-15.47-15.58,0-.21,0-.42,0-.63.3-8.79,7.45-15.82,15.94-15.66Z"/><path class="cls-169" d="m99.57,1.65c8.8.17,16.53,6.3,16.53,15.11s-7.35,16.37-15.92,16.75c-.36.02-.72.02-1.09,0-8.47-.24-15.43-7.09-15.48-15.58,0-.21,0-.42,0-.63.3-8.79,7.45-15.82,15.94-15.66Z"/><path class="cls-216" d="m99.58,1.66c8.8.17,16.53,6.29,16.53,15.1s-7.35,16.38-15.91,16.76c-.36.02-.72.02-1.09.01-8.47-.24-15.43-7.09-15.48-15.57,0-.21,0-.42,0-.63.3-8.79,7.45-15.82,15.94-15.66Z"/><path class="cls-157" d="m99.59,1.67c8.8.17,16.54,6.29,16.54,15.09s-7.35,16.38-15.91,16.77c-.36.02-.72.02-1.09.01-8.47-.24-15.43-7.09-15.49-15.57,0-.21,0-.42,0-.63.3-8.79,7.45-15.83,15.94-15.66Z"/><path class="cls-70" d="m99.6,1.69c8.8.17,16.54,6.28,16.54,15.08s-7.35,16.38-15.91,16.77c-.36.02-.72.02-1.09.01-8.47-.23-15.44-7.08-15.49-15.57,0-.21,0-.42,0-.63.3-8.79,7.45-15.83,15.93-15.66Z"/><path class="cls-40" d="m99.61,1.7c8.8.18,16.55,6.27,16.55,15.07s-7.36,16.38-15.91,16.78c-.36.02-.72.02-1.09.01-8.47-.23-15.44-7.08-15.49-15.56,0-.21,0-.42,0-.63.3-8.79,7.45-15.83,15.93-15.67Z"/><path class="cls-208" d="m99.62,1.72c8.8.18,16.55,6.26,16.55,15.06s-7.36,16.39-15.91,16.78c-.36.02-.72.02-1.09.01-8.47-.23-15.44-7.07-15.5-15.56,0-.21,0-.42,0-.63.3-8.8,7.45-15.84,15.93-15.67Z"/><path class="cls-209" d="m99.63,1.73c8.8.18,16.55,6.25,16.55,15.05s-7.36,16.39-15.9,16.79c-.36.02-.72.02-1.09.01-8.47-.23-15.45-7.07-15.5-15.55,0-.21,0-.42,0-.63.3-8.8,7.45-15.84,15.93-15.67Z"/><path class="cls-210" d="m99.64,1.75c8.8.18,16.56,6.25,16.56,15.05s-7.36,16.39-15.9,16.79c-.36.02-.72.02-1.09.01-8.47-.22-15.45-7.07-15.5-15.55,0-.21,0-.42,0-.63.3-8.8,7.45-15.84,15.93-15.67Z"/><path class="cls-219" d="m99.65,1.76c8.8.18,16.56,6.24,16.56,15.04s-7.36,16.39-15.9,16.8c-.36.02-.72.02-1.09.01-8.47-.22-15.45-7.06-15.51-15.54,0-.21,0-.42,0-.63.3-8.8,7.45-15.85,15.93-15.67Z"/><path class="cls-211" d="m99.66,1.78c8.79.18,16.56,6.23,16.56,15.03s-7.36,16.4-15.9,16.8c-.36.02-.72.02-1.09.01-8.47-.22-15.46-7.06-15.51-15.54,0-.21,0-.42,0-.63.3-8.8,7.45-15.85,15.92-15.67Z"/><path class="cls-212" d="m99.67,1.79c8.79.18,16.57,6.22,16.57,15.02s-7.36,16.4-15.9,16.81c-.36.02-.72.02-1.09.01-8.48-.21-15.46-7.05-15.52-15.53,0-.21,0-.42,0-.63.3-8.8,7.45-15.85,15.92-15.68Z"/><path class="cls-226" d="m99.68,1.81c8.79.19,16.57,6.21,16.57,15.01s-7.36,16.4-15.89,16.82c-.36.02-.72.02-1.09.01-8.48-.21-15.46-7.05-15.52-15.53,0-.21,0-.42,0-.63.3-8.81,7.45-15.86,15.92-15.68Z"/><path class="cls-223" d="m99.69,1.82c8.79.19,16.57,6.21,16.57,15s-7.36,16.4-15.89,16.82c-.36.02-.72.02-1.09.01-8.48-.21-15.47-7.05-15.52-15.52,0-.21,0-.42,0-.63.3-8.81,7.45-15.86,15.92-15.68Z"/><path class="cls-48" d="m99.7,1.83c8.79.19,16.58,6.2,16.58,14.99s-7.37,16.4-15.89,16.83c-.36.02-.73.02-1.09.01-8.48-.21-15.47-7.04-15.53-15.52,0-.21,0-.42,0-.63.3-8.81,7.45-15.86,15.92-15.68Z"/><path class="cls-36" d="m99.71,1.85c8.79.19,16.58,6.19,16.58,14.98s-7.37,16.41-15.89,16.83c-.36.02-.73.02-1.09.02-8.48-.2-15.47-7.04-15.53-15.52,0-.21,0-.42,0-.63.3-8.81,7.45-15.86,15.92-15.68Z"/><path class="cls-39" d="m99.72,1.86c8.79.19,16.59,6.18,16.59,14.97s-7.37,16.41-15.89,16.84c-.36.02-.73.02-1.09.02-8.48-.2-15.48-7.04-15.53-15.51,0-.21,0-.42,0-.63.3-8.81,7.45-15.87,15.92-15.68Z"/><path class="cls-47" d="m99.72,1.88c8.79.19,16.59,6.17,16.59,14.96s-7.37,16.41-15.89,16.84c-.36.02-.73.02-1.09.02-8.48-.2-15.48-7.03-15.54-15.51,0-.21,0-.42,0-.63.3-8.81,7.45-15.87,15.91-15.69Z"/><path class="cls-38" d="m99.73,1.89c8.79.2,16.59,6.16,16.59,14.96s-7.37,16.41-15.88,16.85c-.36.02-.73.02-1.09.02-8.48-.19-15.48-7.03-15.54-15.5,0-.21,0-.42,0-.63.3-8.82,7.45-15.87,15.91-15.69Z"/><path class="cls-170" d="m99.74,1.91c8.79.2,16.6,6.16,16.6,14.95s-7.37,16.42-15.88,16.85c-.36.02-.73.02-1.09.02-8.48-.19-15.49-7.02-15.55-15.5,0-.21,0-.42,0-.63.3-8.82,7.45-15.88,15.91-15.69Z"/><path class="cls-221" d="m99.75,1.92c8.79.2,16.6,6.15,16.6,14.94s-7.37,16.42-15.88,16.86c-.36.02-.73.03-1.09.02-8.48-.19-15.49-7.02-15.55-15.49,0-.21,0-.42,0-.63.3-8.82,7.45-15.88,15.91-15.69Z"/><path class="cls-200" d="m99.76,1.94c8.78.2,16.6,6.14,16.6,14.93s-7.37,16.42-15.88,16.87c-.36.02-.73.03-1.09.02-8.48-.19-15.49-7.02-15.55-15.49,0-.21,0-.42,0-.63.3-8.82,7.45-15.88,15.91-15.69Z"/><path class="cls-80" d="m99.77,1.95c8.78.2,16.61,6.13,16.61,14.92s-7.38,16.42-15.88,16.87c-.36.02-.73.03-1.09.02-8.48-.18-15.5-7.01-15.56-15.48,0-.21,0-.42,0-.63.3-8.82,7.45-15.89,15.91-15.69Z"/><path class="cls-53" d="m99.78,1.97c8.78.2,16.61,6.12,16.61,14.91s-7.38,16.42-15.87,16.88c-.36.02-.73.03-1.09.02-8.48-.18-15.5-7.01-15.56-15.48,0-.21,0-.42,0-.63.3-8.82,7.45-15.89,15.91-15.7Z"/><path class="cls-163" d="m99.79,1.98c8.78.2,16.61,6.12,16.61,14.9s-7.38,16.43-15.87,16.88c-.36.02-.73.03-1.09.02-8.48-.18-15.5-7-15.57-15.48,0-.21,0-.42,0-.63.29-8.83,7.45-15.89,15.9-15.7Z"/><path class="cls-167" d="m99.8,1.99c8.78.21,16.62,6.11,16.62,14.89s-7.38,16.43-15.87,16.89c-.36.02-.73.03-1.09.02-8.48-.18-15.51-7-15.57-15.47,0-.21,0-.42,0-.63.29-8.83,7.45-15.9,15.9-15.7Z"/><path class="cls-160" d="m99.81,2.01c8.78.21,16.62,6.1,16.62,14.88s-7.38,16.43-15.87,16.89c-.36.02-.73.03-1.09.02-8.48-.17-15.51-7-15.57-15.47,0-.21,0-.42,0-.63.29-8.83,7.45-15.9,15.9-15.7Z"/><path class="cls-164" d="m99.82,2.02c8.78.21,16.63,6.09,16.63,14.88s-7.38,16.43-15.87,16.9c-.36.02-.73.03-1.09.02-8.48-.17-15.51-6.99-15.58-15.46,0-.21,0-.42,0-.63.29-8.83,7.45-15.9,15.9-15.7Z"/><path class="cls-49" d="m99.83,2.04c8.78.21,16.63,6.08,16.63,14.87s-7.38,16.44-15.87,16.91c-.36.02-.73.03-1.09.02-8.49-.17-15.52-6.99-15.58-15.46,0-.21,0-.42,0-.63.29-8.83,7.45-15.9,15.9-15.7Z"/><path class="cls-58" d="m99.84,2.05c8.78.21,16.63,6.08,16.63,14.86s-7.38,16.44-15.86,16.91c-.36.02-.73.03-1.09.02-8.49-.16-15.52-6.98-15.58-15.45,0-.21,0-.42,0-.63.29-8.83,7.45-15.91,15.9-15.71Z"/><path class="cls-61" d="m99.85,2.07c8.78.21,16.64,6.07,16.64,14.85s-7.38,16.44-15.86,16.92c-.36.02-.73.03-1.09.02-8.49-.16-15.52-6.98-15.59-15.45,0-.21,0-.42,0-.63.29-8.84,7.45-15.91,15.89-15.71Z"/><path class="cls-76" d="m99.86,2.08c8.78.21,16.64,6.06,16.64,14.84s-7.39,16.44-15.86,16.92c-.36.02-.73.03-1.09.02-8.49-.16-15.53-6.98-15.59-15.44,0-.21,0-.42,0-.63.29-8.84,7.45-15.91,15.89-15.71Z"/><path class="cls-78" d="m99.87,2.1c8.77.22,16.64,6.05,16.64,14.83s-7.39,16.44-15.86,16.93c-.36.02-.73.03-1.09.02-8.49-.16-15.53-6.97-15.6-15.44,0-.21,0-.42,0-.63.29-8.84,7.45-15.92,15.89-15.71Z"/><path class="cls-64" d="m99.88,2.11c8.77.22,16.65,6.04,16.65,14.82s-7.39,16.45-15.86,16.93c-.36.02-.73.03-1.09.02-8.49-.15-15.53-6.97-15.6-15.43,0-.21,0-.42,0-.63.29-8.84,7.45-15.92,15.89-15.71Z"/><path class="cls-62" d="m99.88,2.13c8.77.22,16.65,6.04,16.65,14.81s-7.39,16.45-15.85,16.94c-.36.02-.73.03-1.09.02-8.49-.15-15.54-6.96-15.6-15.43,0-.21,0-.42,0-.63.29-8.84,7.45-15.92,15.89-15.71Z"/><path class="cls-50" d="m99.89,2.14c8.77.22,16.65,6.03,16.65,14.8s-7.39,16.45-15.85,16.94c-.36.02-.73.03-1.09.02-8.49-.15-15.54-6.96-15.61-15.43,0-.21,0-.42,0-.63.29-8.84,7.45-15.93,15.89-15.72Z"/><path class="cls-81" d="m99.9,2.15c8.77.22,16.66,6.02,16.66,14.79s-7.39,16.45-15.85,16.95c-.36.02-.73.03-1.09.02-8.49-.15-15.54-6.96-15.61-15.42,0-.21,0-.42,0-.63.29-8.85,7.45-15.93,15.89-15.72Z"/><path class="cls-152" d="m99.91,2.17c8.77.22,16.66,6.01,16.66,14.79s-7.39,16.46-15.85,16.96c-.36.02-.73.03-1.09.02-8.49-.14-15.55-6.95-15.61-15.42,0-.21,0-.42,0-.63.29-8.85,7.45-15.93,15.88-15.72Z"/><path class="cls-159" d="m99.92,2.18c8.77.23,16.67,6,16.67,14.78s-7.39,16.46-15.85,16.96c-.36.02-.73.03-1.09.02-8.49-.14-15.55-6.95-15.62-15.41,0-.21,0-.42,0-.63.29-8.85,7.45-15.94,15.88-15.72Z"/><path class="cls-158" d="m99.93,2.2c8.77.23,16.67,5.99,16.67,14.77s-7.39,16.46-15.85,16.97c-.36.02-.73.03-1.09.02-8.49-.14-15.55-6.94-15.62-15.41,0-.21,0-.42,0-.63.29-8.85,7.45-15.94,15.88-15.72Z"/><path class="cls-45" d="m99.94,2.21c8.77.23,16.67,5.99,16.67,14.76s-7.4,16.46-15.84,16.97c-.36.02-.73.03-1.09.03-8.49-.13-15.56-6.94-15.63-15.4,0-.21,0-.42,0-.63.29-8.85,7.45-15.94,15.88-15.72Z"/><path class="cls-44" d="m99.95,2.23c8.77.23,16.68,5.98,16.68,14.75s-7.4,16.46-15.84,16.98c-.36.02-.73.03-1.09.03-8.49-.13-15.56-6.94-15.63-15.4,0-.21,0-.42,0-.63.29-8.85,7.45-15.94,15.88-15.73Z"/><path class="cls-43" d="m99.96,2.24c8.77.23,16.68,5.97,16.68,14.74s-7.4,16.47-15.84,16.98c-.36.02-.73.03-1.09.03-8.49-.13-15.56-6.93-15.63-15.39,0-.21,0-.42,0-.63.29-8.85,7.45-15.95,15.88-15.73Z"/><path class="cls-165" d="m99.97,2.26c8.77.23,16.68,5.96,16.68,14.73s-7.4,16.47-15.84,16.99c-.36.02-.73.03-1.09.03-8.49-.13-15.57-6.93-15.64-15.39,0-.21,0-.42,0-.63.29-8.86,7.46-15.95,15.88-15.73Z"/><path class="cls-168" d="m99.98,2.27c8.76.23,16.69,5.95,16.69,14.72s-7.4,16.47-15.84,16.99c-.36.02-.73.03-1.09.03-8.49-.12-15.57-6.92-15.64-15.39,0-.21,0-.42,0-.63.29-8.86,7.46-15.95,15.87-15.73Z"/><path class="cls-59" d="m99.99,2.29c8.76.24,16.69,5.95,16.69,14.71s-7.4,16.47-15.83,17c-.36.02-.73.03-1.09.03-8.49-.12-15.57-6.92-15.64-15.38,0-.21,0-.42,0-.63.29-8.86,7.46-15.96,15.87-15.73Z"/><path class="cls-56" d="m100,2.3c8.76.24,16.69,5.94,16.69,14.7s-7.4,16.48-15.83,17.01c-.36.02-.73.03-1.09.03-8.5-.12-15.58-6.92-15.65-15.38,0-.21,0-.42,0-.63.29-8.86,7.46-15.96,15.87-15.73Z"/><path class="cls-57" d="m100.01,2.32c8.76.24,16.7,5.93,16.7,14.7s-7.4,16.48-15.83,17.01c-.36.02-.73.03-1.09.03-8.5-.12-15.58-6.91-15.65-15.37,0-.21,0-.42,0-.63.29-8.86,7.46-15.96,15.87-15.74Z"/><path class="cls-51" d="m100.02,2.33c8.76.24,16.7,5.92,16.7,14.69s-7.41,16.48-15.83,17.02c-.36.02-.73.03-1.09.03-8.5-.11-15.58-6.91-15.66-15.37,0-.21,0-.42,0-.63.29-8.86,7.46-15.97,15.87-15.74Z"/><path class="cls-52" d="m100.03,2.34c8.76.24,16.71,5.91,16.71,14.68s-7.41,16.48-15.83,17.02c-.36.02-.73.03-1.09.03-8.5-.11-15.59-6.9-15.66-15.36,0-.21,0-.42,0-.63.29-8.87,7.46-15.97,15.87-15.74Z"/><path class="cls-60" d="m100.04,2.36c8.76.24,16.71,5.91,16.71,14.67s-7.41,16.48-15.83,17.03c-.36.02-.73.03-1.09.03-8.5-.11-15.59-6.9-15.66-15.36,0-.21,0-.42,0-.63.29-8.87,7.46-15.97,15.86-15.74Z"/><path class="cls-156" d="m100.04,2.37c8.76.24,16.71,5.9,16.71,14.66s-7.41,16.49-15.82,17.03c-.36.02-.73.03-1.09.03-8.5-.1-15.59-6.9-15.67-15.35,0-.21,0-.42,0-.63.29-8.87,7.46-15.98,15.86-15.74Z"/><path class="cls-153" d="m100.05,2.39c8.76.25,16.72,5.89,16.72,14.65s-7.41,16.49-15.82,17.04c-.36.02-.73.03-1.09.03-8.5-.1-15.6-6.89-15.67-15.35,0-.21,0-.42,0-.63.29-8.87,7.46-15.98,15.86-15.74Z"/><path class="cls-95" d="m100.06,2.4c8.76.25,16.72,5.88,16.72,14.64s-7.41,16.49-15.82,17.05c-.36.02-.73.03-1.09.03-8.5-.1-15.6-6.89-15.68-15.34,0-.21,0-.42,0-.63.28-8.87,7.46-15.98,15.86-15.74Z"/><path class="cls-93" d="m100.07,2.42c8.76.25,16.72,5.87,16.72,14.63s-7.41,16.49-15.82,17.05c-.36.02-.73.03-1.09.03-8.5-.1-15.6-6.88-15.68-15.34,0-.21,0-.42,0-.63.28-8.87,7.46-15.99,15.86-15.75Z"/><path class="cls-96" d="m100.08,2.43c8.75.25,16.73,5.86,16.73,14.62s-7.41,16.5-15.82,17.06c-.36.02-.73.04-1.09.03-8.5-.09-15.61-6.88-15.68-15.34,0-.21,0-.42,0-.63.28-8.88,7.46-15.99,15.86-15.75Z"/><path class="cls-83" d="m100.09,2.45c8.75.25,16.73,5.86,16.73,14.61s-7.41,16.5-15.81,17.06c-.36.02-.73.04-1.09.03-8.5-.09-15.61-6.88-15.69-15.33,0-.21,0-.42,0-.63.28-8.88,7.46-15.99,15.86-15.75Z"/><path class="cls-84" d="m100.1,2.46c8.75.25,16.73,5.85,16.73,14.61s-7.42,16.5-15.81,17.07c-.36.02-.73.04-1.09.03-8.5-.09-15.61-6.87-15.69-15.33,0-.21,0-.42,0-.63.28-8.88,7.46-15.99,15.85-15.75Z"/><path class="cls-85" d="m100.11,2.48c8.75.26,16.74,5.84,16.74,14.6s-7.42,16.5-15.81,17.07c-.36.02-.73.04-1.09.03-8.5-.09-15.62-6.87-15.69-15.32,0-.21,0-.42,0-.63.28-8.88,7.46-16,15.85-15.75Z"/><path class="cls-100" d="m100.12,2.49c8.75.26,16.74,5.83,16.74,14.59s-7.42,16.51-15.81,17.08c-.36.03-.73.04-1.09.03-8.5-.08-15.62-6.86-15.7-15.32,0-.21,0-.42,0-.63.28-8.88,7.46-16,15.85-15.75Z"/><path class="cls-89" d="m100.13,2.5c8.75.26,16.75,5.82,16.75,14.58s-7.42,16.51-15.81,17.08c-.36.03-.73.04-1.09.03-8.5-.08-15.62-6.86-15.7-15.31,0-.21,0-.42,0-.63.28-8.88,7.46-16,15.85-15.76Z"/><path class="cls-107" d="m100.14,2.52c8.75.26,16.75,5.82,16.75,14.57s-7.42,16.51-15.81,17.09c-.36.03-.73.04-1.09.03-8.5-.08-15.63-6.86-15.71-15.31,0-.21,0-.42,0-.63.28-8.89,7.46-16.01,15.85-15.76Z"/><path class="cls-108" d="m100.15,2.53c8.75.26,16.75,5.81,16.75,14.56s-7.42,16.51-15.8,17.1c-.36.03-.73.04-1.09.03-8.5-.07-15.63-6.85-15.71-15.3,0-.21,0-.42,0-.63.28-8.89,7.46-16.01,15.85-15.76Z"/><path class="cls-82" d="m100.16,2.55c8.75.26,16.76,5.8,16.76,14.55s-7.42,16.51-15.8,17.1c-.36.03-.73.04-1.09.03-8.51-.07-15.63-6.85-15.71-15.3,0-.21,0-.42,0-.63.28-8.89,7.46-16.01,15.84-15.76Z"/><path class="cls-90" d="m100.17,2.56c8.75.26,16.76,5.79,16.76,14.54s-7.42,16.52-15.8,17.11c-.36.03-.73.04-1.09.03-8.51-.07-15.64-6.85-15.72-15.3,0-.21,0-.42,0-.63.28-8.89,7.46-16.02,15.84-15.76Z"/><path class="cls-91" d="m100.18,2.58c8.75.27,16.76,5.78,16.76,14.53s-7.43,16.52-15.8,17.11c-.36.03-.73.04-1.09.04-8.51-.07-15.64-6.84-15.72-15.29,0-.21,0-.42,0-.63.28-8.89,7.46-16.02,15.84-15.76Z"/><path class="cls-92" d="m100.19,2.59c8.74.27,16.77,5.78,16.77,14.53s-7.43,16.52-15.8,17.12c-.36.03-.73.04-1.09.04-8.51-.06-15.64-6.84-15.72-15.29,0-.21,0-.42,0-.63.28-8.89,7.46-16.02,15.84-15.77Z"/><path class="cls-87" d="m100.2,2.61c8.74.27,16.77,5.77,16.77,14.52s-7.43,16.52-15.79,17.12c-.36.03-.73.04-1.09.04-8.51-.06-15.65-6.83-15.73-15.28,0-.21,0-.42,0-.63.28-8.9,7.46-16.03,15.84-15.77Z"/><path class="cls-94" d="m100.2,2.62c8.74.27,16.77,5.76,16.77,14.51s-7.43,16.53-15.79,17.13c-.36.03-.73.04-1.09.04-8.51-.06-15.65-6.83-15.73-15.28,0-.21,0-.42,0-.63.28-8.9,7.46-16.03,15.84-15.77Z"/><path class="cls-66" d="m100.21,2.64c8.74.27,16.78,5.75,16.78,14.5s-7.43,16.53-15.79,17.13c-.36.03-.73.04-1.09.04-8.51-.05-15.65-6.83-15.74-15.27,0-.21,0-.42,0-.63.28-8.9,7.46-16.03,15.84-15.77Z"/><path class="cls-68" d="m100.22,2.65c8.74.27,16.78,5.74,16.78,14.49s-7.43,16.53-15.79,17.14c-.36.03-.73.04-1.09.04-8.51-.05-15.66-6.82-15.74-15.27,0-.21,0-.42,0-.62.28-8.9,7.46-16.03,15.83-15.77Z"/><path class="cls-54" d="m100.23,2.66c8.74.27,16.78,5.74,16.78,14.48s-7.43,16.53-15.79,17.15c-.36.03-.73.04-1.09.04-8.51-.05-15.66-6.82-15.74-15.26,0-.21,0-.42,0-.62.28-8.9,7.46-16.04,15.83-15.77Z"/><path class="cls-67" d="m100.24,2.68c8.74.28,16.79,5.73,16.79,14.47s-7.43,16.53-15.79,17.15c-.36.03-.73.04-1.09.04-8.51-.05-15.66-6.81-15.75-15.26,0-.21,0-.42,0-.62.28-8.9,7.46-16.04,15.83-15.78Z"/><path class="cls-79" d="m100.25,2.69c8.74.28,16.79,5.72,16.79,14.46s-7.43,16.54-15.78,17.16c-.36.03-.73.04-1.09.04-8.51-.04-15.67-6.81-15.75-15.26,0-.21,0-.42,0-.62.28-8.91,7.46-16.04,15.83-15.78Z"/><path class="cls-55" d="m100.26,2.71c8.74.28,16.8,5.71,16.8,14.45s-7.44,16.54-15.78,17.16c-.36.03-.73.04-1.09.04-8.51-.04-15.67-6.81-15.75-15.25,0-.21,0-.42,0-.62.28-8.91,7.46-16.05,15.83-15.78Z"/><path class="cls-77" d="m100.27,2.72c8.74.28,16.8,5.7,16.8,14.44s-7.44,16.54-15.78,17.17c-.36.03-.73.04-1.09.04-8.51-.04-15.67-6.8-15.76-15.25,0-.21,0-.42,0-.62.28-8.91,7.46-16.05,15.83-15.78Z"/><path class="cls-73" d="m100.28,2.74c8.74.28,16.8,5.69,16.8,14.44s-7.44,16.54-15.78,17.17c-.36.03-.73.04-1.09.04-8.51-.04-15.68-6.8-15.76-15.24,0-.21,0-.42,0-.62.28-8.91,7.46-16.05,15.83-15.78Z"/><path class="cls-98" d="m100.29,2.75c8.73.28,16.81,5.69,16.81,14.43s-7.44,16.55-15.78,17.18c-.36.03-.73.04-1.09.04-8.51-.03-15.68-6.79-15.77-15.24,0-.21,0-.42,0-.62.28-8.91,7.46-16.06,15.82-15.78Z"/><path class="cls-88" d="m100.3,2.77c8.73.29,16.81,5.68,16.81,14.42s-7.44,16.55-15.77,17.19c-.36.03-.73.04-1.09.04-8.51-.03-15.68-6.79-15.77-15.23,0-.21,0-.42,0-.62.28-8.91,7.46-16.06,15.82-15.79Z"/><path class="cls-99" d="m100.31,2.78c8.73.29,16.81,5.67,16.81,14.41s-7.44,16.55-15.77,17.19c-.36.03-.73.04-1.09.04-8.51-.03-15.69-6.79-15.77-15.23,0-.21,0-.41,0-.62.28-8.92,7.46-16.06,15.82-15.79Z"/><path class="cls-101" d="m100.32,2.8c8.73.29,16.82,5.66,16.82,14.4s-7.44,16.55-15.77,17.2c-.36.03-.73.04-1.09.04-8.51-.02-15.69-6.78-15.78-15.22,0-.21,0-.41,0-.62.28-8.92,7.46-16.07,15.82-15.79Z"/><path class="cls-86" d="m100.33,2.81c8.73.29,16.82,5.65,16.82,14.39s-7.44,16.55-15.77,17.2c-.36.03-.73.04-1.09.04-8.52-.02-15.69-6.78-15.78-15.22,0-.21,0-.41,0-.62.28-8.92,7.46-16.07,15.82-15.79Z"/><path class="cls-97" d="m100.34,2.82c8.73.29,16.82,5.65,16.82,14.38s-7.45,16.56-15.77,17.21c-.36.03-.73.04-1.09.04-8.52-.02-15.7-6.77-15.79-15.21,0-.21,0-.41,0-.62.27-8.92,7.46-16.07,15.82-15.79Z"/><path class="cls-65" d="m100.35,2.84c8.73.29,16.83,5.64,16.83,14.37s-7.45,16.56-15.77,17.21c-.36.03-.73.04-1.09.04-8.52-.02-15.7-6.77-15.79-15.21,0-.21,0-.41,0-.62.27-8.92,7.46-16.07,15.81-15.79Z"/><path class="cls-63" d="m100.36,2.85c8.73.29,16.83,5.63,16.83,14.36s-7.45,16.56-15.76,17.22c-.36.03-.73.04-1.1.04-8.52-.01-15.7-6.77-15.79-15.21,0-.21,0-.41,0-.62.27-8.92,7.46-16.08,15.81-15.8Z"/><path class="cls-103" d="m100.36,2.87c8.73.3,16.84,5.62,16.84,14.35s-7.45,16.56-15.76,17.22c-.36.03-.73.04-1.1.04-8.52-.01-15.71-6.76-15.8-15.2,0-.21,0-.41,0-.62.27-8.93,7.46-16.08,15.81-15.8Z"/><path class="cls-106" d="m100.37,2.88c8.73.3,16.84,5.61,16.84,14.35s-7.45,16.57-15.76,17.23c-.36.03-.73.04-1.1.04-8.52,0-15.71-6.76-15.8-15.2,0-.21,0-.41,0-.62.27-8.93,7.46-16.08,15.81-15.8Z"/><path class="cls-105" d="m100.38,2.9c8.73.3,16.84,5.61,16.84,14.34s-7.45,16.57-15.76,17.24c-.36.03-.73.04-1.1.04-8.52,0-15.71-6.75-15.8-15.19,0-.21,0-.41,0-.62.27-8.93,7.46-16.09,15.81-15.8Z"/><path class="cls-104" d="m100.39,2.91c8.73.3,16.85,5.6,16.85,14.33s-7.45,16.57-15.76,17.24c-.36.03-.73.04-1.1.04-8.52,0-15.72-6.75-15.81-15.19,0-.21,0-.41,0-.62.27-8.93,7.46-16.09,15.81-15.8Z"/><path class="cls-102" d="m117.25,17.25c0,8.73-8.12,17.29-16.85,17.29s-16.07-7.08-15.81-15.81c.27-8.93,7.47-16.09,15.81-15.8,8.72.3,16.85,5.59,16.85,14.32Z"/><path class="cls-423" d="m100.41,2.94c8.72.3,16.85,5.6,16.85,14.33s-8.12,17.28-16.85,17.28-16.07-7.08-15.81-15.81c.27-8.93,7.46-16.09,15.81-15.8Z"/><path class="cls-420" d="m100.42,2.95c8.72.3,16.84,5.6,16.84,14.33s-8.11,17.28-16.84,17.28-16.07-7.08-15.81-15.81c.27-8.93,7.46-16.09,15.81-15.8Z"/><path class="cls-417" d="m100.42,2.96c8.72.3,16.84,5.61,16.84,14.34s-8.11,17.27-16.84,17.27-16.07-7.08-15.81-15.81c.27-8.93,7.46-16.09,15.81-15.8Z"/><path class="cls-418" d="m100.43,2.97c8.72.3,16.83,5.62,16.83,14.35s-8.1,17.26-16.83,17.26-16.07-7.08-15.81-15.81c.27-8.93,7.46-16.09,15.81-15.8Z"/><path class="cls-422" d="m100.44,2.98c8.72.29,16.83,5.62,16.83,14.35s-8.1,17.26-16.83,17.26-16.07-7.08-15.81-15.81c.27-8.93,7.46-16.09,15.81-15.8Z"/><path class="cls-421" d="m100.44,2.99c8.72.29,16.82,5.63,16.82,14.36s-8.09,17.25-16.82,17.25-16.06-7.08-15.81-15.81c.26-8.93,7.45-16.09,15.81-15.8Z"/><path class="cls-416" d="m100.45,3c8.72.29,16.82,5.64,16.82,14.37s-8.09,17.24-16.82,17.24-16.06-7.08-15.81-15.81c.26-8.93,7.45-16.08,15.81-15.8Z"/><path class="cls-419" d="m100.46,3.01c8.72.29,16.81,5.64,16.81,14.37s-8.08,17.24-16.81,17.24-16.06-7.08-15.81-15.81c.26-8.92,7.45-16.08,15.81-15.8Z"/><path class="cls-414" d="m100.46,3.02c8.72.29,16.81,5.65,16.81,14.38s-8.08,17.23-16.81,17.23-16.06-7.08-15.81-15.81c.26-8.92,7.45-16.08,15.81-15.8Z"/><path class="cls-411" d="m100.47,3.03c8.72.29,16.8,5.66,16.8,14.39s-8.07,17.22-16.8,17.22-16.06-7.08-15.81-15.81c.26-8.92,7.45-16.08,15.81-15.8Z"/><path class="cls-412" d="m100.48,3.04c8.72.29,16.8,5.67,16.8,14.39s-8.07,17.22-16.8,17.22-16.06-7.08-15.81-15.81c.26-8.92,7.45-16.08,15.81-15.8Z"/><path class="cls-410" d="m100.48,3.05c8.72.29,16.79,5.67,16.79,14.4s-8.06,17.21-16.79,17.21-16.06-7.08-15.81-15.81c.26-8.92,7.44-16.08,15.81-15.8Z"/><path class="cls-415" d="m100.49,3.06c8.72.28,16.79,5.68,16.79,14.41s-8.06,17.2-16.79,17.2-16.06-7.08-15.81-15.81c.26-8.92,7.44-16.08,15.81-15.8Z"/><path class="cls-311" d="m100.5,3.07c8.72.28,16.78,5.69,16.78,14.42s-8.05,17.2-16.78,17.2-16.05-7.08-15.81-15.81c.25-8.92,7.44-16.07,15.81-15.8Z"/><path class="cls-413" d="m100.51,3.08c8.72.28,16.78,5.69,16.78,14.42s-8.05,17.19-16.78,17.19-16.05-7.08-15.81-15.81c.25-8.92,7.44-16.07,15.81-15.8Z"/><path class="cls-313" d="m100.51,3.09c8.72.28,16.77,5.7,16.77,14.43s-8.04,17.18-16.77,17.18-16.05-7.08-15.81-15.81c.25-8.92,7.44-16.07,15.81-15.8Z"/><path class="cls-310" d="m100.52,3.1c8.72.28,16.77,5.71,16.77,14.44s-8.04,17.17-16.77,17.17-16.05-7.08-15.81-15.81c.25-8.92,7.43-16.07,15.81-15.8Z"/><path class="cls-307" d="m100.53,3.11c8.72.28,16.76,5.71,16.76,14.44s-8.03,17.17-16.76,17.17-16.05-7.08-15.81-15.81c.25-8.92,7.43-16.07,15.81-15.8Z"/><path class="cls-308" d="m100.53,3.12c8.72.28,16.76,5.72,16.76,14.45s-8.03,17.16-16.76,17.16-16.05-7.08-15.81-15.81c.25-8.91,7.43-16.07,15.81-15.8Z"/><path class="cls-304" d="m100.54,3.13c8.72.27,16.75,5.73,16.75,14.46s-8.02,17.15-16.75,17.15-16.05-7.08-15.81-15.81c.25-8.91,7.43-16.07,15.81-15.8Z"/><path class="cls-305" d="m100.55,3.14c8.72.27,16.75,5.73,16.75,14.46s-8.02,17.15-16.75,17.15-16.05-7.08-15.81-15.81c.25-8.91,7.43-16.07,15.81-15.8Z"/><path class="cls-303" d="m100.55,3.15c8.72.27,16.74,5.74,16.74,14.47s-8.01,17.14-16.74,17.14-16.04-7.08-15.81-15.81c.24-8.91,7.43-16.06,15.81-15.8Z"/><path class="cls-309" d="m100.56,3.16c8.72.27,16.74,5.75,16.74,14.48s-8.01,17.13-16.74,17.13-16.04-7.08-15.81-15.81c.24-8.91,7.42-16.06,15.81-15.8Z"/><path class="cls-302" d="m100.57,3.17c8.72.27,16.73,5.75,16.73,14.48s-8,17.13-16.73,17.13-16.04-7.08-15.81-15.81c.24-8.91,7.42-16.06,15.81-15.8Z"/><path class="cls-306" d="m100.57,3.18c8.72.27,16.73,5.76,16.73,14.49s-8,17.12-16.73,17.12-16.04-7.08-15.81-15.81c.24-8.91,7.42-16.06,15.81-15.8Z"/><path class="cls-301" d="m100.58,3.19c8.72.27,16.72,5.77,16.72,14.5s-7.99,17.11-16.72,17.11-16.04-7.08-15.81-15.81c.24-8.91,7.42-16.06,15.81-15.8Z"/><path class="cls-323" d="m100.59,3.2c8.72.26,16.72,5.78,16.72,14.5s-7.99,17.11-16.72,17.11-16.04-7.08-15.81-15.81c.24-8.91,7.42-16.06,15.81-15.8Z"/><path class="cls-324" d="m100.59,3.22c8.72.26,16.71,5.78,16.71,14.51s-7.99,17.1-16.71,17.1-16.04-7.08-15.81-15.81c.24-8.91,7.41-16.06,15.81-15.8Z"/><path class="cls-322" d="m100.6,3.23c8.72.26,16.71,5.79,16.71,14.52s-7.98,17.09-16.71,17.09-16.04-7.08-15.81-15.81c.24-8.9,7.41-16.05,15.81-15.8Z"/><path class="cls-320" d="m100.61,3.24c8.73.26,16.7,5.8,16.7,14.53s-7.98,17.09-16.7,17.09-16.03-7.08-15.81-15.81c.23-8.9,7.41-16.05,15.81-15.8Z"/><path class="cls-321" d="m100.62,3.25c8.73.26,16.7,5.8,16.7,14.53s-7.97,17.08-16.7,17.08-16.03-7.08-15.81-15.81c.23-8.9,7.41-16.05,15.81-15.8Z"/><path class="cls-325" d="m100.62,3.26c8.73.26,16.7,5.81,16.7,14.54s-7.97,17.07-16.7,17.07-16.03-7.08-15.81-15.81c.23-8.9,7.41-16.05,15.81-15.8Z"/><path class="cls-318" d="m100.63,3.27c8.73.26,16.69,5.82,16.69,14.55s-7.96,17.06-16.69,17.06-16.03-7.08-15.81-15.81c.23-8.9,7.41-16.05,15.81-15.8Z"/><path class="cls-315" d="m100.64,3.28c8.73.25,16.69,5.82,16.69,14.55s-7.96,17.06-16.69,17.06-16.03-7.08-15.81-15.81c.23-8.9,7.4-16.05,15.81-15.8Z"/><path class="cls-319" d="m100.64,3.29c8.73.25,16.68,5.83,16.68,14.56s-7.95,17.05-16.68,17.05-16.03-7.08-15.81-15.81c.23-8.9,7.4-16.05,15.81-15.8Z"/><path class="cls-316" d="m100.65,3.3c8.73.25,16.68,5.84,16.68,14.57s-7.95,17.04-16.68,17.04-16.03-7.08-15.81-15.81c.23-8.9,7.4-16.05,15.81-15.8Z"/><path class="cls-312" d="m100.66,3.31c8.73.25,16.67,5.84,16.67,14.57s-7.94,17.04-16.67,17.04-16.03-7.08-15.81-15.81c.23-8.9,7.4-16.04,15.81-15.8Z"/><path class="cls-314" d="m100.66,3.32c8.73.25,16.67,5.85,16.67,14.58s-7.94,17.03-16.67,17.03-16.02-7.08-15.81-15.81c.22-8.9,7.4-16.04,15.81-15.8Z"/><path class="cls-317" d="m100.67,3.33c8.73.25,16.66,5.86,16.66,14.59s-7.93,17.02-16.66,17.02-16.02-7.08-15.81-15.81c.22-8.9,7.39-16.04,15.81-15.8Z"/><path class="cls-339" d="m100.68,3.34c8.73.25,16.66,5.86,16.66,14.59s-7.93,17.02-16.66,17.02-16.02-7.08-15.81-15.81c.22-8.89,7.39-16.04,15.81-15.8Z"/><path class="cls-340" d="m100.68,3.35c8.73.24,16.65,5.87,16.65,14.6s-7.92,17.01-16.65,17.01-16.02-7.08-15.81-15.81c.22-8.89,7.39-16.04,15.81-15.8Z"/><path class="cls-338" d="m100.69,3.36c8.73.24,16.65,5.88,16.65,14.61s-7.92,17-16.65,17-16.02-7.08-15.81-15.81c.22-8.89,7.39-16.04,15.81-15.8Z"/><path class="cls-337" d="m100.7,3.37c8.73.24,16.64,5.89,16.64,14.61s-7.91,17-16.64,17-16.02-7.08-15.81-15.81c.22-8.89,7.39-16.04,15.81-15.8Z"/><path class="cls-334" d="m100.7,3.38c8.73.24,16.64,5.89,16.64,14.62s-7.91,16.99-16.64,16.99-16.02-7.08-15.81-15.81c.22-8.89,7.39-16.03,15.81-15.8Z"/><path class="cls-333" d="m100.71,3.39c8.73.24,16.63,5.9,16.63,14.63s-7.9,16.98-16.63,16.98-16.02-7.08-15.81-15.81c.22-8.89,7.38-16.03,15.81-15.8Z"/><path class="cls-335" d="m100.72,3.4c8.73.24,16.63,5.91,16.63,14.64s-7.9,16.98-16.63,16.98-16.01-7.08-15.81-15.81c.21-8.89,7.38-16.03,15.81-15.8Z"/><path class="cls-331" d="m100.72,3.41c8.73.24,16.62,5.91,16.62,14.64s-7.89,16.97-16.62,16.97-16.01-7.08-15.81-15.81c.21-8.89,7.38-16.03,15.81-15.8Z"/><path class="cls-330" d="m100.73,3.42c8.73.23,16.62,5.92,16.62,14.65s-7.89,16.96-16.62,16.96-16.01-7.08-15.81-15.81c.21-8.89,7.38-16.03,15.81-15.8Z"/><path class="cls-336" d="m100.74,3.43c8.73.23,16.61,5.93,16.61,14.66s-7.88,16.95-16.61,16.95-16.01-7.08-15.81-15.81c.21-8.89,7.38-16.03,15.81-15.8Z"/><path class="cls-329" d="m100.75,3.44c8.73.23,16.61,5.93,16.61,14.66s-7.88,16.95-16.61,16.95-16.01-7.08-15.81-15.81c.21-8.89,7.38-16.03,15.81-15.8Z"/><path class="cls-327" d="m100.75,3.45c8.73.23,16.6,5.94,16.6,14.67s-7.87,16.94-16.6,16.94-16.01-7.08-15.81-15.81c.21-8.88,7.37-16.03,15.81-15.8Z"/><path class="cls-332" d="m100.76,3.46c8.73.23,16.6,5.95,16.6,14.68s-7.87,16.93-16.6,16.93-16.01-7.08-15.81-15.81c.21-8.88,7.37-16.02,15.81-15.8Z"/><path class="cls-326" d="m100.77,3.47c8.73.23,16.59,5.95,16.59,14.68s-7.86,16.93-16.59,16.93-16.01-7.08-15.81-15.81c.21-8.88,7.37-16.02,15.81-15.8Z"/><path class="cls-352" d="m100.77,3.48c8.73.23,16.59,5.96,16.59,14.69s-7.86,16.92-16.59,16.92-16.01-7.08-15.81-15.81c.2-8.88,7.37-16.02,15.81-15.8Z"/><path class="cls-353" d="m100.78,3.49c8.73.23,16.58,5.97,16.58,14.7s-7.85,16.91-16.58,16.91-16-7.08-15.81-15.81c.2-8.88,7.37-16.02,15.81-15.8Z"/><path class="cls-328" d="m100.79,3.5c8.73.22,16.58,5.97,16.58,14.7s-7.85,16.91-16.58,16.91-16-7.08-15.81-15.81c.2-8.88,7.36-16.02,15.81-15.8Z"/><path class="cls-350" d="m100.79,3.51c8.73.22,16.57,5.98,16.57,14.71s-7.84,16.9-16.57,16.9-16-7.08-15.81-15.81c.2-8.88,7.36-16.02,15.81-15.8Z"/><path class="cls-349" d="m100.8,3.52c8.73.22,16.57,5.99,16.57,14.72s-7.84,16.89-16.57,16.89-16-7.08-15.81-15.81c.2-8.88,7.36-16.02,15.81-15.8Z"/><path class="cls-347" d="m100.81,3.53c8.73.22,16.56,6,16.56,14.72s-7.84,16.89-16.56,16.89-16-7.08-15.81-15.81c.2-8.88,7.36-16.01,15.81-15.8Z"/><path class="cls-348" d="m100.81,3.54c8.73.22,16.56,6,16.56,14.73s-7.83,16.88-16.56,16.88-16-7.08-15.81-15.81c.2-8.88,7.36-16.01,15.81-15.8Z"/><path class="cls-345" d="m100.82,3.56c8.73.22,16.55,6.01,16.55,14.74s-7.83,16.87-16.55,16.87-16-7.08-15.81-15.81c.2-8.87,7.36-16.01,15.81-15.8Z"/><path class="cls-344" d="m100.83,3.57c8.73.22,16.55,6.02,16.55,14.75s-7.82,16.87-16.55,16.87-16-7.08-15.81-15.81c.19-8.87,7.35-16.01,15.81-15.8Z"/><path class="cls-351" d="m100.83,3.58c8.73.21,16.55,6.02,16.55,14.75s-7.82,16.86-16.55,16.86-15.99-7.08-15.81-15.81c.19-8.87,7.35-16.01,15.81-15.8Z"/><path class="cls-341" d="m100.84,3.59c8.73.21,16.54,6.03,16.54,14.76s-7.81,16.85-16.54,16.85-15.99-7.08-15.81-15.81c.19-8.87,7.35-16.01,15.81-15.8Z"/><path class="cls-342" d="m100.85,3.6c8.73.21,16.54,6.04,16.54,14.77s-7.81,16.84-16.54,16.84-15.99-7.08-15.81-15.81c.19-8.87,7.35-16.01,15.81-15.8Z"/><path class="cls-346" d="m100.86,3.61c8.73.21,16.53,6.04,16.53,14.77s-7.8,16.84-16.53,16.84-15.99-7.08-15.81-15.81c.19-8.87,7.35-16.01,15.81-15.8Z"/><path class="cls-264" d="m100.86,3.62c8.73.21,16.53,6.05,16.53,14.78s-7.8,16.83-16.53,16.83-15.99-7.08-15.81-15.81c.19-8.87,7.34-16,15.81-15.8Z"/><path class="cls-263" d="m100.87,3.63c8.73.21,16.52,6.06,16.52,14.79s-7.79,16.82-16.52,16.82-15.99-7.08-15.81-15.81c.19-8.87,7.34-16,15.81-15.8Z"/><path class="cls-262" d="m100.88,3.64c8.73.21,16.52,6.06,16.52,14.79s-7.79,16.82-16.52,16.82-15.99-7.08-15.81-15.81c.19-8.87,7.34-16,15.81-15.8Z"/><path class="cls-343" d="m100.88,3.65c8.73.2,16.51,6.07,16.51,14.8s-7.78,16.81-16.51,16.81-15.99-7.08-15.81-15.81c.18-8.87,7.34-16,15.81-15.8Z"/><path class="cls-409" d="m100.89,3.66c8.73.2,16.51,6.08,16.51,14.81s-7.78,16.8-16.51,16.8-15.98-7.08-15.81-15.81c.18-8.87,7.34-16,15.81-15.8Z"/><path class="cls-408" d="m100.9,3.67c8.73.2,16.5,6.08,16.5,14.81s-7.77,16.8-16.5,16.8-15.98-7.08-15.81-15.81c.18-8.86,7.34-16,15.81-15.8Z"/><path class="cls-265" d="m100.9,3.68c8.73.2,16.5,6.09,16.5,14.82s-7.77,16.79-16.5,16.79-15.98-7.08-15.81-15.81c.18-8.86,7.33-16,15.81-15.8Z"/><path class="cls-407" d="m100.91,3.69c8.73.2,16.49,6.1,16.49,14.83s-7.76,16.78-16.49,16.78-15.98-7.08-15.81-15.81c.18-8.86,7.33-15.99,15.81-15.8Z"/><path class="cls-406" d="m100.92,3.7c8.73.2,16.49,6.11,16.49,14.83s-7.76,16.78-16.49,16.78-15.98-7.08-15.81-15.81c.18-8.86,7.33-15.99,15.81-15.8Z"/><path class="cls-405" d="m100.92,3.71c8.73.2,16.48,6.11,16.48,14.84s-7.75,16.77-16.48,16.77-15.98-7.08-15.81-15.81c.18-8.86,7.33-15.99,15.81-15.8Z"/><path class="cls-404" d="m100.93,3.72c8.73.19,16.48,6.12,16.48,14.85s-7.75,16.76-16.48,16.76-15.98-7.08-15.81-15.81c.18-8.86,7.33-15.99,15.81-15.8Z"/><path class="cls-403" d="m100.94,3.73c8.73.19,16.47,6.13,16.47,14.86s-7.74,16.75-16.47,16.75-15.98-7.08-15.81-15.81c.17-8.86,7.32-15.99,15.81-15.8Z"/><path class="cls-401" d="m100.94,3.74c8.73.19,16.47,6.13,16.47,14.86s-7.74,16.75-16.47,16.75-15.97-7.08-15.81-15.81c.17-8.86,7.32-15.99,15.81-15.8Z"/><path class="cls-402" d="m100.95,3.75c8.73.19,16.46,6.14,16.46,14.87s-7.73,16.74-16.46,16.74-15.97-7.08-15.81-15.81c.17-8.86,7.32-15.99,15.81-15.8Z"/><path class="cls-279" d="m100.96,3.76c8.73.19,16.46,6.15,16.46,14.88s-7.73,16.73-16.46,16.73-15.97-7.08-15.81-15.81c.17-8.86,7.32-15.99,15.81-15.8Z"/><path class="cls-277" d="m100.97,3.77c8.73.19,16.45,6.15,16.45,14.88s-7.72,16.73-16.45,16.73-15.97-7.08-15.81-15.81c.17-8.85,7.32-15.98,15.81-15.8Z"/><path class="cls-278" d="m100.97,3.78c8.73.19,16.45,6.16,16.45,14.89s-7.72,16.72-16.45,16.72-15.97-7.08-15.81-15.81c.17-8.85,7.32-15.98,15.81-15.8Z"/><path class="cls-275" d="m100.98,3.79c8.73.18,16.44,6.17,16.44,14.9s-7.71,16.71-16.44,16.71-15.97-7.08-15.81-15.81c.17-8.85,7.31-15.98,15.81-15.8Z"/><path class="cls-273" d="m100.99,3.8c8.73.18,16.44,6.17,16.44,14.9s-7.71,16.71-16.44,16.71-15.97-7.08-15.81-15.81c.17-8.85,7.31-15.98,15.81-15.8Z"/><path class="cls-272" d="m100.99,3.81c8.73.18,16.43,6.18,16.43,14.91s-7.7,16.7-16.43,16.7-15.97-7.08-15.81-15.81c.16-8.85,7.31-15.98,15.81-15.8Z"/><path class="cls-270" d="m101,3.82c8.73.18,16.43,6.19,16.43,14.92s-7.7,16.69-16.43,16.69-15.96-7.08-15.81-15.81c.16-8.85,7.31-15.98,15.81-15.8Z"/><path class="cls-269" d="m101.01,3.83c8.73.18,16.42,6.2,16.42,14.92s-7.69,16.69-16.42,16.69-15.96-7.08-15.81-15.81c.16-8.85,7.31-15.98,15.81-15.8Z"/><path class="cls-274" d="m101.01,3.84c8.73.18,16.42,6.2,16.42,14.93s-7.69,16.68-16.42,16.68-15.96-7.08-15.81-15.81c.16-8.85,7.3-15.97,15.81-15.8Z"/><path class="cls-276" d="m101.02,3.85c8.73.18,16.41,6.21,16.41,14.94s-7.69,16.67-16.41,16.67-15.96-7.08-15.81-15.81c.16-8.85,7.3-15.97,15.81-15.8Z"/><path class="cls-267" d="m101.03,3.86c8.73.17,16.41,6.22,16.41,14.94s-7.68,16.67-16.41,16.67-15.96-7.08-15.81-15.81c.16-8.85,7.3-15.97,15.81-15.8Z"/><path class="cls-266" d="m101.03,3.87c8.73.17,16.4,6.22,16.4,14.95s-7.68,16.66-16.4,16.66-15.96-7.08-15.81-15.81c.16-8.85,7.3-15.97,15.81-15.8Z"/><path class="cls-271" d="m101.04,3.88c8.73.17,16.4,6.23,16.4,14.96s-7.67,16.65-16.4,16.65-15.96-7.08-15.81-15.81c.16-8.84,7.3-15.97,15.81-15.8Z"/><path class="cls-292" d="m101.05,3.89c8.73.17,16.4,6.24,16.4,14.97s-7.67,16.64-16.4,16.64-15.96-7.08-15.81-15.81c.15-8.84,7.3-15.97,15.81-15.8Z"/><path class="cls-290" d="m101.05,3.91c8.73.17,16.39,6.24,16.39,14.97s-7.66,16.64-16.39,16.64-15.95-7.08-15.81-15.81c.15-8.84,7.29-15.97,15.81-15.8Z"/><path class="cls-289" d="m101.06,3.92c8.73.17,16.39,6.25,16.39,14.98s-7.66,16.63-16.39,16.63-15.95-7.08-15.81-15.81c.15-8.84,7.29-15.97,15.81-15.8Z"/><path class="cls-268" d="m101.07,3.93c8.73.17,16.38,6.26,16.38,14.99s-7.65,16.62-16.38,16.62-15.95-7.08-15.81-15.81c.15-8.84,7.29-15.96,15.81-15.8Z"/><path class="cls-288" d="m101.08,3.94c8.73.16,16.38,6.26,16.38,14.99s-7.65,16.62-16.38,16.62-15.95-7.08-15.81-15.81c.15-8.84,7.29-15.96,15.81-15.8Z"/><path class="cls-287" d="m101.08,3.95c8.73.16,16.37,6.27,16.37,15s-7.64,16.61-16.37,16.61-15.95-7.08-15.81-15.81c.15-8.84,7.29-15.96,15.81-15.8Z"/><path class="cls-291" d="m101.09,3.96c8.73.16,16.37,6.28,16.37,15.01s-7.64,16.6-16.37,16.6-15.95-7.08-15.81-15.81c.15-8.84,7.29-15.96,15.81-15.8Z"/><path class="cls-285" d="m101.1,3.97c8.73.16,16.36,6.28,16.36,15.01s-7.63,16.6-16.36,16.6-15.95-7.08-15.81-15.81c.15-8.84,7.28-15.96,15.81-15.8Z"/><path class="cls-284" d="m101.1,3.98c8.73.16,16.36,6.29,16.36,15.02s-7.63,16.59-16.36,16.59-15.95-7.08-15.81-15.81c.14-8.84,7.28-15.96,15.81-15.8Z"/><path class="cls-283" d="m101.11,3.99c8.73.16,16.35,6.3,16.35,15.03s-7.62,16.58-16.35,16.58-15.94-7.08-15.81-15.81c.14-8.84,7.28-15.96,15.81-15.8Z"/><path class="cls-282" d="m101.12,4c8.73.16,16.35,6.31,16.35,15.03s-7.62,16.58-16.35,16.58-15.94-7.08-15.81-15.81c.14-8.83,7.28-15.95,15.81-15.8Z"/><path class="cls-281" d="m101.12,4.01c8.73.16,16.34,6.31,16.34,15.04s-7.61,16.57-16.34,16.57-15.94-7.08-15.81-15.81c.14-8.83,7.28-15.95,15.81-15.8Z"/><path class="cls-280" d="m101.13,4.02c8.73.15,16.34,6.32,16.34,15.05s-7.61,16.56-16.34,16.56-15.94-7.08-15.81-15.81c.14-8.83,7.27-15.95,15.81-15.8Z"/><path class="cls-286" d="m101.14,4.03c8.73.15,16.33,6.33,16.33,15.05s-7.6,16.56-16.33,16.56-15.94-7.08-15.81-15.81c.14-8.83,7.27-15.95,15.81-15.8Z"/><path class="cls-298" d="m101.14,4.04c8.73.15,16.33,6.33,16.33,15.06s-7.6,16.55-16.33,16.55-15.94-7.08-15.81-15.81c.14-8.83,7.27-15.95,15.81-15.8Z"/><path class="cls-299" d="m101.15,4.05c8.73.15,16.32,6.34,16.32,15.07s-7.59,16.54-16.32,16.54-15.94-7.08-15.81-15.81c.13-8.83,7.27-15.95,15.81-15.8Z"/><path class="cls-300" d="m101.16,4.06c8.73.15,16.32,6.35,16.32,15.08s-7.59,16.53-16.32,16.53-15.94-7.08-15.81-15.81c.13-8.83,7.27-15.95,15.81-15.8Z"/><path class="cls-297" d="m101.16,4.07c8.73.15,16.31,6.35,16.31,15.08s-7.58,16.53-16.31,16.53-15.93-7.08-15.81-15.81c.13-8.83,7.27-15.95,15.81-15.8Z"/><path class="cls-293" d="m101.17,4.08c8.73.15,16.31,6.36,16.31,15.09s-7.58,16.52-16.31,16.52-15.93-7.08-15.81-15.81c.13-8.83,7.26-15.94,15.81-15.8Z"/><path class="cls-295" d="m101.18,4.09c8.73.14,16.3,6.37,16.3,15.1s-7.57,16.51-16.3,16.51-15.93-7.08-15.81-15.81c.13-8.83,7.26-15.94,15.81-15.8Z"/><path class="cls-296" d="m101.19,4.1c8.73.14,16.3,6.37,16.3,15.1s-7.57,16.51-16.3,16.51-15.93-7.08-15.81-15.81c.13-8.82,7.26-15.94,15.81-15.8Z"/><path class="cls-380" d="m101.19,4.11c8.73.14,16.29,6.38,16.29,15.11s-7.56,16.5-16.29,16.5-15.93-7.08-15.81-15.81c.13-8.82,7.26-15.94,15.81-15.8Z"/><path class="cls-294" d="m101.2,4.12c8.73.14,16.29,6.39,16.29,15.12s-7.56,16.49-16.29,16.49-15.93-7.08-15.81-15.81c.13-8.82,7.26-15.94,15.81-15.8Z"/><path class="cls-381" d="m101.21,4.13c8.73.14,16.28,6.39,16.28,15.12s-7.55,16.49-16.28,16.49-15.93-7.08-15.81-15.81c.12-8.82,7.25-15.94,15.81-15.8Z"/><path class="cls-379" d="m101.21,4.14c8.73.14,16.28,6.4,16.28,15.13s-7.55,16.48-16.28,16.48-15.93-7.08-15.81-15.81c.12-8.82,7.25-15.94,15.81-15.8Z"/><path class="cls-375" d="m101.22,4.15c8.73.14,16.27,6.41,16.27,15.14s-7.54,16.47-16.27,16.47-15.92-7.08-15.81-15.81c.12-8.82,7.25-15.93,15.81-15.8Z"/><path class="cls-377" d="m101.23,4.16c8.73.13,16.27,6.42,16.27,15.14s-7.54,16.47-16.27,16.47-15.92-7.08-15.81-15.81c.12-8.82,7.25-15.93,15.81-15.8Z"/><path class="cls-378" d="m101.23,4.17c8.73.13,16.26,6.42,16.26,15.15s-7.54,16.46-16.26,16.46-15.92-7.08-15.81-15.81c.12-8.82,7.25-15.93,15.81-15.8Z"/><path class="cls-385" d="m101.24,4.18c8.73.13,16.26,6.43,16.26,15.16s-7.53,16.45-16.26,16.45-15.92-7.08-15.81-15.81c.12-8.82,7.25-15.93,15.81-15.8Z"/><path class="cls-376" d="m101.25,4.19c8.73.13,16.25,6.44,16.25,15.16s-7.53,16.45-16.25,16.45-15.92-7.08-15.81-15.81c.12-8.82,7.24-15.93,15.81-15.8Z"/><path class="cls-386" d="m101.25,4.2c8.73.13,16.25,6.44,16.25,15.17s-7.52,16.44-16.25,16.44-15.92-7.08-15.81-15.81c.12-8.82,7.24-15.93,15.81-15.8Z"/><path class="cls-382" d="m101.26,4.21c8.73.13,16.25,6.45,16.25,15.18s-7.52,16.43-16.25,16.43-15.92-7.08-15.81-15.81c.11-8.81,7.24-15.93,15.81-15.8Z"/><path class="cls-383" d="m101.27,4.22c8.73.13,16.24,6.46,16.24,15.19s-7.51,16.42-16.24,16.42-15.92-7.08-15.81-15.81c.11-8.81,7.24-15.92,15.81-15.8Z"/><path class="cls-384" d="m101.27,4.23c8.73.12,16.24,6.46,16.24,15.19s-7.51,16.42-16.24,16.42-15.91-7.08-15.81-15.81c.11-8.81,7.24-15.92,15.81-15.8Z"/><path class="cls-393" d="m101.28,4.25c8.73.12,16.23,6.47,16.23,15.2s-7.5,16.41-16.23,16.41-15.91-7.08-15.81-15.81c.11-8.81,7.23-15.92,15.81-15.8Z"/><path class="cls-389" d="m101.29,4.26c8.73.12,16.23,6.48,16.23,15.21s-7.5,16.4-16.23,16.4-15.91-7.08-15.81-15.81c.11-8.81,7.23-15.92,15.81-15.8Z"/><path class="cls-391" d="m101.3,4.27c8.73.12,16.22,6.48,16.22,15.21s-7.49,16.4-16.22,16.4-15.91-7.08-15.81-15.81c.11-8.81,7.23-15.92,15.81-15.8Z"/><path class="cls-392" d="m101.3,4.28c8.73.12,16.22,6.49,16.22,15.22s-7.49,16.39-16.22,16.39-15.91-7.08-15.81-15.81c.11-8.81,7.23-15.92,15.81-15.8Z"/><path class="cls-387" d="m101.31,4.29c8.73.12,16.21,6.5,16.21,15.23s-7.48,16.38-16.21,16.38-15.91-7.08-15.81-15.81c.11-8.81,7.23-15.92,15.81-15.8Z"/><path class="cls-390" d="m101.32,4.3c8.73.12,16.21,6.5,16.21,15.23s-7.48,16.38-16.21,16.38-15.91-7.08-15.81-15.81c.1-8.81,7.23-15.92,15.81-15.8Z"/><path class="cls-388" d="m101.32,4.31c8.73.11,16.2,6.51,16.2,15.24s-7.47,16.37-16.2,16.37-15.91-7.08-15.81-15.81c.1-8.81,7.22-15.91,15.81-15.8Z"/><path class="cls-399" d="m101.33,4.32c8.73.11,16.2,6.52,16.2,15.25s-7.47,16.36-16.2,16.36-15.9-7.08-15.81-15.81c.1-8.8,7.22-15.91,15.81-15.8Z"/><path class="cls-397" d="m101.34,4.33c8.73.11,16.19,6.53,16.19,15.25s-7.46,16.36-16.19,16.36-15.9-7.08-15.81-15.81c.1-8.8,7.22-15.91,15.81-15.8Z"/><path class="cls-400" d="m101.34,4.34c8.73.11,16.19,6.53,16.19,15.26s-7.46,16.35-16.19,16.35-15.9-7.08-15.81-15.81c.1-8.8,7.22-15.91,15.81-15.8Z"/><path class="cls-394" d="m101.35,4.35c8.73.11,16.18,6.54,16.18,15.27s-7.45,16.34-16.18,16.34-15.9-7.08-15.81-15.81c.1-8.8,7.22-15.91,15.81-15.8Z"/><path class="cls-395" d="m101.36,4.36c8.73.11,16.18,6.55,16.18,15.27s-7.45,16.34-16.18,16.34-15.9-7.08-15.81-15.81c.1-8.8,7.21-15.91,15.81-15.8Z"/><path class="cls-398" d="m101.36,4.37c8.73.11,16.17,6.55,16.17,15.28s-7.44,16.33-16.17,16.33-15.9-7.08-15.81-15.81c.1-8.8,7.21-15.91,15.81-15.8Z"/><path class="cls-396" d="m101.37,4.38c8.73.1,16.17,6.56,16.17,15.29s-7.44,16.32-16.17,16.32-15.9-7.08-15.81-15.81c.09-8.8,7.21-15.9,15.81-15.8Z"/><path class="cls-355" d="m101.38,4.39c8.73.1,16.16,6.57,16.16,15.3s-7.43,16.31-16.16,16.31-15.9-7.08-15.81-15.81c.09-8.8,7.21-15.9,15.81-15.8Z"/><path class="cls-354" d="m101.38,4.4c8.73.1,16.16,6.57,16.16,15.3s-7.43,16.31-16.16,16.31-15.89-7.08-15.81-15.81c.09-8.8,7.21-15.9,15.81-15.8Z"/><path class="cls-356" d="m101.39,4.41c8.73.1,16.15,6.58,16.15,15.31s-7.42,16.3-16.15,16.3-15.89-7.08-15.81-15.81c.09-8.8,7.21-15.9,15.81-15.8Z"/><path class="cls-253" d="m101.4,4.42c8.73.1,16.15,6.59,16.15,15.32s-7.42,16.29-16.15,16.29-15.89-7.08-15.81-15.81c.09-8.8,7.2-15.9,15.81-15.8Z"/><path class="cls-251" d="m101.4,4.43c8.73.1,16.14,6.59,16.14,15.32s-7.41,16.29-16.14,16.29-15.89-7.08-15.81-15.81c.09-8.79,7.2-15.9,15.81-15.8Z"/><path class="cls-252" d="m101.41,4.44c8.73.1,16.14,6.6,16.14,15.33s-7.41,16.28-16.14,16.28-15.89-7.08-15.81-15.81c.09-8.79,7.2-15.9,15.81-15.8Z"/><path class="cls-360" d="m101.42,4.45c8.73.1,16.13,6.61,16.13,15.34s-7.4,16.27-16.13,16.27-15.89-7.08-15.81-15.81c.09-8.79,7.2-15.9,15.81-15.8Z"/><path class="cls-362" d="m101.43,4.46c8.73.09,16.13,6.61,16.13,15.34s-7.4,16.27-16.13,16.27-15.89-7.08-15.81-15.81c.08-8.79,7.2-15.89,15.81-15.8Z"/><path class="cls-363" d="m101.43,4.47c8.73.09,16.12,6.62,16.12,15.35s-7.39,16.26-16.12,16.26-15.89-7.08-15.81-15.81c.08-8.79,7.2-15.89,15.81-15.8Z"/><path class="cls-364" d="m101.44,4.48c8.73.09,16.12,6.63,16.12,15.36s-7.39,16.25-16.12,16.25-15.89-7.08-15.8-15.81c.08-8.79,7.19-15.89,15.8-15.8Z"/><path class="cls-359" d="m101.45,4.49c8.73.09,16.11,6.64,16.11,15.36s-7.38,16.25-16.11,16.25-15.88-7.08-15.8-15.81c.08-8.79,7.19-15.89,15.8-15.8Z"/><path class="cls-361" d="m101.45,4.5c8.73.09,16.11,6.64,16.11,15.37s-7.38,16.24-16.11,16.24-15.88-7.08-15.8-15.81c.08-8.79,7.19-15.89,15.8-15.8Z"/><path class="cls-358" d="m101.46,4.51c8.73.09,16.1,6.65,16.1,15.38s-7.38,16.23-16.1,16.23-15.88-7.08-15.8-15.81c.08-8.79,7.19-15.89,15.8-15.8Z"/><path class="cls-369" d="m101.47,4.52c8.73.09,16.1,6.66,16.1,15.39s-7.37,16.23-16.1,16.23-15.88-7.08-15.8-15.81c.08-8.79,7.19-15.89,15.8-15.8Z"/><path class="cls-370" d="m101.47,4.53c8.73.08,16.1,6.66,16.1,15.39s-7.37,16.22-16.1,16.22-15.88-7.08-15.8-15.81c.08-8.79,7.18-15.88,15.8-15.8Z"/><path class="cls-357" d="m101.48,4.54c8.73.08,16.09,6.67,16.09,15.4s-7.36,16.21-16.09,16.21-15.88-7.08-15.8-15.81c.07-8.78,7.18-15.88,15.8-15.8Z"/><path class="cls-371" d="m101.49,4.55c8.73.08,16.09,6.68,16.09,15.41s-7.36,16.2-16.09,16.2-15.88-7.08-15.8-15.81c.07-8.78,7.18-15.88,15.8-15.8Z"/><path class="cls-365" d="m101.49,4.56c8.73.08,16.08,6.68,16.08,15.41s-7.35,16.2-16.08,16.2-15.88-7.08-15.8-15.81c.07-8.78,7.18-15.88,15.8-15.8Z"/><path class="cls-367" d="m101.5,4.57c8.73.08,16.08,6.69,16.08,15.42s-7.35,16.19-16.08,16.19-15.87-7.08-15.8-15.81c.07-8.78,7.18-15.88,15.8-15.8Z"/><path class="cls-368" d="m101.51,4.59c8.73.08,16.07,6.7,16.07,15.43s-7.34,16.18-16.07,16.18-15.87-7.08-15.8-15.81c.07-8.78,7.18-15.88,15.8-15.8Z"/><path class="cls-374" d="m101.51,4.6c8.73.08,16.07,6.7,16.07,15.43s-7.34,16.18-16.07,16.18-15.87-7.08-15.8-15.81c.07-8.78,7.17-15.88,15.8-15.8Z"/><path class="cls-366" d="m101.52,4.61c8.73.07,16.06,6.71,16.06,15.44s-7.33,16.17-16.06,16.17-15.87-7.08-15.8-15.81c.07-8.78,7.17-15.88,15.8-15.8Z"/><path class="cls-372" d="m101.53,4.62c8.73.07,16.06,6.72,16.06,15.45s-7.33,16.16-16.06,16.16-15.87-7.08-15.8-15.81c.07-8.78,7.17-15.87,15.8-15.8Z"/><path class="cls-373" d="m101.54,4.63c8.73.07,16.05,6.73,16.05,15.45s-7.32,16.16-16.05,16.16-15.87-7.08-15.8-15.81c.06-8.78,7.17-15.87,15.8-15.8Z"/><path class="cls-239" d="m101.54,4.64c8.73.07,16.05,6.73,16.05,15.46s-7.32,16.15-16.05,16.15-15.87-7.08-15.8-15.81c.06-8.78,7.17-15.87,15.8-15.8Z"/><path class="cls-237" d="m101.55,4.65c8.73.07,16.04,6.74,16.04,15.47s-7.31,16.14-16.04,16.14-15.87-7.08-15.8-15.81c.06-8.77,7.16-15.87,15.8-15.8Z"/><path class="cls-238" d="m101.56,4.66c8.73.07,16.04,6.75,16.04,15.47s-7.31,16.14-16.04,16.14-15.86-7.08-15.8-15.81c.06-8.77,7.16-15.87,15.8-15.8Z"/><path class="cls-242" d="m101.56,4.67c8.73.07,16.03,6.75,16.03,15.48s-7.3,16.13-16.03,16.13-15.86-7.08-15.8-15.81c.06-8.77,7.16-15.87,15.8-15.8Z"/><path class="cls-241" d="m101.57,4.68c8.73.06,16.03,6.76,16.03,15.49s-7.3,16.12-16.03,16.12-15.86-7.08-15.8-15.81c.06-8.77,7.16-15.87,15.8-15.8Z"/><path class="cls-240" d="m101.58,4.69c8.73.06,16.02,6.77,16.02,15.5s-7.29,16.12-16.02,16.12-15.86-7.08-15.8-15.81c.06-8.77,7.16-15.86,15.8-15.8Z"/><path class="cls-245" d="m101.58,4.7c8.73.06,16.02,6.77,16.02,15.5s-7.29,16.11-16.02,16.11-15.86-7.08-15.8-15.81c.06-8.77,7.16-15.86,15.8-15.8Z"/><path class="cls-246" d="m101.59,4.71c8.73.06,16.01,6.78,16.01,15.51s-7.28,16.1-16.01,16.1-15.86-7.08-15.8-15.81c.05-8.77,7.15-15.86,15.8-15.8Z"/><path class="cls-244" d="m101.6,4.72c8.73.06,16.01,6.79,16.01,15.52s-7.28,16.09-16.01,16.09-15.86-7.08-15.8-15.81c.05-8.77,7.15-15.86,15.8-15.8Z"/><path class="cls-243" d="m101.6,4.73c8.73.06,16,6.79,16,15.52s-7.27,16.09-16,16.09-15.86-7.08-15.8-15.81c.05-8.77,7.15-15.86,15.8-15.8Z"/><path class="cls-250" d="m101.61,4.74c8.73.06,16,6.8,16,15.53s-7.27,16.08-16,16.08-15.85-7.08-15.8-15.81c.05-8.77,7.15-15.86,15.8-15.8Z"/><path class="cls-248" d="m101.62,4.75c8.73.05,15.99,6.81,15.99,15.54s-7.26,16.07-15.99,16.07-15.85-7.08-15.8-15.81c.05-8.77,7.15-15.86,15.8-15.8Z"/><path class="cls-249" d="m101.62,4.76c8.73.05,15.99,6.81,15.99,15.54s-7.26,16.07-15.99,16.07-15.85-7.08-15.8-15.81c.05-8.76,7.14-15.86,15.8-15.8Z"/><path class="cls-255" d="m101.63,4.77c8.73.05,15.98,6.82,15.98,15.55s-7.25,16.06-15.98,16.06-15.85-7.08-15.8-15.81c.05-8.76,7.14-15.85,15.8-15.8Z"/><path class="cls-247" d="m101.64,4.78c8.73.05,15.98,6.83,15.98,15.56s-7.25,16.05-15.98,16.05-15.85-7.08-15.8-15.81c.05-8.76,7.14-15.85,15.8-15.8Z"/><path class="cls-254" d="m101.65,4.79c8.73.05,15.97,6.84,15.97,15.56s-7.24,16.05-15.97,16.05-15.85-7.08-15.8-15.81c.04-8.76,7.14-15.85,15.8-15.8Z"/><path class="cls-232" d="m101.65,4.8c8.73.05,15.97,6.84,15.97,15.57s-7.24,16.04-15.97,16.04-15.85-7.08-15.8-15.81c.04-8.76,7.14-15.85,15.8-15.8Z"/><path class="cls-233" d="m101.66,4.81c8.73.05,15.96,6.85,15.96,15.58s-7.23,16.03-15.96,16.03-15.85-7.08-15.8-15.81c.04-8.76,7.14-15.85,15.8-15.8Z"/><path class="cls-230" d="m101.67,4.82c8.73.04,15.96,6.86,15.96,15.58s-7.23,16.03-15.96,16.03-15.84-7.08-15.8-15.81c.04-8.76,7.13-15.85,15.8-15.8Z"/><path class="cls-231" d="m101.67,4.83c8.73.04,15.95,6.86,15.95,15.59s-7.23,16.02-15.95,16.02-15.84-7.08-15.8-15.81c.04-8.76,7.13-15.85,15.8-15.8Z"/><path class="cls-236" d="m101.68,4.84c8.73.04,15.95,6.87,15.95,15.6s-7.22,16.01-15.95,16.01-15.84-7.08-15.8-15.81c.04-8.76,7.13-15.84,15.8-15.8Z"/><path class="cls-234" d="m101.69,4.85c8.73.04,15.95,6.88,15.95,15.61s-7.22,16.01-15.95,16.01-15.84-7.08-15.8-15.81c.04-8.76,7.13-15.84,15.8-15.8Z"/><path class="cls-235" d="m101.69,4.86c8.73.04,15.94,6.88,15.94,15.61s-7.21,16-15.94,16-15.84-7.08-15.8-15.81c.04-8.75,7.13-15.84,15.8-15.8Z"/><path class="cls-11" d="m101.7,4.87c8.73.04,15.94,6.89,15.94,15.62s-7.21,15.99-15.94,15.99-15.84-7.08-15.8-15.81c.03-8.75,7.12-15.84,15.8-15.8Z"/><path class="cls-12" d="m101.71,4.88c8.73.04,15.93,6.9,15.93,15.63s-7.2,15.98-15.93,15.98-15.84-7.08-15.8-15.81c.03-8.75,7.12-15.84,15.8-15.8Z"/><path class="cls-18" d="m101.71,4.89c8.73.03,15.93,6.9,15.93,15.63s-7.2,15.98-15.93,15.98-15.84-7.08-15.8-15.81c.03-8.75,7.12-15.84,15.8-15.8Z"/><path class="cls-20" d="m101.72,4.9c8.73.03,15.92,6.91,15.92,15.64s-7.19,15.97-15.92,15.97-15.83-7.08-15.8-15.81c.03-8.75,7.12-15.84,15.8-15.8Z"/><path class="cls-19" d="m101.73,4.91c8.73.03,15.92,6.92,15.92,15.65s-7.19,15.96-15.92,15.96-15.83-7.08-15.8-15.81c.03-8.75,7.12-15.84,15.8-15.8Z"/><path class="cls-21" d="m101.73,4.93c8.73.03,15.91,6.92,15.91,15.65s-7.18,15.96-15.91,15.96-15.83-7.08-15.8-15.81c.03-8.75,7.12-15.83,15.8-15.8Z"/><path class="cls-22" d="m101.74,4.94c8.73.03,15.91,6.93,15.91,15.66s-7.18,15.95-15.91,15.95-15.83-7.08-15.8-15.81c.03-8.75,7.11-15.83,15.8-15.8Z"/><path class="cls-23" d="m101.75,4.95c8.73.03,15.9,6.94,15.9,15.67s-7.17,15.94-15.9,15.94-15.83-7.08-15.8-15.81c.03-8.75,7.11-15.83,15.8-15.8Z"/><path class="cls-24" d="m101.76,4.96c8.73.03,15.9,6.95,15.9,15.67s-7.17,15.94-15.9,15.94-15.83-7.08-15.8-15.81c.02-8.75,7.11-15.83,15.8-15.8Z"/><path class="cls-7" d="m101.76,4.97c8.73.03,15.89,6.95,15.89,15.68s-7.16,15.93-15.89,15.93-15.83-7.08-15.8-15.81c.02-8.75,7.11-15.83,15.8-15.8Z"/><path class="cls-13" d="m101.77,4.98c8.73.02,15.89,6.96,15.89,15.69s-7.16,15.92-15.89,15.92-15.83-7.08-15.8-15.81c.02-8.74,7.11-15.83,15.8-15.8Z"/><path class="cls-14" d="m101.78,4.99c8.73.02,15.88,6.97,15.88,15.69s-7.15,15.92-15.88,15.92-15.82-7.08-15.8-15.81c.02-8.74,7.11-15.83,15.8-15.8Z"/><path class="cls-15" d="m101.78,5c8.73.02,15.88,6.97,15.88,15.7s-7.15,15.91-15.88,15.91-15.82-7.08-15.8-15.81c.02-8.74,7.1-15.82,15.8-15.8Z"/><path class="cls-16" d="m101.79,5.01c8.73.02,15.87,6.98,15.87,15.71s-7.14,15.9-15.87,15.9-15.82-7.08-15.8-15.81c.02-8.74,7.1-15.82,15.8-15.8Z"/><path class="cls-17" d="m101.8,5.02c8.73.02,15.87,6.99,15.87,15.72s-7.14,15.9-15.87,15.9-15.82-7.08-15.8-15.81c.02-8.74,7.1-15.82,15.8-15.8Z"/><path class="cls-4" d="m101.8,5.03c8.73.02,15.86,6.99,15.86,15.72s-7.13,15.89-15.86,15.89-15.82-7.08-15.8-15.81c.02-8.74,7.1-15.82,15.8-15.8Z"/><path class="cls-5" d="m101.81,5.04c8.73.02,15.86,7,15.86,15.73s-7.13,15.88-15.86,15.88-15.82-7.08-15.8-15.81c.01-8.74,7.1-15.82,15.8-15.8Z"/><path class="cls-6" d="m101.82,5.05c8.73.01,15.85,7.01,15.85,15.74s-7.12,15.87-15.85,15.87-15.82-7.08-15.8-15.81c.01-8.74,7.09-15.82,15.8-15.8Z"/><path class="cls-1" d="m101.82,5.06c8.73.01,15.85,7.01,15.85,15.74s-7.12,15.87-15.85,15.87-15.82-7.08-15.8-15.81c.01-8.74,7.09-15.82,15.8-15.8Z"/><path class="cls-10" d="m101.83,5.07c8.73.01,15.84,7.02,15.84,15.75s-7.11,15.86-15.84,15.86-15.81-7.08-15.8-15.81c.01-8.74,7.09-15.82,15.8-15.8Z"/><path class="cls-2" d="m101.84,5.08c8.73,0,15.84,7.03,15.84,15.76s-7.11,15.85-15.84,15.85-15.81-7.08-15.8-15.81c0-8.74,7.09-15.81,15.8-15.8Z"/><path class="cls-8" d="m101.84,5.09c8.73,0,15.83,7.03,15.83,15.76s-7.1,15.85-15.83,15.85-15.81-7.08-15.8-15.81c0-8.73,7.09-15.81,15.8-15.8Z"/><path class="cls-9" d="m101.85,5.1c8.73,0,15.83,7.04,15.83,15.77s-7.1,15.84-15.83,15.84-15.81-7.08-15.8-15.81c0-8.73,7.09-15.81,15.8-15.8Z"/><path class="cls-256" d="m101.86,5.11c8.73,0,15.82,7.05,15.82,15.78s-7.09,15.83-15.82,15.83-15.81-7.08-15.8-15.81c0-8.73,7.08-15.81,15.8-15.8Z"/><path class="cls-260" d="m101.87,5.12c8.73,0,15.82,7.06,15.82,15.78s-7.09,15.83-15.82,15.83-15.81-7.08-15.8-15.81c0-8.73,7.08-15.81,15.8-15.8Z"/><path class="cls-259" d="m101.87,5.13c8.73,0,15.81,7.06,15.81,15.79s-7.08,15.82-15.81,15.82-15.81-7.08-15.8-15.81c0-8.73,7.08-15.81,15.8-15.8Z"/><path class="cls-261" d="m101.88,5.14c8.73,0,15.81,7.07,15.81,15.8s-7.08,15.81-15.81,15.81-15.81-7.08-15.8-15.81c0-8.73,7.08-15.81,15.8-15.8Z"/><path class="cls-257" d="m117.69,20.96c0,8.73-7.08,15.81-15.8,15.81s-15.8-7.08-15.8-15.81,7.08-15.8,15.8-15.8,15.8,7.08,15.8,15.8Z"/></g></g></g></g></g></g></g></svg>