<svg width="107" height="32" viewBox="0 0 107 32" fill="none" xmlns="http://www.w3.org/2000/svg">
<path d="M1.62744 5.31913V6.11719H1.62762C2.00743 5.84388 2.54611 5.66352 3.32694 5.64948L29.2905 5.69284C30.4114 5.63082 31.2796 5.16578 31.2796 4.60015C31.2796 4.22414 30.9252 3.91476 30.4684 3.8714L30.4694 3.86749L4.24075 2.64598C1.93477 2.68436 1.62744 4.08145 1.62744 5.31913Z" fill="url(#paint0_linear_1978_37475)"/>
<path d="M1.47144 4.76968V5.36328C1.47144 4.14153 1.77965 2.76318 4.09226 2.7253L30.3964 3.93074L30.3957 3.9346C30.7062 3.97739 31.0939 4.17467 31.1258 4.51786H31.8639C31.8596 4.37616 31.8374 4.22623 31.7799 4.10225C31.7046 3.91303 31.5636 3.75678 31.3162 3.61825C31.1818 3.53127 31.0303 3.46445 30.8638 3.42166C30.6968 3.3687 30.5415 3.33626 30.4339 3.33626L4.09226 2.13187C1.77965 2.16957 1.63705 3.76485 1.47144 4.76968Z" fill="url(#paint1_linear_1978_37475)"/>
<path d="M26.6617 23.3242L1.33984 17.2902L5.52446 0.000965118L30.8463 6.03299" fill="#0066CC"/>
<path d="M30.4552 6.31979L5.64391 0.399769L1.60156 17.1356L26.4118 23.0566" fill="#BAD6F2"/>
<path d="M3.03857 15.6273L25.5789 21.0039L28.9624 7.0054L6.42086 1.62717L3.03857 15.6273Z" fill="url(#paint2_linear_1978_37475)"/>
<path d="M6.44649 4.33277L4.34013 13.0765C4.32707 13.1294 4.3208 13.1822 4.3208 13.2337C4.32028 13.4815 4.46146 13.6985 4.67662 13.7499L24.8171 18.5669C25.0768 18.6289 25.351 18.4279 25.4245 18.1199L27.5317 9.37632C27.5444 9.32338 27.5507 9.27062 27.5508 9.21911C27.551 8.97136 27.4095 8.75481 27.1936 8.70258L7.05472 3.88682C7.02286 3.87844 6.99014 3.87541 6.95811 3.87541C6.72937 3.87541 6.51124 4.06452 6.44649 4.33277Z" fill="url(#paint3_linear_1978_37475)"/>
<path d="M7.7001 2.40239L8.1581 2.52089L7.88393 3.61423L7.29658 3.4623L7.26855 3.56989L9.2797 4.08984L9.30616 3.98135L8.75868 3.84032L9.1037 2.45819L8.88506 2.40239C8.75223 2.41984 8.58024 2.41729 8.36613 2.3924C8.1534 2.36495 7.94259 2.32479 7.73213 2.27136L7.7001 2.40239Z" fill="url(#paint4_linear_1978_37475)"/>
<path fill-rule="evenodd" clip-rule="evenodd" d="M9.34808 3.99719L9.36601 3.927L8.90452 3.81114L9.23388 2.5276L9.14458 2.50557L9.16199 2.43858L8.8758 2.36678C8.73584 2.38473 8.56002 2.37905 8.3466 2.35452C8.13544 2.32769 7.91436 2.28682 7.68475 2.228L7.63844 2.40677L7.72792 2.4288L7.71034 2.49811L8.08269 2.593L7.83985 3.54263L7.25077 3.39407L7.21143 3.54992L7.29794 3.57124L7.28036 3.64143L9.39682 4.17578L9.4379 4.01923L9.34808 3.99719ZM9.30566 3.93887L9.27937 4.04496L7.26823 3.53656L7.29608 3.43118L7.8836 3.57974L8.15778 2.51087L7.69977 2.39501L7.73163 2.26688C7.94209 2.31913 8.1529 2.35822 8.36563 2.38523C8.57992 2.40958 8.75173 2.41206 8.88543 2.39501L9.10442 2.44885L8.75818 3.80009L9.30566 3.93887Z" fill="#FFFFF7"/>
<path fill-rule="evenodd" clip-rule="evenodd" d="M9.85773 3.13369C9.95347 3.05572 10.0676 3.0034 10.2062 2.9762C10.2875 2.96112 10.376 2.95402 10.4716 2.95402C10.538 2.95402 10.6086 2.95731 10.6816 2.96442C10.8616 2.98503 11.0571 3.02003 11.2657 3.07114C11.4791 3.12347 11.6704 3.18168 11.84 3.24527C12.0078 3.31197 12.1482 3.38942 12.2602 3.47449C12.3715 3.56164 12.4459 3.66143 12.4895 3.77267C12.5131 3.834 12.525 3.89915 12.5248 3.9688C12.5245 4.02649 12.516 4.0873 12.4995 4.15141C12.461 4.29435 12.3939 4.40367 12.2998 4.48147C12.2065 4.55961 12.0915 4.6128 11.9502 4.63601C11.9034 4.6452 11.8539 4.65143 11.8024 4.65559C11.6994 4.66339 11.5874 4.66131 11.4667 4.64849C11.2859 4.62804 11.088 4.59287 10.8746 4.54124C10.6664 4.48961 10.4772 4.4314 10.3085 4.36937C10.1414 4.30162 10.0059 4.2247 9.89747 4.1379C9.78778 4.05438 9.71306 3.95389 9.67031 3.84266C9.64629 3.7815 9.6341 3.71636 9.63428 3.64619C9.63446 3.58797 9.64311 3.52647 9.66025 3.46167C9.69875 3.32167 9.76499 3.2127 9.85773 3.13369ZM10.7659 4.3555C10.8122 4.38011 10.8594 4.40022 10.9089 4.41218C10.9575 4.42483 11.007 4.42969 11.0565 4.42969H11.0736C11.1256 4.42813 11.1796 4.41045 11.2319 4.37543C11.2786 4.34441 11.3267 4.28877 11.3724 4.21544C11.415 4.13987 11.4541 4.03986 11.4891 3.90673C11.523 3.78124 11.5398 3.67828 11.5398 3.5956C11.5398 3.59022 11.5396 3.58468 11.5393 3.57948C11.5359 3.49194 11.5225 3.4259 11.4946 3.37182C11.4679 3.31982 11.4311 3.28186 11.385 3.25638C11.3382 3.2302 11.2869 3.21166 11.2327 3.19831C11.1823 3.18722 11.1312 3.18063 11.0784 3.18167C11.0298 3.18392 10.9778 3.20056 10.9275 3.23488C10.8805 3.27076 10.835 3.32242 10.791 3.39817C10.7449 3.47131 10.7069 3.5748 10.6702 3.70774C10.6394 3.82735 10.6219 3.92615 10.6212 4.00883C10.6212 4.01471 10.6214 4.02044 10.6215 4.02606C10.6216 4.02871 10.6217 4.03135 10.6217 4.03396C10.6232 4.11855 10.6368 4.18684 10.6613 4.23694C10.6873 4.29033 10.723 4.33019 10.7659 4.3555Z" fill="url(#paint5_linear_1978_37475)"/>
<path fill-rule="evenodd" clip-rule="evenodd" d="M13.235 3.93374C13.3285 3.85195 13.4452 3.79616 13.5825 3.76835C13.6641 3.7529 13.754 3.74436 13.8522 3.74436C13.9172 3.74436 13.9861 3.74745 14.0585 3.75527C14.2367 3.77617 14.4312 3.8127 14.6413 3.86685C14.855 3.9212 15.0431 3.98226 15.2157 4.04896C15.3819 4.12002 15.5223 4.1998 15.6329 4.28922C15.7447 4.38009 15.8226 4.48622 15.8654 4.60308C15.8889 4.66742 15.9009 4.73575 15.9009 4.80863C15.9009 4.86897 15.8924 4.93258 15.8756 4.99946C15.8371 5.15066 15.7721 5.2648 15.6758 5.34676C15.5842 5.42854 15.4647 5.48343 15.3245 5.50851C15.2008 5.53323 15.0624 5.53886 14.9101 5.52777C14.9036 5.52741 14.8965 5.52686 14.8898 5.52632L14.8757 5.52505L14.8747 5.52498C14.87 5.52464 14.8651 5.52427 14.8603 5.52359L14.8421 5.52196C14.6586 5.50015 14.4637 5.46271 14.2523 5.40746C14.0396 5.35421 13.8504 5.29406 13.6844 5.22736C13.5155 5.15702 13.3792 5.07779 13.2732 4.98601C13.1654 4.89768 13.0891 4.795 13.0458 4.67632C13.0213 4.61435 13.0091 4.54802 13.0093 4.47677C13.0093 4.41389 13.0188 4.34719 13.0379 4.27595C13.0736 4.12892 13.1386 4.01552 13.235 3.93374ZM14.1424 5.21338C14.1853 5.23847 14.2316 5.2612 14.2843 5.27338C14.3323 5.28592 14.3795 5.29102 14.4272 5.29102H14.4476C14.502 5.28938 14.5539 5.27029 14.6057 5.23265C14.6563 5.20083 14.7024 5.14338 14.7446 5.06719C14.7883 4.98647 14.8298 4.88101 14.8653 4.74155C14.8978 4.6161 14.9127 4.50919 14.9129 4.42464V4.42463C14.9129 4.41591 14.9129 4.40755 14.9125 4.39919C14.9118 4.30737 14.8978 4.23718 14.8706 4.18209C14.8434 4.12645 14.8079 4.087 14.7582 4.05864C14.7137 4.03373 14.6624 4.01445 14.6073 3.99954C14.6029 3.99827 14.5987 3.99718 14.5942 3.99627C14.5938 3.99616 14.5934 3.99607 14.593 3.99598C14.5922 3.99578 14.5915 3.99561 14.5909 3.99536L14.5866 3.99445C14.5852 3.99409 14.5838 3.99391 14.5824 3.99373L14.5767 3.99227L14.5741 3.99173C14.534 3.98354 14.4946 3.97991 14.4548 3.98173C14.4013 3.98445 14.3534 4.00263 14.3039 4.037C14.2544 4.07354 14.2099 4.12955 14.1636 4.209C14.1224 4.28591 14.0823 4.39355 14.0468 4.53282C14.0121 4.66883 13.995 4.77755 13.9948 4.86665V4.87519C13.9998 4.96374 14.0093 5.03628 14.037 5.08901C14.0637 5.1452 14.0969 5.18683 14.1424 5.21338Z" fill="url(#paint6_linear_1978_37475)"/>
<path fill-rule="evenodd" clip-rule="evenodd" d="M14.1256 5.13333C14.1678 5.15804 14.2144 5.18009 14.2655 5.19218C14.3198 5.20622 14.3726 5.21013 14.4255 5.20871C14.4798 5.20782 14.531 5.18898 14.5821 5.15307C14.6319 5.12124 14.6775 5.06506 14.7191 4.99057C14.7622 4.91146 14.8022 4.80942 14.8383 4.67217C14.8734 4.5367 14.8877 4.4231 14.8844 4.33741C14.8837 4.24781 14.8701 4.1783 14.8431 4.12532C14.8165 4.07056 14.7806 4.03145 14.7334 4.00532C14.6885 3.97989 14.6382 3.96105 14.5847 3.94736C14.5326 3.93332 14.4832 3.92692 14.4333 3.9294C14.3807 3.93172 14.3336 3.94985 14.2846 3.98327C14.2358 4.01901 14.192 4.07376 14.1463 4.15145C14.1058 4.22647 14.0664 4.3319 14.0312 4.46914C13.996 4.60515 13.9791 4.71395 13.98 4.80284C13.9851 4.88942 13.9945 4.96035 14.0218 5.01173C14.0481 5.06666 14.0807 5.10649 14.1256 5.13333ZM14.3857 4.10279C14.4291 4.0683 14.4714 4.05194 14.514 4.04874C14.5602 4.04874 14.6034 4.05283 14.649 4.06439C14.6726 4.06936 14.6927 4.07691 14.7144 4.08503C14.7207 4.08736 14.727 4.08974 14.7337 4.09212C14.7593 4.10421 14.7835 4.11737 14.8033 4.13283C14.828 4.1835 14.8361 4.24875 14.8361 4.33444C14.8345 4.41693 14.8176 4.52555 14.7835 4.65871C14.7505 4.79417 14.7128 4.89267 14.673 4.96964C14.6337 5.04147 14.5947 5.09782 14.5482 5.13036C14.5048 5.16378 14.4594 5.18174 14.4148 5.18351C14.365 5.18422 14.3204 5.18031 14.2723 5.16716C14.2451 5.16076 14.2178 5.15098 14.1938 5.14191C14.1706 5.13302 14.1507 5.11987 14.1333 5.10511C14.1109 5.05622 14.0982 4.9908 14.1004 4.90422C14.1004 4.82191 14.1203 4.71151 14.1548 4.57462C14.1892 4.44057 14.2251 4.33692 14.265 4.26101C14.3044 4.18848 14.3456 4.13603 14.3857 4.10279Z" fill="#FFFFF7"/>
<path fill-rule="evenodd" clip-rule="evenodd" d="M14.6241 3.79087C14.4098 3.73863 14.2124 3.70025 14.0308 3.67981C13.8503 3.66115 13.688 3.66435 13.5425 3.69456C13.4008 3.72228 13.28 3.7747 13.1829 3.85609C13.0859 3.93943 13.0189 4.056 12.9813 4.20296C12.9487 4.32948 12.9444 4.44375 12.974 4.54575C13.003 4.64775 13.054 4.74068 13.1292 4.82563C13.2234 4.96423 13.3716 5.08436 13.5735 5.18707C13.778 5.28516 14.0188 5.36992 14.2968 5.43923C14.509 5.49396 14.7071 5.53056 14.8918 5.55189C15.0756 5.57232 15.2427 5.56717 15.3874 5.54123C15.5336 5.51262 15.6536 5.45717 15.7517 5.37721C15.8494 5.29564 15.9173 5.17978 15.9551 5.02874C15.9861 4.90559 15.9902 4.79222 15.9629 4.68862C15.9366 4.58733 15.8823 4.4951 15.8038 4.40856C15.7079 4.26764 15.5576 4.14503 15.3507 4.04712C15.1435 3.94672 14.9012 3.86106 14.6241 3.79087ZM14.0424 3.70676C14.2182 3.72791 14.4093 3.76309 14.6179 3.81605C14.828 3.86918 15.0137 3.928 15.1829 3.99392C15.3467 4.06341 15.4844 4.14159 15.5939 4.22902C15.7033 4.31787 15.7811 4.42147 15.8232 4.53591C15.8655 4.65089 15.8699 4.77901 15.833 4.9233C15.7954 5.07115 15.7306 5.18292 15.6369 5.26218C15.5459 5.34374 15.4284 5.3967 15.2902 5.42122C15.1504 5.44823 14.9913 5.45303 14.8146 5.43419C14.6337 5.41233 14.4419 5.37626 14.2333 5.32259C14.0239 5.27017 13.8385 5.21153 13.6738 5.14614C13.5083 5.07772 13.373 5.00007 13.2686 4.91051C13.1622 4.82397 13.0872 4.72356 13.0445 4.6077C13 4.49344 12.9958 4.36443 13.0358 4.21605C13.0719 4.07158 13.1359 3.96123 13.2303 3.88144C13.3231 3.80147 13.4371 3.74674 13.5731 3.71902C13.7064 3.6945 13.8625 3.6881 14.0424 3.70676Z" fill="#FFFFF7"/>
<path d="M26.7079 23.0312L1.13892 18.1063L4.59161 0.617828L30.1597 5.54156" fill="#0066CC"/>
<path d="M29.8666 5.77782L4.77512 0.947021L1.43262 17.8721L26.5251 22.7012" fill="#BAD6F2"/>
<path d="M28.2817 6.54999L5.57374 2.17873L2.78882 16.2827L25.4968 20.6543" fill="#0066CC"/>
<mask id="mask0_1978_37475" style="mask-type:luminance" maskUnits="userSpaceOnUse" x="4" y="4" width="24" height="15">
<path fill-rule="evenodd" clip-rule="evenodd" d="M4.05957 18.3887L27.0569 18.3887V4.57628L4.05957 4.57628L4.05957 18.3887Z" fill="white"/>
</mask>
<g mask="url(#mask0_1978_37475)">
<mask id="mask1_1978_37475" style="mask-type:luminance" maskUnits="userSpaceOnUse" x="4" y="4" width="24" height="15">
<path fill-rule="evenodd" clip-rule="evenodd" d="M4.05957 4.57558L27.0566 4.57558V18.3887L4.05957 18.3887L4.05957 4.57558Z" fill="white"/>
</mask>
<g mask="url(#mask1_1978_37475)">
<mask id="mask2_1978_37475" style="mask-type:luminance" maskUnits="userSpaceOnUse" x="4" y="4" width="24" height="15">
<path fill-rule="evenodd" clip-rule="evenodd" d="M4.05957 18.3867L27.056 18.3867V4.57433L4.05957 4.57433L4.05957 18.3867Z" fill="white"/>
</mask>
<g mask="url(#mask2_1978_37475)">
<path d="M27.0433 9.13613C27.1048 8.82614 26.9405 8.53174 26.6788 8.48125L6.39356 4.5819C6.13085 4.53053 5.86692 4.74363 5.80559 5.05114L4.07258 13.8255C4.0109 14.1339 4.17457 14.4281 4.43624 14.4788L24.7223 18.379C24.9858 18.4304 25.249 18.2182 25.3096 17.9091" fill="#0059B1"/>
</g>
</g>
</g>
<path d="M31.1532 4.41903C31.1555 4.43446 31.1597 4.44953 31.1597 4.46586C31.1597 5.0353 30.0617 5.61103 29.2469 5.66126L3.28146 5.61749C2.50057 5.63166 1.96167 5.81376 1.58183 6.08969V6.09059C0.794688 6.65735 0.690036 7.62365 0.576172 8.31563L0.576172 8.92383C0.576172 8.06769 0.724457 7.14014 1.58183 6.62756C1.97801 6.38536 2.52526 6.26713 3.28319 6.25529L28.7491 6.2874C29.6676 6.25044 30.4812 6.0156 31.0526 5.66288C31.4062 5.44543 31.6642 5.1817 31.7935 4.88944C31.8533 4.75345 31.89 4.6092 31.89 4.46334C31.89 4.44774 31.8893 4.43374 31.8893 4.41903H31.1532Z" fill="url(#paint7_linear_1978_37475)"/>
<path d="M31.0534 5.60618C30.5467 5.91766 29.8473 6.13516 29.0522 6.20618L3.28229 6.16293C2.5254 6.17503 1.97885 6.32312 1.58267 6.56322C0.725295 7.07173 0.57701 7.99193 0.57701 8.84129L0.566406 29.1552L0.566406 29.7566C0.574577 30.6161 1.28662 31.8134 2.48542 31.9108L30.0612 31.9414C30.9552 31.9108 31.7839 31.4859 31.8541 30.4337V29.8308L31.8653 6.97847L31.8813 4.56834C31.7559 5.01224 31.407 5.39046 31.0534 5.60618Z" fill="url(#paint8_linear_1978_37475)"/>
<mask id="mask3_1978_37475" style="mask-type:luminance" maskUnits="userSpaceOnUse" x="1" y="5" width="31" height="27">
<path fill-rule="evenodd" clip-rule="evenodd" d="M1.05664 31.3438L31.9584 31.3437L31.9584 5.74433L1.05664 5.74433L1.05664 31.3438Z" fill="white"/>
</mask>
<g mask="url(#mask3_1978_37475)">
<mask id="mask4_1978_37475" style="mask-type:luminance" maskUnits="userSpaceOnUse" x="0" y="5" width="33" height="27">
<path fill-rule="evenodd" clip-rule="evenodd" d="M0.654785 5.57393L32.102 5.57393V31.7637L0.654785 31.7637L0.654785 5.57393Z" fill="white"/>
</mask>
<g mask="url(#mask4_1978_37475)">
<g opacity="0.800003">
<path d="M31.4065 30.5643C31.296 30.5645 31.0194 30.7435 30.9074 30.7954C30.7986 30.8474 30.7247 30.9403 30.7244 31.0198C30.7242 31.0337 30.7261 31.0474 30.7306 31.06C30.731 31.0607 30.7313 31.0616 30.7315 31.0623C30.7507 31.1106 30.8031 31.1371 30.8691 31.1386C30.8712 31.1389 30.8735 31.1389 30.8755 31.1389C30.8769 31.1389 30.8783 31.1389 30.8799 31.1386C30.917 31.1382 30.9574 31.1302 30.9987 31.1142C31.0032 31.1126 31.0074 31.1106 31.0117 31.1089C31.013 31.1083 31.0137 31.108 31.0147 31.1074C31.0175 31.1064 31.0203 31.105 31.0231 31.1035L31.3463 30.9071C31.4241 30.8461 31.4715 30.74 31.4713 30.6602C31.4713 30.625 31.4621 30.5949 31.4424 30.5757C31.4384 30.572 31.4334 30.569 31.4274 30.567C31.4214 30.5652 31.4144 30.5643 31.4067 30.5643H31.4065Z" fill="url(#paint9_linear_1978_37475)"/>
<path d="M29.6863 31.0175H29.6827H29.6795C29.54 31.0188 29.4265 31.0902 29.4258 31.1784C29.4258 31.2682 29.5432 31.3445 29.6854 31.3457L30.0031 31.3377C30.1435 31.3377 30.2553 31.2662 30.2553 31.1797C30.2553 31.1777 30.2553 31.1754 30.2549 31.1734C30.2494 31.0828 30.1276 31.0095 29.9845 31.0095L29.6863 31.0175Z" fill="url(#paint10_linear_1978_37475)"/>
<path d="M28.4524 31.014H28.4505C28.3089 31.014 28.1919 31.087 28.1919 31.1774C28.1919 31.2687 28.3084 31.3418 28.4509 31.3418H28.7603C28.9025 31.3418 29.0209 31.2687 29.0209 31.1784C29.0209 31.0886 28.9033 31.014 28.7603 31.014H28.4524Z" fill="url(#paint11_linear_1978_37475)"/>
<path d="M27.2196 31.0115H27.2142C27.1536 31.0115 27.0981 31.0252 27.0542 31.0479C27.0091 31.0712 26.9765 31.1043 26.9641 31.1418C26.9607 31.1523 26.9589 31.1633 26.9587 31.1745C26.958 31.2646 27.0749 31.3398 27.2181 31.3398H27.5267C27.6707 31.3398 27.7867 31.2668 27.7874 31.1745C27.7883 31.0847 27.6716 31.0115 27.5282 31.0115H27.2196Z" fill="url(#paint12_linear_1978_37475)"/>
<path d="M25.9863 31.0099H25.9823C25.9286 31.0099 25.8786 31.0204 25.8374 31.0385C25.7738 31.0664 25.7306 31.1118 25.7254 31.1628C25.7252 31.1647 25.725 31.1667 25.725 31.1686C25.7249 31.1702 25.7249 31.1717 25.7249 31.1731C25.7242 31.2629 25.84 31.3379 25.9842 31.3379H26.2921H26.294C26.2978 31.3379 26.3017 31.3379 26.3055 31.3377C26.4431 31.334 26.5526 31.262 26.5533 31.1747V31.1726C26.5525 31.0826 26.4363 31.0099 26.2942 31.0099H25.9863Z" fill="url(#paint13_linear_1978_37475)"/>
<path d="M24.7528 31.0097C24.6088 31.0097 24.4912 31.083 24.4895 31.174C24.4895 31.2638 24.6058 31.3379 24.7506 31.3379H25.0573C25.2006 31.3379 25.318 31.2643 25.318 31.174V31.172C25.3173 31.084 25.2025 31.0097 25.06 31.0097H24.7528Z" fill="url(#paint14_linear_1978_37475)"/>
<path d="M23.5186 31.0075C23.3755 31.0075 23.2569 31.0825 23.2563 31.1716V31.1737C23.257 31.2637 23.3732 31.3357 23.5146 31.3357H23.8231C23.9664 31.3357 24.0848 31.2624 24.0848 31.1732V31.1711C24.0845 31.0815 23.9685 31.0088 23.8264 31.0075H23.5186Z" fill="url(#paint15_linear_1978_37475)"/>
<path d="M22.2869 31.0078C22.1426 31.0078 22.025 31.0814 22.0234 31.172C22.0227 31.2614 22.1396 31.3359 22.2819 31.3359H22.5908C22.7328 31.3359 22.8519 31.2614 22.853 31.1726V31.1704C22.8528 31.081 22.7366 31.0078 22.5936 31.0078H22.2869Z" fill="url(#paint16_linear_1978_37475)"/>
<path d="M21.0525 31.0054C20.9093 31.0054 20.7925 31.0796 20.79 31.1697C20.7897 31.2597 20.9055 31.334 21.0476 31.334H21.3564C21.5003 31.334 21.6182 31.2607 21.6182 31.1697V31.1676C21.6185 31.0783 21.5023 31.0054 21.3613 31.0054H21.0525Z" fill="url(#paint17_linear_1978_37475)"/>
<path d="M19.8162 31.003C19.7431 31.003 19.676 31.023 19.6281 31.0549C19.6264 31.0559 19.6246 31.0574 19.6229 31.0588C19.5935 31.0794 19.5724 31.1045 19.5621 31.132C19.5621 31.1322 19.5619 31.1326 19.5619 31.1327C19.5614 31.1343 19.5607 31.1361 19.5602 31.1379C19.5574 31.1473 19.5558 31.1567 19.5557 31.1665V31.1687C19.5558 31.2579 19.6717 31.3311 19.8136 31.3311L20.1218 31.332C20.2657 31.332 20.3833 31.259 20.3848 31.1678V31.1656C20.3847 31.0769 20.2695 31.0038 20.1281 31.0038L19.8179 31.003H19.8162Z" fill="url(#paint18_linear_1978_37475)"/>
<path d="M18.585 31.0033C18.4436 31.0033 18.3252 31.0776 18.3228 31.1674V31.1695C18.3231 31.2575 18.4387 31.3313 18.5802 31.3313L18.8886 31.332C19.0319 31.332 19.1498 31.2577 19.1514 31.1674V31.1655C19.1521 31.0764 19.0358 31.0033 18.8945 31.0033H18.585Z" fill="url(#paint19_linear_1978_37475)"/>
<path d="M17.3538 31.0019C17.2101 31.0019 17.0906 31.0751 17.0889 31.1658V31.1679C17.089 31.2561 17.2045 31.3288 17.3456 31.3288L17.6545 31.3301C17.7982 31.3301 17.9168 31.2556 17.9186 31.1658C17.9191 31.0751 17.8041 31.0019 17.661 31.0019H17.3538Z" fill="url(#paint20_linear_1978_37475)"/>
<path d="M15.8555 31.1653V31.1672C15.8555 31.2554 15.9701 31.3294 16.1124 31.3294L16.4211 31.3301C16.5643 31.3301 16.6817 31.2563 16.6839 31.1662V31.164C16.6838 31.0743 16.5692 31.0017 16.4276 31.0017L16.1197 31.0014C15.9762 31.0014 15.857 31.075 15.8555 31.1653" fill="url(#paint21_linear_1978_37475)"/>
<path d="M14.8856 31.0008C14.7418 31.0008 14.6235 31.073 14.6211 31.1642V31.1663C14.6214 31.2551 14.7364 31.3278 14.8785 31.3278L15.1862 31.3281H15.1881C15.1927 31.3281 15.197 31.3281 15.2014 31.3279C15.3386 31.3235 15.4482 31.2511 15.4503 31.1647V31.1626C15.4499 31.0719 15.3365 31.0008 15.1934 31.0008H14.8856Z" fill="url(#paint22_linear_1978_37475)"/>
<path d="M13.6531 30.9976C13.5084 30.9976 13.3899 31.0709 13.3882 31.1607V31.163C13.3877 31.2527 13.5005 31.3246 13.6444 31.3262H13.9521C14.0953 31.3262 14.2135 31.2524 14.2161 31.1626C14.2163 31.1615 14.2163 31.161 14.2163 31.1601C14.2167 31.0696 14.1021 30.9976 13.9594 30.9976H13.6531Z" fill="url(#paint23_linear_1978_37475)"/>
<path d="M12.4195 30.9966H12.4164C12.2752 30.9966 12.1585 31.0703 12.1555 31.1601V31.1621C12.1547 31.251 12.2692 31.3242 12.4105 31.3242H12.7193C12.8633 31.3242 12.9815 31.2506 12.9842 31.161V31.1589C12.9847 31.07 12.8694 30.9966 12.728 30.9966H12.4195Z" fill="url(#paint24_linear_1978_37475)"/>
<path d="M11.1856 30.9964C11.0407 30.9964 10.9233 31.0687 10.9202 31.1605V31.1624C10.9195 31.2512 11.0341 31.3242 11.1762 31.3242H11.4846C11.6271 31.3242 11.7469 31.2506 11.7495 31.161V31.1589C11.7493 31.0695 11.6349 30.9964 11.4944 30.9964H11.1856Z" fill="url(#paint25_linear_1978_37475)"/>
<path d="M9.95097 30.9943C9.80955 30.9943 9.68851 31.0672 9.68555 31.1584V31.1605C9.68485 31.2497 9.79927 31.3223 9.94139 31.3223H10.2502C10.3933 31.3223 10.5126 31.2494 10.5142 31.1596C10.5144 31.1582 10.5144 31.1568 10.5144 31.1553C10.5144 31.0663 10.4013 30.9943 10.2597 30.9943H9.95097Z" fill="url(#paint26_linear_1978_37475)"/>
<path d="M8.4533 31.1569C8.45313 31.1576 8.45313 31.1584 8.45313 31.1591C8.4526 31.2485 8.56685 31.3217 8.70774 31.3217L9.01618 31.3223C9.15951 31.3223 9.27846 31.2474 9.28246 31.1584V31.1562C9.28333 31.0659 9.16874 30.9943 9.02663 30.9943L8.71767 30.993C8.57556 30.993 8.45644 31.0664 8.4533 31.1569Z" fill="url(#paint27_linear_1978_37475)"/>
<path d="M7.48476 30.9914C7.3423 30.9914 7.2223 31.0641 7.219 31.1553V31.1575C7.21847 31.2464 7.33255 31.3184 7.47344 31.3184H7.78257H7.78779H7.7911C7.93043 31.3169 8.04624 31.2437 8.04781 31.1553V31.1511C8.04729 31.0632 7.93443 30.9921 7.79302 30.9914H7.48476Z" fill="url(#paint28_linear_1978_37475)"/>
<path d="M6.25181 30.9893C6.10883 30.9893 5.98866 31.0636 5.98535 31.1528V31.155C5.98483 31.2444 6.09838 31.3173 6.24136 31.3173L6.54875 31.3184C6.69156 31.3184 6.81155 31.2446 6.81399 31.1537C6.81399 31.1525 6.81399 31.1511 6.81399 31.1496C6.81382 31.062 6.70062 30.9898 6.55972 30.9893H6.25181Z" fill="url(#paint29_linear_1978_37475)"/>
<path d="M5.01842 30.9877C4.87508 30.9877 4.75613 31.0608 4.75195 31.1525V31.1566C4.75143 31.2437 4.86446 31.3159 5.0064 31.3159L5.31413 31.3164C5.45729 31.3164 5.57641 31.2426 5.57972 31.1525V31.1484C5.58007 31.0609 5.46704 30.9882 5.3265 30.9877H5.01842Z" fill="url(#paint30_linear_1978_37475)"/>
<path d="M3.78616 30.9882H3.78442C3.64022 30.9882 3.52162 31.0611 3.51848 31.1516C3.51831 31.1528 3.51831 31.1541 3.51831 31.1557C3.51866 31.243 3.63169 31.3145 3.77258 31.3145L4.08049 31.3164C4.22365 31.3164 4.34434 31.2419 4.34765 31.1521V31.1479C4.34834 31.0592 4.23497 30.9882 4.09338 30.9882H3.78616Z" fill="url(#paint31_linear_1978_37475)"/>
<path d="M2.31541 30.9051C2.30636 30.9209 2.302 30.9381 2.302 30.9559C2.302 31.0256 2.3687 31.1033 2.47372 31.1467L2.85042 31.2635C2.85321 31.264 2.856 31.2646 2.85878 31.2651C2.87254 31.2676 2.88612 31.2694 2.89954 31.2704C2.90824 31.2711 2.91678 31.2715 2.92531 31.2715H2.92757H2.93245C3.03398 31.2701 3.10939 31.2238 3.1127 31.1527C3.11288 31.1518 3.11288 31.1511 3.1127 31.1504C3.11061 31.0587 2.76125 30.9111 2.63273 30.8583C2.58501 30.8391 2.5352 30.8301 2.48957 30.8301C2.4112 30.8301 2.34363 30.8567 2.31541 30.9051Z" fill="url(#paint32_linear_1978_37475)"/>
<path d="M1.50965 29.997C1.49711 29.9988 1.48492 30.0029 1.47394 30.0089C1.43232 30.0306 1.4116 30.0757 1.41212 30.1309C1.41282 30.1828 1.43215 30.2432 1.47081 30.3012L1.69721 30.5997C1.6993 30.6018 1.70122 30.6037 1.70296 30.6057C1.7573 30.6606 1.82017 30.6932 1.8752 30.7001C1.88217 30.7008 1.88914 30.7012 1.89575 30.7012H1.89906C1.93146 30.7006 1.95984 30.69 1.98057 30.6686C1.98179 30.6676 1.98283 30.6665 1.9837 30.6653C1.99119 30.6567 1.9945 30.6441 1.99467 30.6283C1.99502 30.5175 1.83219 30.2525 1.76357 30.1477C1.75782 30.139 1.75173 30.1305 1.74546 30.1223C1.6845 30.0436 1.60091 29.9952 1.53159 29.9952C1.5241 29.9952 1.51679 29.9957 1.50965 29.997Z" fill="url(#paint33_linear_1978_37475)"/>
<path d="M1.05664 29.0676L1.11986 29.4278C1.12003 29.4298 1.12038 29.4319 1.12056 29.4335C1.12195 29.4403 1.12317 29.4467 1.12474 29.4531C1.12613 29.4596 1.12787 29.4664 1.12979 29.473C1.15504 29.5615 1.20903 29.6243 1.26807 29.6364C1.27538 29.638 1.28235 29.6387 1.28949 29.6387H1.29088C1.30011 29.6387 1.30969 29.6371 1.31892 29.6344C1.39015 29.6115 1.43979 29.5146 1.43961 29.4044C1.43961 29.3839 1.4377 29.3629 1.43404 29.3421C1.41227 29.2084 1.38528 29.0676 1.38528 29.0676C1.38528 29.0643 1.38545 29.0611 1.38545 29.0577C1.3851 28.9213 1.313 28.8099 1.22348 28.8099C1.13344 28.8099 1.05716 28.9267 1.05664 29.0676Z" fill="url(#paint34_linear_1978_37475)"/>
<path d="M1.0603 27.8283V28.144C1.0603 28.2861 1.13398 28.4023 1.22402 28.4023H1.22524C1.22925 28.4023 1.2336 28.402 1.23761 28.4016C1.32278 28.3913 1.38966 28.279 1.38966 28.144L1.3914 27.8283C1.3914 27.687 1.31703 27.5707 1.22577 27.5707C1.13398 27.5707 1.0603 27.687 1.0603 27.8283" fill="url(#paint35_linear_1978_37475)"/>
<path d="M1.22444 26.3328C1.22287 26.3328 1.22148 26.3328 1.21991 26.3329C1.13213 26.3367 1.06055 26.4517 1.06055 26.5913V26.9059C1.06055 27.0483 1.13509 27.1641 1.22531 27.1641C1.31658 27.1641 1.39095 27.0483 1.39095 26.9059V26.5913C1.39095 26.449 1.31658 26.3328 1.22531 26.3328H1.22444Z" fill="url(#paint36_linear_1978_37475)"/>
<path d="M1.06055 25.3508V25.6648C1.06055 25.8079 1.13509 25.9238 1.22531 25.9238C1.31658 25.9238 1.39095 25.8079 1.39095 25.6648V25.3508C1.39095 25.2079 1.31658 25.0916 1.22531 25.0916C1.13561 25.0916 1.06229 25.2079 1.06055 25.3508Z" fill="url(#paint37_linear_1978_37475)"/>
<path d="M1.06201 24.1113V24.4276C1.06201 24.5691 1.13534 24.6855 1.2266 24.6855C1.3163 24.6855 1.39154 24.5698 1.39154 24.4276V24.1126C1.39154 23.9702 1.317 23.8546 1.2266 23.8534C1.13534 23.8534 1.06201 23.9702 1.06201 24.1113Z" fill="url(#paint38_linear_1978_37475)"/>
<path d="M1.06201 22.8714V23.1866C1.06201 23.3296 1.13534 23.4453 1.2266 23.4453C1.317 23.4453 1.39154 23.3296 1.39154 23.1866V22.8714V22.8681C1.39102 22.7285 1.31787 22.6138 1.2266 22.6138C1.13638 22.6138 1.06201 22.7305 1.06201 22.8714Z" fill="url(#paint39_linear_1978_37475)"/>
<path d="M1.06299 21.6323V21.9484V21.9516C1.06351 22.0929 1.13753 22.207 1.22706 22.207C1.31919 22.207 1.39322 22.0911 1.39322 21.9484V21.634C1.39322 21.4906 1.31972 21.3743 1.2288 21.3743C1.13823 21.3743 1.06299 21.4895 1.06299 21.6323" fill="url(#paint40_linear_1978_37475)"/>
<path d="M1.06299 20.3924V20.7083C1.06299 20.8509 1.13823 20.9668 1.2288 20.9668C1.31972 20.9668 1.39322 20.8509 1.39426 20.7083V20.3931C1.39426 20.2514 1.31972 20.1344 1.2288 20.1344C1.13823 20.1344 1.06299 20.2502 1.06299 20.3924Z" fill="url(#paint41_linear_1978_37475)"/>
<path d="M1.06396 19.1548V19.4697C1.06396 19.6119 1.13816 19.7285 1.22873 19.7285C1.32052 19.7285 1.39419 19.6119 1.39419 19.4697V19.1548C1.39419 19.0114 1.32052 18.8956 1.22943 18.8956C1.13816 18.8956 1.06396 19.0114 1.06396 19.1548Z" fill="url(#paint42_linear_1978_37475)"/>
<path d="M1.06445 17.9128V18.2289C1.06445 18.3715 1.139 18.4883 1.22922 18.4883C1.32031 18.4883 1.39399 18.3715 1.39573 18.2289V17.9135C1.39573 17.7724 1.32118 17.6556 1.22922 17.6556C1.139 17.6556 1.0655 17.7715 1.06445 17.9128Z" fill="url(#paint43_linear_1978_37475)"/>
<path d="M1.06592 16.6742V16.9899C1.06592 17.1323 1.13942 17.248 1.23138 17.248C1.3216 17.248 1.39615 17.1323 1.39615 16.9899V16.6742C1.39615 16.5325 1.3216 16.416 1.23138 16.416C1.13942 16.416 1.06592 16.5312 1.06592 16.6742Z" fill="url(#paint44_linear_1978_37475)"/>
<path d="M1.06644 15.4364L1.06592 15.7515C1.06592 15.8944 1.13942 16.0098 1.23138 16.0098C1.32247 16.0098 1.39615 15.8944 1.39615 15.7515L1.39771 15.4364C1.39771 15.2953 1.32247 15.1785 1.23277 15.1785C1.14168 15.1785 1.06644 15.2953 1.06644 15.4364Z" fill="url(#paint45_linear_1978_37475)"/>
<path d="M1.06641 14.1967V14.5117C1.06641 14.6547 1.14165 14.7715 1.23274 14.7715C1.32244 14.7715 1.39768 14.6547 1.39768 14.5117V14.1967C1.39768 14.0549 1.32313 13.9381 1.23274 13.9381C1.14165 13.9381 1.06745 14.0549 1.06641 14.1967Z" fill="url(#paint46_linear_1978_37475)"/>
<path d="M1.06689 12.9583V13.2724C1.06689 13.4146 1.14109 13.5312 1.23218 13.5312H1.23323C1.23549 13.5312 1.23758 13.5311 1.2395 13.5311C1.32676 13.5257 1.39712 13.4114 1.39765 13.2724V12.9583C1.39765 12.8144 1.32362 12.6992 1.23218 12.6992C1.14109 12.6992 1.06689 12.8144 1.06689 12.9583Z" fill="url(#paint47_linear_1978_37475)"/>
<path d="M1.06641 11.7161V12.0322V12.0355C1.06693 12.176 1.14147 12.291 1.23117 12.291C1.32261 12.291 1.39664 12.1742 1.39664 12.0322V11.7161C1.39664 11.5749 1.32261 11.4574 1.23117 11.4574C1.14165 11.4574 1.06641 11.5749 1.06641 11.7161Z" fill="url(#paint48_linear_1978_37475)"/>
<path d="M1.06745 10.4776L1.06641 10.7926C1.06641 10.9349 1.14165 11.0508 1.23117 11.0508C1.32261 11.0508 1.39664 10.9349 1.39664 10.7926V10.4776C1.39664 10.3347 1.32313 10.2181 1.23274 10.2181C1.14165 10.2181 1.06745 10.3347 1.06745 10.4776Z" fill="url(#paint49_linear_1978_37475)"/>
<path d="M1.0809 9.22316L1.06592 9.55383C1.06749 9.69588 1.14325 9.8125 1.23434 9.8125C1.32474 9.8125 1.39824 9.69588 1.39771 9.55383L1.40973 9.25249C1.41008 9.24698 1.41025 9.24147 1.41025 9.23596C1.4106 9.10102 1.34163 8.98778 1.25455 8.97996C1.25176 8.97978 1.24862 8.9796 1.24584 8.9796C1.1591 8.9796 1.0863 9.08645 1.0809 9.22316Z" fill="url(#paint50_linear_1978_37475)"/>
<path d="M1.30542 7.90386L1.20057 8.26635C1.19831 8.28378 1.19727 8.30102 1.19727 8.31773C1.19727 8.43489 1.25247 8.52734 1.33067 8.5332H1.33328C1.33764 8.5332 1.34234 8.53231 1.34704 8.53071C1.37456 8.52076 1.40521 8.48271 1.43586 8.43134C1.43952 8.42476 1.44335 8.41818 1.44718 8.41125C1.45728 8.39311 1.46756 8.37356 1.47731 8.35347C1.47836 8.35169 1.47905 8.34991 1.47992 8.34831C1.50744 8.29107 1.53356 8.22867 1.55551 8.17249C1.56143 8.15773 1.56683 8.14369 1.57188 8.13C1.58424 8.09729 1.59487 8.06831 1.60288 8.04573C1.61786 8.00217 1.62482 7.95773 1.62465 7.91631C1.62412 7.8315 1.59365 7.75915 1.53879 7.7323C1.52416 7.72537 1.50901 7.72199 1.49333 7.72199C1.4221 7.72199 1.3446 7.79364 1.30542 7.90386Z" fill="url(#paint51_linear_1978_37475)"/>
<path d="M2.29758 7.01956L1.96181 7.19414C1.87403 7.24943 1.82248 7.32783 1.823 7.39379C1.82335 7.41868 1.83066 7.44161 1.84651 7.46117C1.84808 7.46312 1.85 7.46525 1.85174 7.46685C1.8796 7.49548 1.92384 7.50952 1.97469 7.50952H1.97487C1.97852 7.50952 1.98236 7.50952 1.98619 7.50934C2.03983 7.50721 2.09974 7.49014 2.15477 7.4585C2.1593 7.45565 2.16365 7.45334 2.16836 7.4505C2.28713 7.37459 2.39197 7.3337 2.39197 7.3337C2.50918 7.2889 2.59208 7.19609 2.59191 7.11538C2.59173 7.10454 2.59051 7.09405 2.58738 7.08392C2.5818 7.06578 2.5717 7.05014 2.55795 7.03716C2.52782 7.00925 2.48062 6.99378 2.42576 6.99378C2.38553 6.99378 2.34147 7.00214 2.29758 7.01956Z" fill="url(#paint52_linear_1978_37475)"/>
<path d="M3.57569 6.73764L3.22946 6.7796C3.10024 6.79791 3.00462 6.874 3.00393 6.95382C3.00375 6.96111 3.00462 6.96858 3.00637 6.97622C3.00671 6.97853 3.00741 6.98084 3.00828 6.98316C3.00898 6.98653 3.01002 6.98973 3.01124 6.99293C3.01194 6.99453 3.01264 6.99613 3.01316 6.99756C3.04137 7.06156 3.12984 7.10387 3.23329 7.10529C3.23538 7.10529 3.23695 7.10547 3.23887 7.10547C3.24026 7.10547 3.24148 7.10529 3.24252 7.10529C3.26081 7.10511 3.27979 7.10369 3.29878 7.10085L3.583 7.066C3.72564 7.05782 3.84023 6.97729 3.8404 6.8884V6.88627C3.83727 6.80129 3.73278 6.73693 3.60129 6.73693C3.59275 6.73693 3.58439 6.73711 3.57569 6.73764Z" fill="url(#paint53_linear_1978_37475)"/>
<path d="M4.24927 6.88296C4.24927 6.97363 4.367 7.04723 4.50928 7.04723L4.82782 7.04883C4.9708 7.04883 5.08766 6.97434 5.08766 6.88403C5.08766 6.79407 4.9708 6.72065 4.82782 6.72065L4.50998 6.71976C4.367 6.71976 4.24927 6.79318 4.24927 6.88296" fill="url(#paint54_linear_1978_37475)"/>
<path d="M5.75559 6.72136H5.75263C5.61905 6.72136 5.50881 6.78589 5.49731 6.8698V6.86998C5.49644 6.87478 5.49609 6.87958 5.49609 6.88456C5.49609 6.97434 5.61313 7.04883 5.75559 7.04883H6.07203C6.21589 7.04883 6.33274 6.97523 6.33274 6.88598C6.33274 6.79549 6.21693 6.72136 6.07395 6.72136H5.75559Z" fill="url(#paint55_linear_1978_37475)"/>
<path d="M7.00207 6.7226C6.86065 6.7226 6.74292 6.79531 6.74292 6.8858C6.7424 6.97647 6.85996 7.05078 7.00207 7.05078H7.31903C7.46219 7.05078 7.57975 6.97842 7.57975 6.88758C7.57975 6.79691 7.46289 6.7226 7.31903 6.7226H7.00207Z" fill="url(#paint56_linear_1978_37475)"/>
<path d="M8.25022 6.72651C8.10601 6.72651 7.9902 6.79922 7.9895 6.88971C7.9895 6.97984 8.10601 7.05398 8.25022 7.05398L8.56683 7.05469C8.70982 7.05469 8.82737 6.98055 8.82737 6.8906C8.82737 6.79993 8.70982 6.72651 8.56683 6.72651H8.25022Z" fill="url(#paint57_linear_1978_37475)"/>
<path d="M9.23657 6.89166C9.23657 6.98162 9.35169 7.05664 9.49641 7.05664H9.81477H9.81721H9.82052C9.9595 7.05557 10.0743 6.98197 10.0743 6.89344C10.0743 6.80188 9.95636 6.72846 9.81477 6.72846L9.49763 6.72775C9.35343 6.72775 9.23657 6.80117 9.23657 6.89166" fill="url(#paint58_linear_1978_37475)"/>
<path d="M10.4832 6.89255C10.4832 6.98233 10.6002 7.05664 10.7433 7.05664H11.0598C11.2024 7.05664 11.3205 6.98322 11.3205 6.89433C11.3205 6.80259 11.2042 6.72935 11.061 6.72828L10.7433 6.72757C10.6002 6.72757 10.4832 6.80099 10.4832 6.89255" fill="url(#paint59_linear_1978_37475)"/>
<path d="M11.9905 6.73172C11.8479 6.73172 11.7305 6.80354 11.7305 6.89528C11.7305 6.98488 11.8473 7.05919 11.9905 7.05919L12.3069 7.06079C12.4496 7.06079 12.5676 6.98648 12.5676 6.89563C12.5676 6.80603 12.4501 6.73172 12.308 6.73172H11.9905Z" fill="url(#paint60_linear_1978_37475)"/>
<path d="M12.9771 6.89699C12.9771 6.98748 13.0936 7.06108 13.2365 7.06108L13.5542 7.0625C13.6974 7.0625 13.8149 6.98908 13.8149 6.89859C13.8149 6.80899 13.6982 6.73361 13.5542 6.73361L13.2376 6.73272C13.0946 6.73272 12.9771 6.80721 12.9771 6.89699Z" fill="url(#paint61_linear_1978_37475)"/>
<path d="M14.2244 6.90036V6.90232C14.2245 6.99085 14.3407 7.06374 14.4828 7.06445H14.8C14.9431 7.06445 15.0608 6.99103 15.0608 6.90036C15.0608 6.81058 14.9431 6.73716 14.8 6.73556L14.4835 6.73467C14.3402 6.73467 14.2244 6.80916 14.2244 6.90036Z" fill="url(#paint62_linear_1978_37475)"/>
<path d="M15.7324 6.73805H15.73C15.7087 6.73805 15.6882 6.73965 15.6685 6.74302C15.5553 6.76045 15.4717 6.82534 15.4717 6.90232C15.4717 6.99121 15.5875 7.06641 15.7313 7.06641H16.0473C16.1906 7.06641 16.3082 6.99281 16.3082 6.90392C16.3082 6.81147 16.1915 6.73894 16.0473 6.73805H15.7324Z" fill="url(#paint63_linear_1978_37475)"/>
<path d="M16.7173 6.90338C16.7173 6.99316 16.834 7.06747 16.978 7.06747L17.2948 7.06836C17.4369 7.06836 17.5553 6.99476 17.5553 6.90409C17.5564 6.81342 17.4379 6.74018 17.2953 6.74018L16.978 6.73947C16.8348 6.73947 16.7173 6.81289 16.7173 6.90338Z" fill="url(#paint64_linear_1978_37475)"/>
<path d="M18.2246 6.74213C18.0815 6.74213 17.9645 6.81466 17.9629 6.90551C17.9629 6.99511 18.0815 7.07031 18.2246 7.07031H18.5413C18.6846 7.07031 18.8018 6.99671 18.8018 6.90693C18.8018 6.81626 18.6846 6.74213 18.5413 6.74213H18.2246Z" fill="url(#paint65_linear_1978_37475)"/>
<path d="M19.4721 6.74313C19.3289 6.74313 19.2121 6.81673 19.2121 6.90704C19.2119 6.90775 19.2119 6.90864 19.2119 6.90917C19.213 6.99895 19.3289 7.07131 19.4705 7.07131L19.7879 7.07202C19.9321 7.07202 20.0484 6.99771 20.0484 6.90882C20.0484 6.81833 19.9326 6.74313 19.7887 6.74313H19.4721Z" fill="url(#paint66_linear_1978_37475)"/>
<path d="M20.7172 6.74604C20.5756 6.74604 20.458 6.81893 20.458 6.90942C20.458 6.99991 20.5756 7.07422 20.7172 7.07422H21.0348C21.1783 7.07422 21.2954 7.00097 21.2954 6.91102C21.2954 6.81946 21.1801 6.74781 21.0357 6.74604H20.7172Z" fill="url(#paint67_linear_1978_37475)"/>
<path d="M21.966 6.74817C21.8227 6.74817 21.7058 6.82141 21.7058 6.91137C21.7058 7.00133 21.8218 7.07546 21.966 7.07546L22.2824 7.07617C22.4263 7.07617 22.5432 7.00293 22.5432 6.91226C22.5432 6.8223 22.4272 6.74817 22.2824 6.74817H21.966Z" fill="url(#paint68_linear_1978_37475)"/>
<path d="M22.9507 6.91226C22.9507 7.00292 23.0675 7.07741 23.2105 7.07741L23.5282 7.07812C23.672 7.07812 23.7872 7.00381 23.7872 6.91492C23.7872 6.82354 23.672 6.75012 23.5289 6.75012L23.2105 6.74905C23.0675 6.74905 22.9507 6.82354 22.9507 6.91226Z" fill="url(#paint69_linear_1978_37475)"/>
<path d="M24.4587 6.75118C24.3161 6.75118 24.1992 6.82461 24.1992 6.91581C24.1992 7.00505 24.3161 7.0799 24.4582 7.0799H24.776C24.7767 7.08008 24.7778 7.08008 24.7786 7.08008C24.7797 7.08008 24.7809 7.08008 24.7819 7.0799C24.9216 7.07883 25.0364 7.00541 25.0364 6.9167C25.0364 6.82621 24.9197 6.7519 24.7764 6.75118H24.4587Z" fill="url(#paint70_linear_1978_37475)"/>
<path d="M25.7061 6.75474H25.701C25.5603 6.75474 25.4461 6.82852 25.4456 6.91794C25.4456 7.0079 25.5629 7.08132 25.7061 7.08132L26.0243 7.08203C26.1652 7.08203 26.2843 7.0095 26.2843 6.91883C26.2843 6.82905 26.1666 6.75474 26.0243 6.75474H25.7061Z" fill="url(#paint71_linear_1978_37475)"/>
<path d="M26.6924 6.91829C26.6924 7.00807 26.8091 7.0831 26.9524 7.0831L27.269 7.08398C27.4122 7.08398 27.5306 7.00878 27.5306 6.91989C27.5306 6.82923 27.4122 6.75402 27.2706 6.75402L26.9529 6.75331C26.8091 6.75331 26.6924 6.82851 26.6924 6.91829Z" fill="url(#paint72_linear_1978_37475)"/>
<path d="M28.0952 6.74621C27.9515 6.74621 27.8351 6.81946 27.8337 6.90942C27.8337 6.99937 27.9515 7.07351 28.0936 7.07351L28.4112 7.07422C28.5542 7.07422 28.6713 7.00097 28.6713 6.91031V6.90817C28.6707 6.8191 28.5541 6.74621 28.4112 6.74621H28.0952Z" fill="url(#paint73_linear_1978_37475)"/>
<path d="M29.6968 6.7114C29.6919 6.71157 29.6872 6.71157 29.6824 6.71175L29.3664 6.72491C29.2266 6.7306 29.1136 6.80473 29.1129 6.89327C29.1127 6.8954 29.1129 6.89753 29.1129 6.89967C29.1167 6.98411 29.2249 7.05167 29.3581 7.05273H29.3612H29.3626C29.3647 7.05273 29.3671 7.05273 29.3696 7.05256C29.3731 7.05256 29.3767 7.05238 29.3802 7.0522L29.6963 7.04011C29.8377 7.03513 29.9509 6.95833 29.9504 6.87051C29.9504 6.86909 29.9504 6.86767 29.9504 6.86642C29.9466 6.77913 29.8353 6.7114 29.6986 6.7114H29.6968Z" fill="url(#paint74_linear_1978_37475)"/>
<path d="M30.7877 6.39468L30.4935 6.50811C30.3786 6.55113 30.3023 6.63877 30.3018 6.71522C30.3018 6.72838 30.3038 6.74153 30.3087 6.7538C30.3092 6.75504 30.3098 6.75629 30.3103 6.75753C30.3126 6.76269 30.3153 6.76766 30.3183 6.77247C30.3462 6.81567 30.404 6.83913 30.473 6.83984H30.4766H30.4806C30.5222 6.83931 30.5677 6.8306 30.6126 6.81335L30.9078 6.69904C31.0215 6.65531 31.0977 6.56837 31.0978 6.49157C31.098 6.47824 31.0957 6.46508 31.0909 6.45264C31.0696 6.39842 31.004 6.36802 30.9238 6.36802C30.881 6.36802 30.8342 6.37655 30.7877 6.39468Z" fill="url(#paint75_linear_1978_37475)"/>
<path d="M31.722 5.80565L31.4582 5.97952C31.368 6.03818 31.3136 6.1237 31.3127 6.19481C31.3126 6.21845 31.318 6.2405 31.3302 6.25952C31.3323 6.26272 31.3347 6.26592 31.3373 6.26859C31.3375 6.26912 31.3377 6.26947 31.3378 6.26965C31.3627 6.29863 31.4023 6.31356 31.4486 6.31445H31.4536H31.459C31.5024 6.31356 31.5506 6.30112 31.5978 6.2773C31.6025 6.27499 31.6071 6.27267 31.6114 6.27019C31.6175 6.26699 31.6234 6.26325 31.6294 6.2597C31.6325 6.25774 31.6356 6.25579 31.6386 6.25365L31.9042 6.07961C31.9089 6.07658 31.9136 6.07338 31.9179 6.06983C31.9183 6.06947 31.9185 6.06929 31.919 6.06894C31.9193 6.06858 31.9193 6.06858 31.9197 6.06841C31.9333 6.05738 31.9453 6.04547 31.9585 6.03427V5.75373C31.9413 5.74929 31.9225 5.7468 31.9024 5.7468C31.8462 5.7468 31.7812 5.76547 31.722 5.80565Z" fill="url(#paint76_linear_1978_37475)"/>
</g>
</g>
</g>
<path d="M29.2415 7.61943C29.2097 7.6203 29.1817 7.62117 29.1578 7.6203C29.1254 7.61978 29.0937 7.61943 29.0626 7.61943C28.9466 7.61943 28.8354 7.62307 28.7176 7.62342H28.7061C28.273 7.62342 27.8371 7.62186 27.4048 7.62186C25.7229 7.62186 24.0386 7.6274 22.3598 7.63139C18.8713 7.64179 15.3867 7.62186 11.8976 7.62186C10.3031 7.62186 8.70625 7.69064 7.10803 7.67557C7.10367 7.67557 7.09984 7.67522 7.09532 7.67522C7.07304 7.67505 7.05075 7.6747 7.0283 7.67453C7.00184 7.67418 6.9752 7.67384 6.94874 7.67349C6.1572 7.66327 5.36984 7.67107 4.58004 7.67107H3.22588C3.11482 7.67107 2.55776 7.63867 2.55689 7.85022C2.55672 7.86529 2.55985 7.88175 2.5656 7.89959C2.62235 8.08429 2.92768 8.17871 3.08679 8.23606C3.35609 8.33482 3.63671 8.40083 3.9175 8.45957C4.48639 8.58293 5.06764 8.66401 5.64907 8.73331C6.84952 8.87504 8.05815 8.95855 9.26592 9.01746C11.7161 9.1377 14.1701 9.15589 16.6218 9.10894C20.1974 9.0379 23.8137 8.87573 27.3446 8.28475C27.7925 8.2099 28.2394 8.12552 28.682 8.0285C28.8878 7.98224 29.0924 7.93303 29.2958 7.87967C29.296 7.87967 29.2964 7.87967 29.2965 7.8795C29.3307 7.87101 29.6985 7.77225 29.5831 7.67834C29.5183 7.62671 29.412 7.61874 29.3138 7.61874C29.2887 7.61874 29.265 7.61874 29.2415 7.61943Z" fill="url(#paint77_linear_1978_37475)"/>
<path fill-rule="evenodd" clip-rule="evenodd" d="M0.745387 15.9312C0.804664 15.9343 0.863857 15.9373 0.924303 15.9373C1.3736 15.9373 1.79192 15.8483 2.13642 15.6992C3.96373 15.8165 6.4475 15.9839 6.70409 16.0075C8.18429 16.1486 9.15826 16.5422 9.86868 17.685C10.2381 18.276 10.4125 18.95 10.3237 19.7881C10.322 19.8597 10.3182 19.9333 10.3084 20.0058C10.1893 20.9687 9.79609 21.7039 8.92952 22.3667C7.98079 23.0938 6.3756 23.0896 4.87573 22.9737C3.82447 22.8946 2.79444 22.7697 1.75362 22.6236C1.00212 22.5167 0.6886 22.0525 0.679199 21.3639C0.712622 20.0777 0.721501 18.7938 0.705485 17.5091C0.705485 17.1899 0.713731 16.871 0.721973 16.5522C0.727332 16.345 0.732688 16.1378 0.735775 15.9307L0.745387 15.9312ZM9.72206 18.0268C9.88303 18.231 10.0049 18.4428 10.0946 18.6584C9.99674 18.438 9.87257 18.2247 9.72206 18.0268Z" fill="#A6941F"/>
<path d="M0.0594512 14.8065C0.0594512 15.445 0.0250045 16.0815 0.0250045 16.7202C0.0307748 17.1595 0.0337473 17.5984 0.0337473 18.0376C0.0333976 18.8759 0.0222068 19.7145 0 20.5535C0.00944226 21.2388 0.32331 21.6994 1.07747 21.8061C2.12468 21.9511 3.15966 22.0744 4.21527 22.1546C5.72183 22.2682 7.33314 22.2732 8.28733 21.5494C9.15619 20.8916 9.55259 20.1608 9.67237 19.2027C9.68373 19.1101 9.6895 19.0165 9.68933 18.9225C9.68811 18.0144 9.15584 17.0716 8.30814 16.5156C7.01437 15.666 5.35324 15.7517 3.79439 15.658C3.11787 15.6151 2.2581 15.5413 1.58647 15.4805C1.21246 15.448 0.536985 15.4292 0.26246 15.1536C0.148628 15.0392 0.0827072 14.916 0.0625987 14.7795C0.0594512 14.7883 0.0594512 14.7984 0.0594512 14.8065Z" fill="url(#paint78_linear_1978_37475)"/>
<path d="M0.579092 13.7662C0.575088 13.7677 0.570213 13.7709 0.569691 13.7734C0.563772 13.7776 0.556635 13.7824 0.548976 13.7906C0.46211 13.8697 0.310313 14.0884 0.291164 14.1193C0.144067 14.342 0.0627717 14.4834 0.0585937 14.7427C0.0794833 14.8808 0.146852 15.0048 0.258611 15.1189C0.533483 15.3981 1.21535 15.4086 1.58719 15.4462C2.27149 15.5139 3.10116 15.5832 3.77519 15.6266C5.53827 15.7343 7.47769 15.6477 8.74325 16.876C9.36941 17.4822 9.61277 18.1604 9.61243 18.8636C9.61208 19.2384 9.54262 19.6201 9.42512 20.002C9.59136 19.4649 9.66848 18.9875 9.66883 18.5553C9.66935 17.9031 9.49527 17.3549 9.18993 16.8638C8.47847 15.7206 7.50572 15.3288 6.02534 15.1859C5.7496 15.1607 2.90218 14.9698 1.06286 14.8538C0.63793 14.8275 0.624004 14.5876 0.624004 14.2157C0.624004 14.1691 0.625919 14.0721 0.625919 13.9731C0.625919 13.8985 0.624874 13.8226 0.620871 13.7662C0.617389 13.763 0.609555 13.7604 0.599981 13.7604C0.592844 13.7604 0.584488 13.762 0.579092 13.7662Z" fill="url(#paint79_linear_1978_37475)"/>
<mask id="mask5_1978_37475" style="mask-type:luminance" maskUnits="userSpaceOnUse" x="0" y="15" width="10" height="7">
<path fill-rule="evenodd" clip-rule="evenodd" d="M0.137695 21.8555H9.29934V15.5671H0.137695L0.137695 21.8555Z" fill="white"/>
</mask>
<g mask="url(#mask5_1978_37475)">
<mask id="mask6_1978_37475" style="mask-type:luminance" maskUnits="userSpaceOnUse" x="-1" y="15" width="11" height="8">
<path fill-rule="evenodd" clip-rule="evenodd" d="M-0.116943 15.1607H9.69969V22.2754H-0.116943L-0.116943 15.1607Z" fill="white"/>
</mask>
<g mask="url(#mask6_1978_37475)">
<g opacity="0.800003">
<path d="M0.299726 15.5664C0.299551 15.5666 0.299551 15.5666 0.299376 15.5666C0.275753 15.5682 0.253706 15.5724 0.233759 15.5791C0.233584 15.5793 0.233409 15.5793 0.233059 15.5793C0.232534 15.5798 0.231659 15.5798 0.230959 15.5802C0.230609 15.5802 0.230259 15.5804 0.229909 15.5805C0.229559 15.5807 0.228684 15.5809 0.228159 15.5811C0.227809 15.5813 0.227109 15.5814 0.226759 15.5814C0.226409 15.582 0.22571 15.5821 0.225185 15.5823C0.224835 15.5825 0.224135 15.5827 0.22361 15.583C0.223085 15.5832 0.222735 15.5832 0.22221 15.5834C0.22186 15.5837 0.220985 15.5839 0.22046 15.5843C0.22011 15.5844 0.219585 15.5844 0.219235 15.5846C0.218535 15.585 0.217836 15.5853 0.217311 15.5855C0.216961 15.5857 0.216786 15.5858 0.216436 15.5858C0.215561 15.5864 0.214686 15.5867 0.213986 15.5871C0.213986 15.5871 0.213811 15.5873 0.213636 15.5873C0.182315 15.6017 0.158868 15.6229 0.146444 15.6506C0.146094 15.6514 0.145744 15.6524 0.145394 15.6533V15.6535L0.144519 15.6561C0.14417 15.657 0.143645 15.6579 0.143295 15.6588C0.14312 15.6598 0.142595 15.6611 0.142245 15.6621C0.139795 15.6695 0.138395 15.6773 0.137695 15.6849V15.7026V15.7027C0.138045 15.7038 0.13822 15.7049 0.13822 15.7059V15.7061C0.13822 15.707 0.138395 15.7082 0.13857 15.7093V15.7098C0.138745 15.7109 0.13892 15.7119 0.139095 15.7132C0.139445 15.7155 0.13997 15.7177 0.140495 15.72V15.7202C0.156243 15.79 0.231834 15.8608 0.336821 15.8957L0.639009 15.9971C0.643733 15.9985 0.648283 15.9997 0.652657 16.0013C0.689403 16.0121 0.725623 16.0174 0.759394 16.0176H0.761319H0.765344C0.841634 16.0169 0.904976 15.9897 0.931573 15.9422C0.934198 15.9374 0.936648 15.9321 0.938397 15.9268C0.938747 15.9259 0.939097 15.9251 0.939447 15.9242C0.943297 15.913 0.945222 15.9014 0.945222 15.8897C0.945397 15.8131 0.864381 15.7278 0.746796 15.689L0.443733 15.5869C0.441983 15.5862 0.440058 15.5857 0.438134 15.585C0.437784 15.5848 0.437434 15.5846 0.436734 15.5846C0.434984 15.5839 0.433409 15.5834 0.431659 15.583C0.431309 15.5827 0.430435 15.5825 0.42991 15.5823C0.428685 15.582 0.427285 15.5814 0.426235 15.5813C0.42536 15.5811 0.424835 15.5807 0.423785 15.5805C0.422386 15.5802 0.420986 15.5798 0.419761 15.5795C0.418711 15.5791 0.417836 15.579 0.416961 15.5784C0.416086 15.5782 0.415386 15.5782 0.414337 15.5779C0.412762 15.5775 0.411187 15.5772 0.409612 15.5768C0.409262 15.5768 0.408562 15.5765 0.408037 15.5765C0.404538 15.5756 0.400688 15.5747 0.397014 15.5738H0.396839C0.386515 15.5719 0.376366 15.57 0.366392 15.5689C0.366217 15.5689 0.365867 15.5689 0.365692 15.5687C0.363768 15.5684 0.361843 15.5682 0.360093 15.568C0.359043 15.5678 0.358343 15.5678 0.357468 15.5677C0.356944 15.5677 0.355894 15.5673 0.355369 15.5673C0.353444 15.5673 0.352044 15.5671 0.350294 15.5669H0.349419C0.347495 15.5668 0.34557 15.5666 0.34382 15.5664H0.299726Z" fill="url(#paint80_linear_1978_37475)"/>
<path d="M1.48969 15.8266C1.48916 15.8266 1.48899 15.8266 1.48881 15.8266C1.48724 15.827 1.48566 15.8273 1.48409 15.8277C1.45084 15.836 1.42145 15.8487 1.39747 15.8646C1.35915 15.89 1.33448 15.9241 1.33221 15.9624C1.33203 15.9652 1.33203 15.9681 1.33203 15.9709C1.33256 16.0576 1.44192 16.1349 1.5819 16.1434L1.89931 16.1653C1.90439 16.1657 1.90946 16.1658 1.91454 16.166H1.92293H1.92538H1.92818C2.05837 16.1651 2.16545 16.1023 2.1707 16.0193C2.17088 16.0165 2.17088 16.0136 2.17088 16.011C2.17018 15.9252 2.06117 15.8487 1.92101 15.8402L1.6036 15.8174C1.59467 15.8169 1.5861 15.8166 1.57735 15.8166C1.54656 15.8166 1.51681 15.8201 1.48969 15.8266Z" fill="url(#paint81_linear_1978_37475)"/>
<path d="M2.80222 15.9025C2.68219 15.9097 2.58735 15.9699 2.58245 16.048C2.58228 16.0508 2.58228 16.0538 2.58228 16.0563C2.58298 16.143 2.69216 16.2184 2.83144 16.227L3.14956 16.2489C3.15463 16.2495 3.1597 16.2495 3.16495 16.2496C3.16933 16.2498 3.17388 16.25 3.17825 16.25H3.17983H3.18595C3.31264 16.2482 3.41535 16.1863 3.42095 16.1049C3.42112 16.1026 3.42112 16.1004 3.42112 16.0985C3.42165 16.0109 3.31229 15.9343 3.17213 15.924L2.85472 15.9027C2.84509 15.9021 2.83582 15.9018 2.82672 15.9018C2.8185 15.9018 2.81027 15.902 2.80222 15.9025Z" fill="url(#paint82_linear_1978_37475)"/>
<path d="M3.92176 16.0213H3.92159C3.90392 16.0305 3.88852 16.0409 3.87522 16.0527C3.85055 16.0753 3.83497 16.1027 3.83287 16.1323C3.83287 16.1346 3.83252 16.1366 3.83252 16.1387C3.83165 16.227 3.94311 16.3029 4.08204 16.3133L4.40068 16.3351C4.40523 16.3354 4.40978 16.3356 4.41415 16.3358C4.41818 16.3358 4.42203 16.3359 4.42588 16.3359H4.42763C4.43078 16.3359 4.43375 16.3359 4.4369 16.3358C4.56411 16.3331 4.66647 16.2715 4.6726 16.1892C4.6726 16.1866 4.67277 16.1835 4.67277 16.1809C4.6726 16.0949 4.56166 16.0186 4.42343 16.0093L4.10584 15.9874C4.10007 15.987 4.09447 15.9868 4.08852 15.9868C4.08537 15.9865 4.08239 15.9865 4.07942 15.9865C4.01958 15.9865 3.96446 15.9994 3.92176 16.0213Z" fill="url(#paint83_linear_1978_37475)"/>
<path d="M5.13138 16.1306C5.1025 16.1545 5.08483 16.1841 5.08221 16.217C5.08203 16.2198 5.08203 16.2226 5.08203 16.2253C5.08273 16.3111 5.19279 16.3874 5.33138 16.3969L5.64931 16.419C5.65421 16.4191 5.65929 16.4195 5.66436 16.4195C5.66733 16.4197 5.67066 16.4197 5.67398 16.4197H5.67573H5.68168C5.79419 16.4181 5.88763 16.3716 5.9144 16.3049C5.9165 16.3001 5.9179 16.295 5.9193 16.2902C5.92035 16.2848 5.9214 16.2793 5.92175 16.2738C5.92193 16.2715 5.92193 16.2696 5.92193 16.2675C5.92228 16.1809 5.81239 16.1022 5.67136 16.0928L5.35412 16.0727C5.34677 16.0722 5.33995 16.0718 5.33278 16.0716C5.32963 16.0716 5.32648 16.0715 5.32333 16.0715C5.24476 16.0715 5.17529 16.0942 5.13138 16.1306Z" fill="url(#paint84_linear_1978_37475)"/>
<path d="M6.33123 16.2999C6.33123 16.3021 6.33105 16.304 6.33105 16.3061C6.33088 16.3923 6.44147 16.4705 6.58092 16.4808L6.89921 16.5011C6.90428 16.5012 6.90936 16.5016 6.91443 16.5018C6.91846 16.502 6.92266 16.502 6.92668 16.502H6.92913H6.93526C7.06247 16.4998 7.16588 16.4382 7.17078 16.3568C7.1713 16.354 7.1713 16.3512 7.1713 16.3483C7.17025 16.2618 7.06177 16.1859 6.92178 16.1756L6.60437 16.1541C6.59545 16.1534 6.58687 16.1532 6.57812 16.1532C6.44584 16.1532 6.33718 16.2161 6.33123 16.2999Z" fill="url(#paint85_linear_1978_37475)"/>
<path d="M1.18656 21.2426C1.18534 21.2488 1.18481 21.2553 1.18481 21.2615C1.18481 21.3433 1.28088 21.4263 1.41316 21.4505L1.72672 21.508C1.7325 21.5093 1.73862 21.5103 1.7444 21.5112C1.76347 21.514 1.78202 21.5154 1.80004 21.5156H1.80249C1.80581 21.5156 1.80914 21.5154 1.81264 21.5154C1.91692 21.5128 2.00091 21.4662 2.01421 21.3959C2.01544 21.3899 2.01614 21.3835 2.01614 21.3775C2.01631 21.2953 1.91867 21.213 1.78779 21.1895L1.4751 21.1302C1.46373 21.1282 1.45218 21.1266 1.44081 21.1256C1.42768 21.1243 1.41509 21.1236 1.40249 21.1236C1.29173 21.1236 1.20091 21.1701 1.18656 21.2426Z" fill="url(#paint86_linear_1978_37475)"/>
<path d="M0.301739 20.6962C0.243996 20.6962 0.195527 20.7154 0.17068 20.7536C0.170155 20.7548 0.169105 20.7561 0.16858 20.7573C0.157731 20.7749 0.152832 20.7947 0.152832 20.8159C0.152832 20.8876 0.212675 20.9732 0.309088 21.029L0.582405 21.1888C0.585729 21.1908 0.589054 21.1927 0.592553 21.1945C0.593253 21.1949 0.593603 21.195 0.593953 21.1954C0.644347 21.2224 0.696141 21.2372 0.74321 21.2397C0.748284 21.2401 0.753359 21.2402 0.758433 21.2402H0.764032C0.818276 21.239 0.863595 21.2203 0.888092 21.1843C0.889492 21.1825 0.890542 21.1807 0.891592 21.179C0.901916 21.1615 0.90699 21.1417 0.906815 21.1209C0.90629 21.049 0.847672 20.9634 0.752659 20.9081L0.477067 20.7472C0.444346 20.7282 0.410576 20.7144 0.377505 20.7061C0.377505 20.7059 0.377155 20.7059 0.377155 20.7059C0.37558 20.7056 0.374005 20.7052 0.372255 20.7048C0.37208 20.7047 0.37173 20.7047 0.371555 20.7045C0.370155 20.7041 0.368756 20.704 0.367181 20.7036C0.367006 20.7034 0.366656 20.7034 0.365956 20.7033C0.364381 20.7029 0.362806 20.7026 0.361407 20.7024C0.361057 20.7022 0.360882 20.7022 0.360532 20.7022C0.358957 20.7018 0.357382 20.7017 0.355632 20.7013H0.355107C0.337085 20.6978 0.319587 20.6962 0.302614 20.6962H0.301739Z" fill="url(#paint87_linear_1978_37475)"/>
<path d="M2.41669 21.4568C2.41669 21.4596 2.41651 21.4625 2.41651 21.4655C2.41546 21.5513 2.52517 21.6293 2.66323 21.6419L2.98012 21.6705C2.98642 21.671 2.99289 21.6713 2.99902 21.6717C3.00409 21.6719 3.00881 21.6719 3.01371 21.6719H3.01476C3.01879 21.6719 3.02281 21.6719 3.02701 21.6717C3.13602 21.6685 3.22614 21.6221 3.25028 21.5564C3.25308 21.5492 3.25501 21.5416 3.25606 21.5336C3.25606 21.5326 3.25623 21.5311 3.25641 21.5297C3.25658 21.5271 3.25676 21.5246 3.25676 21.5214C3.25763 21.4365 3.14915 21.3586 3.01056 21.345L2.69403 21.3175C2.68773 21.3168 2.68143 21.3166 2.67513 21.3162H2.67495C2.66866 21.3159 2.66236 21.3159 2.65623 21.3159C2.52885 21.3159 2.42421 21.375 2.41669 21.4568Z" fill="url(#paint88_linear_1978_37475)"/>
<path d="M3.76291 21.4933C3.72634 21.5182 3.70289 21.551 3.69957 21.5881C3.69922 21.5911 3.69922 21.5936 3.69922 21.5962C3.69904 21.6819 3.80526 21.7605 3.94524 21.7735L4.26178 21.8007C4.26353 21.8009 4.26562 21.8011 4.26737 21.8013C4.27735 21.802 4.2875 21.8023 4.29712 21.8023C4.29747 21.8023 4.29782 21.8025 4.29835 21.8025C4.30045 21.8025 4.3022 21.8023 4.30412 21.8023C4.42905 21.8005 4.53037 21.7412 4.53737 21.6611C4.53772 21.6579 4.53789 21.6542 4.53789 21.6506C4.53754 21.5657 4.42975 21.4887 4.29152 21.4763L3.97499 21.4479C3.97149 21.4477 3.96816 21.4474 3.96484 21.4472C3.95574 21.4465 3.94664 21.4463 3.93806 21.4463C3.86877 21.4463 3.80631 21.4642 3.76291 21.4933Z" fill="url(#paint89_linear_1978_37475)"/>
<path d="M5.20214 21.5254C5.06234 21.5254 4.94808 21.5955 4.9458 21.6838V21.6861C4.9465 21.7757 5.06164 21.8489 5.20529 21.8514L5.52358 21.8555H5.5374C5.65796 21.8533 5.7577 21.7998 5.78167 21.728C5.78185 21.7273 5.7822 21.7267 5.7822 21.726C5.78237 21.7255 5.78255 21.725 5.78272 21.7243V21.7241C5.7829 21.7236 5.78307 21.723 5.78325 21.7222V21.722C5.78342 21.7214 5.78377 21.7211 5.78377 21.7204C5.78377 21.7202 5.78377 21.7202 5.78395 21.72C5.78395 21.7195 5.78412 21.7191 5.78412 21.7186C5.7843 21.7184 5.7843 21.7183 5.7843 21.7179C5.78447 21.7176 5.78447 21.7172 5.78465 21.717C5.78465 21.7165 5.78465 21.7161 5.78482 21.716C5.78482 21.7156 5.78482 21.7154 5.78517 21.7149C5.78517 21.7144 5.78535 21.714 5.78535 21.7139C5.78535 21.7137 5.78535 21.7135 5.78552 21.7133C5.78552 21.7128 5.78552 21.7123 5.78552 21.7119C5.78552 21.7116 5.7857 21.7114 5.7857 21.711C5.7857 21.7109 5.78587 21.7103 5.78587 21.71C5.78587 21.7096 5.78587 21.7093 5.78605 21.7091V21.7078C5.78622 21.7075 5.78622 21.7073 5.78622 21.707C5.78622 21.7066 5.7864 21.7061 5.7864 21.7059V21.7052C5.7864 21.7047 5.78675 21.7043 5.78675 21.7038V21.7033C5.78675 21.7027 5.78692 21.7022 5.78692 21.7017V21.701V21.6995C5.7871 21.6981 5.7871 21.6969 5.7871 21.6957V21.6935C5.78745 21.6051 5.67109 21.5316 5.5283 21.5293L5.20932 21.5254H5.20214Z" fill="url(#paint90_linear_1978_37475)"/>
<path d="M6.76172 21.4095L6.44605 21.45C6.3094 21.4687 6.20738 21.5489 6.20826 21.6338C6.20826 21.6378 6.20843 21.6423 6.20896 21.6463C6.21963 21.7207 6.31062 21.774 6.42471 21.7772C6.42838 21.7773 6.43223 21.7773 6.4359 21.7773H6.43818C6.45515 21.7772 6.4723 21.7761 6.49015 21.7738L6.80511 21.7321C6.94037 21.7145 7.04378 21.6347 7.04396 21.5506C7.04396 21.5457 7.04361 21.5409 7.04291 21.536C7.03241 21.4586 6.93634 21.4056 6.81771 21.4056C6.79969 21.4056 6.78079 21.4071 6.76172 21.4095Z" fill="url(#paint91_linear_1978_37475)"/>
<path d="M7.80355 20.955L7.53041 21.1169C7.43522 21.1736 7.3766 21.2599 7.37695 21.3314C7.37695 21.3525 7.38203 21.3722 7.39288 21.3897C7.3955 21.3936 7.39795 21.3973 7.40093 21.4008C7.42682 21.4324 7.47057 21.4485 7.52219 21.449C7.52306 21.4492 7.52394 21.4492 7.52481 21.4492C7.52656 21.4492 7.52831 21.4492 7.53006 21.449C7.57678 21.4482 7.62962 21.4347 7.68054 21.4086C7.68824 21.4047 7.69594 21.4007 7.70329 21.3961L7.97486 21.2333C8.07004 21.1768 8.12901 21.0902 8.12849 21.0187C8.12831 20.9977 8.12306 20.9781 8.11221 20.9608C8.10889 20.9553 8.10504 20.9502 8.10084 20.9456C8.07442 20.9165 8.03172 20.902 7.98168 20.902C7.92674 20.902 7.86322 20.9195 7.80355 20.955Z" fill="url(#paint92_linear_1978_37475)"/>
<path d="M8.56648 20.1839L8.37121 20.4315C8.32204 20.4945 8.29614 20.5652 8.29614 20.6248C8.29632 20.6713 8.31189 20.7108 8.34444 20.7349C8.34794 20.7377 8.35179 20.7403 8.35564 20.7425C8.37278 20.7527 8.39273 20.7575 8.41408 20.7578H8.4174C8.42755 20.7578 8.4377 20.7569 8.4482 20.7552C8.51102 20.7437 8.58083 20.6997 8.63473 20.631L8.82825 20.3821C8.87742 20.3197 8.90297 20.2491 8.90349 20.1894C8.90384 20.1431 8.8888 20.1036 8.858 20.0797C8.8496 20.0734 8.84033 20.0684 8.83018 20.0647C8.81565 20.0593 8.79991 20.0566 8.78328 20.0566C8.71294 20.0566 8.62825 20.1038 8.56648 20.1839Z" fill="url(#paint93_linear_1978_37475)"/>
<path d="M8.99034 19.1512C8.9732 19.1818 8.95972 19.2171 8.9515 19.2554L8.88466 19.562C8.87871 19.5899 8.87573 19.6176 8.87573 19.6439C8.87573 19.7475 8.92035 19.8327 8.99332 19.8473C9.00014 19.8489 9.00714 19.8494 9.01397 19.8496H9.01519C9.02166 19.8496 9.02814 19.8489 9.03479 19.8478C9.11038 19.8346 9.18422 19.7467 9.20924 19.6303L9.27503 19.3227C9.28133 19.2946 9.28396 19.2674 9.28396 19.2411C9.28361 19.138 9.23881 19.0536 9.16847 19.0384C9.1662 19.0379 9.16375 19.0372 9.16147 19.0368C9.1564 19.0363 9.15115 19.0361 9.14607 19.0361C9.08781 19.0361 9.02954 19.0811 8.99034 19.1512Z" fill="url(#paint94_linear_1978_37475)"/>
<path d="M9.04523 17.8934C9.03893 17.8934 9.03263 17.8937 9.02633 17.895C8.95196 17.9091 8.90315 17.999 8.90332 18.1081C8.90332 18.1309 8.90542 18.1544 8.90997 18.1782L8.96771 18.4863C8.96859 18.4914 8.96981 18.4967 8.97086 18.5017C8.97296 18.5111 8.97524 18.5199 8.97786 18.5285C9.00901 18.6317 9.07812 18.7055 9.15039 18.7106C9.15284 18.7108 9.15546 18.7109 9.15826 18.7109H9.16054C9.16281 18.7108 9.16526 18.7108 9.16771 18.7104C9.16964 18.7104 9.17139 18.7101 9.17349 18.7099C9.17471 18.7097 9.17594 18.7097 9.17734 18.7092C9.25118 18.6965 9.3 18.6069 9.29965 18.4973C9.29965 18.4745 9.29755 18.4508 9.293 18.4268L9.237 18.1198C9.22528 18.0578 9.20008 18.003 9.16771 17.9628L9.16666 17.9619C9.16649 17.9615 9.16614 17.961 9.16614 17.9608C9.14514 17.9356 9.12099 17.9162 9.0958 17.9045C9.09545 17.9045 9.09527 17.9043 9.0951 17.9041C9.09387 17.904 9.09317 17.9034 9.09212 17.9031C9.07672 17.8967 9.06115 17.8934 9.0454 17.8934H9.04523Z" fill="url(#paint95_linear_1978_37475)"/>
<path d="M8.43312 17.0014C8.41335 17.0052 8.39585 17.0133 8.38098 17.0258C8.35263 17.0495 8.33933 17.0859 8.33986 17.1281C8.34056 17.1893 8.37065 17.2628 8.42577 17.3262L8.63295 17.5647C8.63505 17.5669 8.63697 17.5691 8.6389 17.5713C8.63995 17.5725 8.64135 17.5737 8.6424 17.5748C8.64432 17.5771 8.64642 17.5792 8.64835 17.5812H8.64852C8.70521 17.6387 8.77293 17.6735 8.83207 17.6792C8.8375 17.6795 8.8431 17.6797 8.84835 17.6797H8.85237C8.87774 17.6792 8.90119 17.6724 8.92044 17.6592C8.92359 17.6573 8.92674 17.6548 8.92971 17.6521C8.95771 17.6288 8.97101 17.5926 8.97066 17.5504C8.97031 17.489 8.94056 17.4153 8.88457 17.3521L8.67669 17.1148C8.6305 17.0615 8.57416 17.0249 8.52079 17.0085C8.50014 17.0023 8.47984 16.9988 8.46077 16.9988C8.45115 16.9988 8.44187 16.9995 8.43312 17.0014Z" fill="url(#paint96_linear_1978_37475)"/>
<path d="M7.4251 16.4229C7.42335 16.4256 7.42195 16.4282 7.42038 16.431C7.41285 16.4461 7.40935 16.4625 7.40918 16.4796C7.40918 16.5536 7.47602 16.641 7.58101 16.6911L7.8664 16.8301C7.872 16.8331 7.87777 16.8354 7.88337 16.8379C7.88512 16.8386 7.88635 16.8395 7.8881 16.8398C7.92659 16.8561 7.96561 16.8654 8.00201 16.8683C8.00988 16.8688 8.01776 16.8691 8.02545 16.8691H8.03193C8.09405 16.8677 8.14549 16.8458 8.17016 16.8056C8.17139 16.8033 8.17279 16.801 8.17401 16.7985C8.18171 16.7833 8.18538 16.7669 8.18556 16.7498C8.18608 16.6756 8.11924 16.5889 8.01356 16.5375L7.72922 16.3994C7.67445 16.3731 7.61828 16.3608 7.56876 16.3608C7.50384 16.3608 7.4503 16.382 7.4251 16.4229Z" fill="url(#paint97_linear_1978_37475)"/>
</g>
</g>
</g>
<path d="M5.04966 20.2585C5.62934 20.91 6.62925 20.9695 7.28397 20.3927C7.93938 19.8157 7.99926 18.8225 7.41992 18.1714C6.83867 17.5219 5.83945 17.4604 5.18457 18.0365C4.52985 18.6137 4.46945 19.6085 5.04966 20.2585Z" fill="#CBAF3B"/>
<path d="M5.10439 17.8608C4.77163 18.1565 4.60191 18.5688 4.60156 18.9833C4.60122 19.3379 4.72474 19.6938 4.97658 19.9801C5.52304 20.6011 6.46479 20.6592 7.08185 20.1075C7.41409 19.8111 7.58365 19.3988 7.58365 18.9846C7.58382 18.6304 7.45996 18.2748 7.20812 17.9891C6.91401 17.6536 6.50378 17.4823 6.092 17.4823C5.74087 17.4823 5.38836 17.6072 5.10439 17.8608Z" fill="url(#paint98_linear_1978_37475)"/>
<path d="M5.11305 17.8664C4.77586 18.1665 4.60386 18.5848 4.60352 19.0055C4.60317 19.3652 4.72833 19.7264 4.98353 20.0168C5.53728 20.647 6.36015 20.5542 6.98423 19.9965C7.35519 19.6652 7.57262 19.244 7.57227 18.8248C7.5721 18.5381 7.46991 18.2521 7.24483 17.9966C6.9468 17.6562 6.5311 17.4823 6.11383 17.4823C5.75801 17.4823 5.4008 17.6091 5.11305 17.8664Z" fill="url(#paint99_linear_1978_37475)"/>
<path d="M5.08031 17.8127C4.74996 18.107 4.60364 18.5335 4.6045 18.8903C4.60467 19.1116 4.66182 19.306 4.76632 19.4252C5.04003 19.7353 5.69488 19.5999 6.23061 19.1235C6.60744 18.7883 6.82401 18.3737 6.82401 18.0488C6.82401 17.912 6.78544 17.7906 6.70402 17.6986C6.57284 17.5491 6.31841 17.4594 6.02851 17.4594C5.71382 17.4594 5.35851 17.5649 5.08031 17.8127Z" fill="url(#paint100_linear_1978_37475)"/>
<path d="M22.887 26.9933H25.1798C26.0272 26.9933 26.5818 26.3578 26.8337 24.9274C27.0696 23.5543 26.7617 22.9414 25.9071 22.9414L23.612 22.9414L23.9767 20.8811C24.3771 18.5287 25.5797 17.3665 27.5572 17.3665H27.9351C29.0313 17.3665 29.634 17.1823 29.7163 16.6607C29.7856 16.3051 29.6858 15.8204 29.5777 15.2865C29.4587 14.7657 29.3349 14.2633 29.1598 13.9808C28.8912 13.5046 28.2862 13.2728 27.3269 13.2728C24.9544 13.2728 22.9934 13.9222 21.4578 15.2793C19.9287 16.6255 18.9542 18.4592 18.5242 20.9156L18.1573 22.9414H13.3433C13.2658 22.9414 8.28904 23.5102 8.28904 23.5102L12.871 24.2182L13.0564 24.8995L10.2528 25.1433L13.1969 25.5749L13.3121 26.1339L4.53345 26.6285C4.53345 26.6285 14.0117 26.9933 14.0915 26.9933H17.4235L16.5615 31.959L22.0324 31.959" fill="#0066CC"/>
<path fill-rule="evenodd" clip-rule="evenodd" d="M16.561 31.959H16.9257L17.8212 26.9905L17.4269 26.9956L16.561 31.959ZM26.015 22.9448L25.744 22.9356C25.5177 22.9356 23.6118 22.9411 23.6118 22.9411L23.5096 23.4415H26.7903C26.7903 23.4415 26.6297 22.9787 26.015 22.9448ZM27.3265 13.2735C27.815 13.2242 28.6614 13.4218 28.9053 13.6722C29.1592 13.9294 29.2475 14.1401 29.2475 14.1401C28.8221 13.6104 28.1426 13.5571 27.3697 13.5571C24.9986 13.5571 23.2489 14.1367 21.7946 15.4258C20.3089 16.7445 19.3366 18.5334 18.9185 20.9407L18.5548 23.0868L18.5132 23.4159L9.57617 23.3802L13.3587 22.9356H18.1431L18.5237 20.8487C18.9537 18.3845 19.9202 16.6322 21.4573 15.2788C23.917 13.105 27.3265 13.2735 27.3265 13.2735Z" fill="#0059B1"/>
<path fill-rule="evenodd" clip-rule="evenodd" d="M50.3562 29.0689C52.8694 29.0689 54.1637 28.2003 54.2394 26.4634C54.2394 25.7838 54.0039 25.2436 53.5334 24.8434C53.0627 24.4411 52.3333 24.24 51.3443 24.24C50.0259 24.24 48.9793 24.685 48.203 25.5709C47.4261 26.4589 47.0373 27.5532 47.0373 28.8564C47.0373 29.8758 47.3037 30.6542 47.8353 31.1929C48.3673 31.7314 49.2642 32 50.5253 32C51.4296 32 52.2771 31.8769 53.0669 31.6323L53.4059 29.8338C52.6154 30.1069 51.8483 30.2435 51.1048 30.2435C50.4735 30.2435 50.0287 30.1499 49.7697 29.9607C49.5111 29.772 49.3577 29.4613 49.3111 29.0268C49.6501 29.0544 49.9984 29.0689 50.3562 29.0689ZM49.8755 27.666C49.6685 27.666 49.5181 27.6576 49.424 27.639C49.5554 27.0999 49.7697 26.681 50.0663 26.3776C50.3626 26.0761 50.7372 25.9253 51.1895 25.9253C51.4716 25.9253 51.6835 25.9937 51.8248 26.131C51.9665 26.2667 52.0367 26.4438 52.0367 26.6609C52.0367 27.3312 51.3168 27.666 49.8755 27.666ZM38.7173 29.3521L38.2935 31.4902L38.6886 31.6164C38.962 31.7018 39.3712 31.7844 39.9174 31.8654C40.4633 31.9457 41.0144 31.9863 41.5699 31.9863C43.0569 31.9863 44.2058 31.695 45.0159 31.1148C45.8249 30.5346 46.2301 29.678 46.2301 28.5456C46.2301 28.0447 46.1121 27.6108 45.8767 27.242C45.6412 26.8743 45.3491 26.5996 45.0015 26.421C44.653 26.2424 44.272 26.0794 43.8577 25.9332C43.443 25.7865 43.062 25.6735 42.7137 25.5931C42.3652 25.5131 42.0738 25.397 41.8383 25.2465C41.6021 25.0948 41.4849 24.9107 41.4849 24.6938C41.4849 24.3628 41.6944 24.111 42.1133 23.9364C42.5319 23.7614 43.0286 23.6746 43.6038 23.6746C44.1398 23.6746 44.6792 23.7289 45.22 23.8375C45.761 23.9454 46.1546 24.0657 46.3993 24.1983L46.823 22.1589C46.719 22.1117 46.5476 22.0552 46.308 21.9889C46.0674 21.9236 45.7049 21.8525 45.22 21.7766C44.735 21.7014 44.2529 21.6636 43.7721 21.6636C42.3323 21.6636 41.2004 21.9636 40.3765 22.5628C39.5522 23.1624 39.1404 23.9993 39.1404 25.0759C39.1404 25.5669 39.2585 25.9864 39.4936 26.3363C39.7291 26.6858 40.0212 26.9465 40.3697 27.1221C40.7173 27.2963 41.0988 27.4545 41.5135 27.5956C41.928 27.7375 42.3083 27.8509 42.6568 27.9356C43.0051 28.0208 43.2974 28.1468 43.5327 28.3111C43.7681 28.4768 43.8859 28.6721 43.8859 28.8988C43.8859 29.2391 43.6901 29.498 43.2998 29.678C42.9086 29.8568 42.4213 29.9466 41.8383 29.9466C41.2172 29.9466 40.5898 29.8815 39.9601 29.7484C39.3288 29.6165 38.915 29.485 38.7173 29.3521ZM45.7319 11.7109L45.628 12.3741C45.6004 12.5494 45.4538 12.6773 45.2753 12.6773H42.4893L42.2256 14.4515H44.3928C44.4966 14.4515 44.5961 14.4985 44.6616 14.5782C44.7295 14.6597 44.7616 14.7645 44.7455 14.8678L44.6516 15.4471C44.6239 15.621 44.4731 15.7461 44.2974 15.7461H42.002L41.5865 18.3969C41.5597 18.5726 41.4107 18.6993 41.2322 18.6993H40.3078C40.2057 18.6993 40.1043 18.6521 40.0382 18.5742C39.9728 18.4936 39.9385 18.3884 39.9567 18.2844L41.0104 11.6015C41.0431 11.4253 41.1913 11.2993 41.3679 11.2993H45.3752C45.4832 11.2993 45.5802 11.3456 45.648 11.4218C45.717 11.5043 45.7462 11.6074 45.7319 11.7109ZM66.4228 14.4997L66.4538 14.5081L66.2134 16.0426C65.9875 16.425 65.7254 16.7636 65.4405 17.0454C65.1517 17.3339 64.8878 17.4788 64.6626 17.4788C64.4574 17.4788 64.2982 17.3707 64.1862 17.1575C64.0788 16.9532 64.0243 16.6888 64.0243 16.3765C64.0243 15.8794 64.1534 15.4175 64.4063 15.0095C64.6626 14.5939 65.0521 14.3814 65.5686 14.3814C65.8894 14.3814 66.1766 14.4242 66.4228 14.4997ZM67.403 18.4073L68.1356 13.7262C68.1657 13.5349 68.0393 13.3542 67.85 13.3199C67.0746 13.1679 66.377 13.0882 65.7818 13.0882C65.2925 13.0882 64.8479 13.1619 64.4569 13.3082C64.0659 13.4559 63.7424 13.6481 63.4996 13.884C63.2516 14.12 63.0432 14.3979 62.8765 14.7152C62.7109 15.0295 62.5918 15.3526 62.5282 15.6702C62.4622 15.9842 62.4277 16.315 62.4277 16.6509C62.4277 17.2982 62.5759 17.8271 62.8765 18.2298C63.1758 18.6306 63.5832 18.8262 64.1352 18.8262C64.3847 18.8262 64.6236 18.786 64.8464 18.7045L64.8562 18.7003L64.872 18.6937C64.9742 18.6516 65.3289 18.5053 65.6503 18.2545C65.8914 18.0663 66.1007 17.8346 66.1007 17.8304L66.1679 17.7602L66.1432 18.3404C66.1425 18.4377 66.1786 18.5322 66.2466 18.6012C66.3134 18.6719 66.4057 18.7107 66.5029 18.7107H67.0487C67.2263 18.7107 67.3737 18.5845 67.403 18.4073ZM71.0862 13.6247C71.3216 13.4543 71.6793 13.2268 72.0467 13.142C72.164 13.1133 72.2896 13.1469 72.3759 13.2301C72.4627 13.3157 72.5016 13.4365 72.478 13.5543L72.3157 14.4342C72.2864 14.5819 72.1691 14.6977 72.0216 14.7222C71.7486 14.7617 71.4763 14.8708 71.2075 15.037C70.8551 15.2619 70.5623 15.5366 70.3325 15.8549L69.9382 18.4057C69.9096 18.5829 69.7606 18.7091 69.5848 18.7091H68.7322C68.6266 18.7091 68.5289 18.6654 68.4634 18.5829C68.3915 18.5034 68.3636 18.4 68.379 18.2956L69.1341 13.5046C69.1591 13.3299 69.3076 13.2041 69.485 13.2041H70.0359C70.1324 13.2041 70.228 13.2444 70.2956 13.3157C70.3611 13.3886 70.4003 13.4821 70.3956 13.5775L70.3582 14.3225L70.422 14.2537L70.4262 14.2492C70.4692 14.2031 70.8322 13.8142 71.0862 13.6247ZM54.825 14.7569C54.9333 14.9584 54.9824 15.2247 54.9824 15.5377C54.9824 16.0376 54.8577 16.4968 54.6065 16.9047C54.3514 17.3223 53.9602 17.5313 53.4416 17.5313C53.1226 17.5313 52.8319 17.4911 52.5859 17.4145L52.56 17.4035L52.7985 15.8696C53.0272 15.49 53.2851 15.1524 53.5707 14.8677C53.8605 14.5797 54.1224 14.4346 54.3487 14.4346C54.5522 14.4346 54.7112 14.5412 54.825 14.7569ZM56.5836 15.2627C56.5836 14.6196 56.4324 14.0883 56.1359 13.6867C55.8412 13.2821 55.4265 13.0874 54.879 13.0874C54.6618 13.0874 54.4533 13.1199 54.2332 13.1905C53.4657 13.4322 52.9582 14.0233 52.9117 14.0774L52.9083 14.0813L52.8456 14.1654L52.8658 13.5743C52.8704 13.4794 52.8312 13.3845 52.7659 13.3141C52.6981 13.2426 52.6051 13.2049 52.5062 13.2049H51.9618C51.7846 13.2049 51.6361 13.3307 51.6104 13.5053L50.5084 20.4539C50.4907 20.5585 50.5241 20.6629 50.5912 20.7457C50.6596 20.8223 50.7568 20.8691 50.86 20.8691H51.7074C51.8823 20.8691 52.0299 20.7406 52.0592 20.568L52.2451 19.4294C52.2451 19.4219 52.2451 19.4142 52.2483 19.4067L52.3129 18.759L52.3505 18.7653C52.7039 18.8113 53.0037 18.8349 53.2426 18.8349C53.8464 18.8349 54.378 18.7256 54.8294 18.5072C55.28 18.2882 55.6316 17.9978 55.8705 17.6374C56.1123 17.2737 56.2982 16.8908 56.4089 16.4972C56.5261 16.1042 56.5836 15.6877 56.5836 15.2627ZM75.1588 13.2058H75.8245C75.9326 13.2058 76.0315 13.2509 76.1009 13.3358C76.167 13.4173 76.1934 13.5272 76.1744 13.6331L76.075 14.1462C76.0422 14.3131 75.8934 14.4358 75.724 14.4358H74.969L74.6055 16.7851C74.597 16.8524 74.5962 16.8984 74.5962 16.9237C74.5962 17.2168 74.6812 17.304 74.7118 17.3353L74.7151 17.3387C74.7771 17.394 74.8995 17.4198 74.9513 17.4267C74.9719 17.4326 75.0098 17.4342 75.0686 17.4342C75.0961 17.4342 75.1287 17.4342 75.1614 17.4326C75.2887 17.4326 75.3197 17.4382 75.3339 17.4417C75.3443 17.4458 75.3529 17.4499 75.3622 17.4543L75.372 17.4588C75.3771 17.4612 75.3827 17.4637 75.389 17.4664C75.416 17.4838 75.4428 17.5022 75.4637 17.5231C75.5476 17.6002 75.5859 17.7136 75.5717 17.8229L75.5148 18.3512C75.4988 18.4662 75.432 18.5679 75.3264 18.6225C75.3148 18.6306 75.3013 18.6388 75.2845 18.6452C75.2752 18.6492 75.2041 18.6737 75.1648 18.6855C75.1154 18.7045 74.7025 18.8262 74.4078 18.8262C73.9213 18.8262 73.5487 18.7147 73.3063 18.4931C73.0629 18.2673 72.9431 17.9401 72.9431 17.4861C72.9431 17.3115 72.9587 17.1427 72.9865 16.984L73.3826 14.4358H73.161C73.0554 14.4358 72.9531 14.3895 72.8863 14.3089C72.8181 14.2275 72.7897 14.1226 72.8065 14.0193L72.8869 13.5055C72.917 13.3316 73.0643 13.2058 73.2427 13.2058H73.6113L73.9355 12.0957C73.9798 11.9452 74.1212 11.8395 74.2795 11.8395H74.9513C75.0569 11.8395 75.1546 11.8848 75.2234 11.9655C75.292 12.0443 75.3197 12.1494 75.304 12.2544L75.1588 13.2058ZM62.0111 13.2041C62.1233 13.2041 62.2298 13.2562 62.2951 13.346C62.3622 13.4365 62.3872 13.5543 62.3529 13.6625C62.2599 13.9875 62.0908 14.3351 61.8629 14.6986C61.5071 15.2619 61.1511 15.7037 60.8028 16.0219L60.7851 16.0372L61.6251 18.2075C61.6427 18.2528 61.6553 18.3008 61.6553 18.3496C61.6553 18.5467 61.4945 18.7091 61.2959 18.7091H60.3736C60.2259 18.7091 60.0968 18.6209 60.0432 18.484L59.3114 16.6262H58.7761L58.4978 18.4057C58.469 18.5829 58.3198 18.7091 58.1438 18.7091H57.2931C57.1875 18.7091 57.0887 18.6654 57.0208 18.5829C56.9541 18.5034 56.922 18.4 56.9413 18.2956L57.9998 11.6011C58.0257 11.4248 58.1739 11.2988 58.353 11.2988H59.2039C59.3114 11.2988 59.4091 11.3451 59.4746 11.4232C59.5441 11.5047 59.5727 11.6104 59.5574 11.7144L58.9638 15.4241L59.0123 15.4141C59.3979 15.347 59.511 15.2929 59.5846 15.2577L59.5876 15.2563L59.6194 15.2378C59.8245 15.11 60.0658 14.8196 60.353 14.3502C60.5626 14.0176 60.703 13.7187 60.78 13.4601C60.8263 13.3089 60.9662 13.2041 61.1228 13.2041H62.0111ZM50.7763 12.4569C50.6045 12.64 50.344 12.7325 49.9881 12.7325C49.7287 12.7325 49.5385 12.6769 49.4094 12.5645C49.2854 12.4518 49.2227 12.2832 49.2227 12.0581C49.2227 11.7685 49.3031 11.5392 49.4765 11.352C49.6439 11.1689 49.9076 11.0775 50.2596 11.0775C50.5198 11.0775 50.7175 11.1353 50.8415 11.2472C50.9665 11.358 51.029 11.5268 51.029 11.7535C51.029 12.0415 50.9479 12.2723 50.7763 12.4569ZM49.4328 13.2041H50.276C50.3807 13.2041 50.4779 13.2478 50.5467 13.3292C50.6145 13.4089 50.6462 13.5139 50.6278 13.6179L49.8774 18.4057C49.8482 18.5829 49.7007 18.7091 49.523 18.7091H48.6825C48.5778 18.7091 48.4774 18.6654 48.4084 18.5829C48.3424 18.5034 48.3114 18.4 48.3296 18.2956L49.0783 13.5046C49.1071 13.3299 49.2559 13.2041 49.4328 13.2041ZM47.8988 11.7137C47.9189 11.6102 47.8844 11.5063 47.8201 11.423C47.7506 11.3467 47.6534 11.3004 47.5478 11.3004H46.6939C46.518 11.3004 46.3699 11.4272 46.3429 11.6045C46.3327 11.6665 45.4604 17.2418 45.4535 17.2949C45.4323 17.4157 45.4185 17.5326 45.4185 17.6361C45.4185 18.0177 45.5381 18.3157 45.7724 18.518C46.0079 18.724 46.3544 18.8262 46.8003 18.8262C46.9766 18.8262 47.2312 18.7544 47.3218 18.7195C47.4116 18.6855 47.4845 18.6492 47.543 18.6081C47.6023 18.5644 47.6501 18.4797 47.6609 18.3786L47.7068 17.9028C47.7154 17.7984 47.6804 17.6938 47.6098 17.618C47.5553 17.562 47.4845 17.5231 47.4088 17.5121C47.3822 17.5086 47.2431 17.4753 47.1805 17.4157C47.115 17.3537 47.0817 17.2321 47.0817 17.0535C47.0817 17.0177 47.0848 16.9613 47.0922 16.8685L47.8988 11.7137ZM58.4249 31.674L58.595 30.0032C58.3025 30.0886 58.058 30.1307 57.8603 30.1307C57.6161 30.1307 57.4534 30.0925 57.373 30.0182C57.2926 29.9424 57.2535 29.7908 57.2535 29.5646C57.2535 29.5167 57.2575 29.4371 57.2674 29.3238L58.4962 21.4794H56.2928L54.9796 29.8762C54.9513 30.0453 54.9369 30.2015 54.9369 30.3426C54.9369 30.8723 55.0996 31.2777 55.4242 31.5606C55.7494 31.8433 56.2171 31.9863 56.8295 31.9863C57.3755 31.9863 57.9073 31.8815 58.4249 31.674ZM63.0278 30.0032L62.8576 31.674C62.3401 31.8815 61.8076 31.9863 61.2616 31.9863C60.6503 31.9863 60.181 31.8433 59.857 31.5606C59.5313 31.2777 59.3697 30.8723 59.3697 30.3426C59.3697 30.2015 59.383 30.0453 59.4116 29.8762L60.7245 21.4794H62.929L61.6994 29.3238C61.6903 29.4371 61.6852 29.5167 61.6852 29.5646C61.6852 29.7908 61.7253 29.9424 61.8058 30.0182C61.8851 30.0925 62.0478 30.1307 62.2923 30.1307C62.49 30.1307 62.7344 30.0886 63.0278 30.0032ZM70.9122 26.4634C70.8369 28.2003 69.543 29.0689 67.0289 29.0689C66.6715 29.0689 66.323 29.0544 65.9839 29.0268C66.031 29.4613 66.184 29.772 66.4428 29.9607C66.7014 30.1499 67.1462 30.2435 67.7777 30.2435C68.5212 30.2435 69.2886 30.1069 70.079 29.8338L69.7405 31.6323C68.9503 31.8769 68.1027 32 67.1983 32C65.9369 32 65.04 31.7314 64.5084 31.1929C63.9757 30.6542 63.7104 29.8758 63.7104 28.8564C63.7104 27.5532 64.0988 26.4589 64.8751 25.5709C65.6524 24.685 66.6992 24.24 68.0172 24.24C69.0063 24.24 69.7356 24.4411 70.2061 24.8434C70.6766 25.2436 70.9122 25.7838 70.9122 26.4634ZM66.0972 27.639C66.1909 27.6576 66.3416 27.666 66.5484 27.666C67.9898 27.666 68.7102 27.3312 68.7102 26.6609C68.7102 26.4438 68.639 26.2667 68.4981 26.131C68.3566 25.9937 68.145 25.9253 67.8623 25.9253C67.4101 25.9253 67.0358 26.0761 66.7395 26.3776C66.443 26.681 66.2289 27.0999 66.0972 27.639ZM71.3526 31.8303L72.5247 24.3675H74.2616L74.177 26.1661C74.9393 24.8629 75.8905 24.2127 77.0296 24.2127H77.1567L76.733 26.4634C76.2532 26.4634 75.7776 26.6126 75.3067 26.9097C74.8355 27.207 74.45 27.5676 74.1489 27.9929L73.5558 31.8303H71.3526ZM86.3357 31.8303H88.6512L90.2332 21.8188H87.9168L87.282 25.8684H83.3419L83.9766 21.8188H81.6753L80.0934 31.8303H82.3949L83.0169 27.8794H86.9572L86.3357 31.8303ZM98.3377 24.367L97.1506 31.8295H95.4282L95.4844 30.2429C94.7038 31.4042 93.7006 31.9844 92.4773 31.9844C91.818 31.9844 91.3238 31.8006 90.9939 31.4333C90.6642 31.0643 90.4999 30.574 90.4999 29.96C90.4999 29.7048 90.5194 29.4789 90.5561 29.2807L91.3474 24.367H93.5369L92.844 28.7287C92.8154 28.8693 92.8021 29.0202 92.8021 29.1807C92.8021 29.7386 92.9996 30.0163 93.395 30.0163C93.7057 30.0163 94.054 29.8421 94.4401 29.4923C94.8262 29.1441 95.1886 28.7048 95.527 28.1758L96.1343 24.367H98.3377ZM104.198 24.2127C104.941 24.2127 105.516 24.4868 105.92 25.0339C106.325 25.5806 106.527 26.2936 106.527 27.1716C106.527 27.6148 106.481 28.0551 106.386 28.4883C106.292 28.9222 106.132 29.3547 105.906 29.784C105.68 30.2133 105.398 30.588 105.059 30.91C104.72 31.2305 104.282 31.4902 103.746 31.6882C103.21 31.8872 102.612 31.9863 101.953 31.9863C101.058 31.9863 99.9754 31.8489 98.704 31.5749L100.299 21.4794H102.488L102.009 24.6938L101.84 25.4729C102.461 24.6316 103.246 24.2127 104.198 24.2127ZM103.491 26.1087C103.199 26.1087 102.863 26.2972 102.482 26.6754C102.1 27.0531 101.759 27.496 101.458 28.0056L101.147 30.0024C101.476 30.106 101.853 30.1581 102.276 30.1581C102.955 30.1581 103.46 29.8868 103.795 29.3434C104.129 28.8018 104.296 28.1998 104.296 27.5381C104.296 27.1235 104.225 26.7812 104.084 26.5126C103.943 26.2424 103.745 26.1087 103.491 26.1087Z" fill="#027CD5"/>
<defs>
<linearGradient id="paint0_linear_1978_37475" x1="33.0346" y1="2.10572" x2="33.0337" y2="5.97884" gradientUnits="userSpaceOnUse">
<stop stop-color="#F5F014"/>
<stop offset="1" stop-color="#FAB320"/>
</linearGradient>
<linearGradient id="paint1_linear_1978_37475" x1="86.4035" y1="-3.83893" x2="86.5479" y2="12.2677" gradientUnits="userSpaceOnUse">
<stop stop-color="#FEE802"/>
<stop offset="0.005102" stop-color="#FEE802"/>
<stop offset="1" stop-color="#FAB320"/>
</linearGradient>
<linearGradient id="paint2_linear_1978_37475" x1="12.8503" y1="-0.550733" x2="17.4595" y2="8.52482" gradientUnits="userSpaceOnUse">
<stop stop-color="#989A82"/>
<stop offset="0.879013" stop-color="#7C7C6A"/>
<stop offset="1" stop-color="#7C7C6A"/>
</linearGradient>
<linearGradient id="paint3_linear_1978_37475" x1="20.8231" y1="0.408638" x2="22.5315" y2="11.576" gradientUnits="userSpaceOnUse">
<stop stop-color="#FBFCE0"/>
<stop offset="0.831601" stop-color="#BFBF9F"/>
<stop offset="1" stop-color="#BFBF9F"/>
</linearGradient>
<linearGradient id="paint4_linear_1978_37475" x1="7.18894" y1="3.77964" x2="7.48408" y2="2.10831" gradientUnits="userSpaceOnUse">
<stop stop-color="#FBFCE0"/>
<stop offset="0.831601" stop-color="#BFBF9F"/>
<stop offset="1" stop-color="#BFBF9F"/>
</linearGradient>
<linearGradient id="paint5_linear_1978_37475" x1="9.33015" y1="4.5812" x2="9.49396" y2="2.76725" gradientUnits="userSpaceOnUse">
<stop stop-color="#FBFCE0"/>
<stop offset="0.831601" stop-color="#BFBF9F"/>
<stop offset="1" stop-color="#BFBF9F"/>
</linearGradient>
<linearGradient id="paint6_linear_1978_37475" x1="12.6389" y1="5.55062" x2="12.8235" y2="3.59898" gradientUnits="userSpaceOnUse">
<stop stop-color="#FBFCE0"/>
<stop offset="0.831601" stop-color="#BFBF9F"/>
<stop offset="1" stop-color="#BFBF9F"/>
</linearGradient>
<linearGradient id="paint7_linear_1978_37475" x1="66.512" y1="-3.00841" x2="66.7777" y2="13.6056" gradientUnits="userSpaceOnUse">
<stop stop-color="#F3EF13"/>
<stop offset="1" stop-color="#FBC709"/>
</linearGradient>
<linearGradient id="paint8_linear_1978_37475" x1="0.566449" y1="4.56834" x2="31.8813" y2="4.56834" gradientUnits="userSpaceOnUse">
<stop stop-color="#F3EE04"/>
<stop offset="0.503766" stop-color="#F3EE04"/>
<stop offset="1" stop-color="#FAB320"/>
</linearGradient>
<linearGradient id="paint9_linear_1978_37475" x1="16.3565" y1="-6.68814" x2="35.4403" y2="22.3093" gradientUnits="userSpaceOnUse">
<stop stop-color="#F9DD06"/>
<stop offset="1" stop-color="#FABD0C"/>
</linearGradient>
<linearGradient id="paint10_linear_1978_37475" x1="37.8813" y1="-4.82128" x2="42.1313" y2="25.7794" gradientUnits="userSpaceOnUse">
<stop stop-color="#F9DD06"/>
<stop offset="1" stop-color="#FABD0C"/>
</linearGradient>
<linearGradient id="paint11_linear_1978_37475" x1="38.3132" y1="-5.12517" x2="42.4664" y2="26.2818" gradientUnits="userSpaceOnUse">
<stop stop-color="#F9DD06"/>
<stop offset="1" stop-color="#FABD0C"/>
</linearGradient>
<linearGradient id="paint12_linear_1978_37475" x1="37.2573" y1="-3.50635" x2="41.3118" y2="27.0305" gradientUnits="userSpaceOnUse">
<stop stop-color="#F9DD06"/>
<stop offset="1" stop-color="#FABD0C"/>
</linearGradient>
<linearGradient id="paint13_linear_1978_37475" x1="36.5663" y1="-2.87879" x2="40.6117" y2="27.6422" gradientUnits="userSpaceOnUse">
<stop stop-color="#F9DD06"/>
<stop offset="1" stop-color="#FABD0C"/>
</linearGradient>
<linearGradient id="paint14_linear_1978_37475" x1="35.829" y1="-2.21818" x2="39.8746" y2="28.271" gradientUnits="userSpaceOnUse">
<stop stop-color="#F9DD06"/>
<stop offset="1" stop-color="#FABD0C"/>
</linearGradient>
<linearGradient id="paint15_linear_1978_37475" x1="35.0924" y1="-1.63558" x2="39.1383" y2="28.8552" gradientUnits="userSpaceOnUse">
<stop stop-color="#F9DD06"/>
<stop offset="1" stop-color="#FABD0C"/>
</linearGradient>
<linearGradient id="paint16_linear_1978_37475" x1="34.2718" y1="-0.519381" x2="38.248" y2="29.5221" gradientUnits="userSpaceOnUse">
<stop stop-color="#F9DD06"/>
<stop offset="1" stop-color="#FABD0C"/>
</linearGradient>
<linearGradient id="paint17_linear_1978_37475" x1="33.8314" y1="-0.835466" x2="37.9497" y2="30.109" gradientUnits="userSpaceOnUse">
<stop stop-color="#F9DD06"/>
<stop offset="1" stop-color="#FABD0C"/>
</linearGradient>
<linearGradient id="paint18_linear_1978_37475" x1="32.9407" y1="0.19833" x2="37.0081" y2="30.7376" gradientUnits="userSpaceOnUse">
<stop stop-color="#F9DD06"/>
<stop offset="1" stop-color="#FABD0C"/>
</linearGradient>
<linearGradient id="paint19_linear_1978_37475" x1="32.2351" y1="0.875266" x2="36.2924" y2="31.3666" gradientUnits="userSpaceOnUse">
<stop stop-color="#F9DD06"/>
<stop offset="1" stop-color="#FABD0C"/>
</linearGradient>
<linearGradient id="paint20_linear_1978_37475" x1="32.0319" y1="0.581832" x2="36.1865" y2="31.9843" gradientUnits="userSpaceOnUse">
<stop stop-color="#F9DD06"/>
<stop offset="1" stop-color="#FABD0C"/>
</linearGradient>
<linearGradient id="paint21_linear_1978_37475" x1="30.8206" y1="2.09912" x2="34.8822" y2="32.6094" gradientUnits="userSpaceOnUse">
<stop stop-color="#F9DD06"/>
<stop offset="1" stop-color="#FABD0C"/>
</linearGradient>
<linearGradient id="paint22_linear_1978_37475" x1="30.2653" y1="2.70131" x2="34.283" y2="33.1957" gradientUnits="userSpaceOnUse">
<stop stop-color="#F9DD06"/>
<stop offset="1" stop-color="#FABD0C"/>
</linearGradient>
<linearGradient id="paint23_linear_1978_37475" x1="29.8903" y1="2.52433" x2="34.0722" y2="33.9468" gradientUnits="userSpaceOnUse">
<stop stop-color="#F9DD06"/>
<stop offset="1" stop-color="#FABD0C"/>
</linearGradient>
<linearGradient id="paint24_linear_1978_37475" x1="28.5595" y1="4.35835" x2="32.5312" y2="34.4005" gradientUnits="userSpaceOnUse">
<stop stop-color="#F9DD06"/>
<stop offset="1" stop-color="#FABD0C"/>
</linearGradient>
<linearGradient id="paint25_linear_1978_37475" x1="27.8684" y1="4.98656" x2="31.838" y2="35.0305" gradientUnits="userSpaceOnUse">
<stop stop-color="#F9DD06"/>
<stop offset="1" stop-color="#FABD0C"/>
</linearGradient>
<linearGradient id="paint26_linear_1978_37475" x1="27.0957" y1="5.57383" x2="31.0752" y2="35.6223" gradientUnits="userSpaceOnUse">
<stop stop-color="#F9DD06"/>
<stop offset="1" stop-color="#FABD0C"/>
</linearGradient>
<linearGradient id="paint27_linear_1978_37475" x1="26.538" y1="5.78564" x2="30.6057" y2="36.3081" gradientUnits="userSpaceOnUse">
<stop stop-color="#F9DD06"/>
<stop offset="1" stop-color="#FABD0C"/>
</linearGradient>
<linearGradient id="paint28_linear_1978_37475" x1="26.5932" y1="5.72115" x2="30.7222" y2="37.1029" gradientUnits="userSpaceOnUse">
<stop stop-color="#F9DD06"/>
<stop offset="1" stop-color="#FABD0C"/>
</linearGradient>
<linearGradient id="paint29_linear_1978_37475" x1="25.6378" y1="6.31561" x2="29.8255" y2="37.7184" gradientUnits="userSpaceOnUse">
<stop stop-color="#F9DD06"/>
<stop offset="1" stop-color="#FABD0C"/>
</linearGradient>
<linearGradient id="paint30_linear_1978_37475" x1="23.6069" y1="8.67799" x2="27.5032" y2="37.8978" gradientUnits="userSpaceOnUse">
<stop stop-color="#F9DD06"/>
<stop offset="1" stop-color="#FABD0C"/>
</linearGradient>
<linearGradient id="paint31_linear_1978_37475" x1="23.5393" y1="8.60016" x2="27.5225" y2="38.682" gradientUnits="userSpaceOnUse">
<stop stop-color="#F9DD06"/>
<stop offset="1" stop-color="#FABD0C"/>
</linearGradient>
<linearGradient id="paint32_linear_1978_37475" x1="13.8214" y1="6.38974" x2="22.0291" y2="39.1392" gradientUnits="userSpaceOnUse">
<stop stop-color="#F9DD06"/>
<stop offset="1" stop-color="#FABD0C"/>
</linearGradient>
<linearGradient id="paint33_linear_1978_37475" x1="-0.815944" y1="-0.284721" x2="26.8692" y2="22.0105" gradientUnits="userSpaceOnUse">
<stop stop-color="#F9DD06"/>
<stop offset="1" stop-color="#FABD0C"/>
</linearGradient>
<linearGradient id="paint34_linear_1978_37475" x1="-5.65584" y1="-12.2555" x2="23.2868" y2="-4.94737" gradientUnits="userSpaceOnUse">
<stop stop-color="#F9DD06"/>
<stop offset="1" stop-color="#FABD0C"/>
</linearGradient>
<linearGradient id="paint35_linear_1978_37475" x1="-5.7056" y1="-15.5249" x2="21.4592" y2="-10.4334" gradientUnits="userSpaceOnUse">
<stop stop-color="#F9DD06"/>
<stop offset="1" stop-color="#FABD0C"/>
</linearGradient>
<linearGradient id="paint36_linear_1978_37475" x1="-5.37946" y1="-17.8176" x2="22.8523" y2="-12.5439" gradientUnits="userSpaceOnUse">
<stop stop-color="#F9DD06"/>
<stop offset="1" stop-color="#FABD0C"/>
</linearGradient>
<linearGradient id="paint37_linear_1978_37475" x1="-4.77161" y1="-18.3675" x2="23.4555" y2="-13.1059" gradientUnits="userSpaceOnUse">
<stop stop-color="#F9DD06"/>
<stop offset="1" stop-color="#FABD0C"/>
</linearGradient>
<linearGradient id="paint38_linear_1978_37475" x1="-4.15778" y1="-18.9387" x2="24.049" y2="-13.7085" gradientUnits="userSpaceOnUse">
<stop stop-color="#F9DD06"/>
<stop offset="1" stop-color="#FABD0C"/>
</linearGradient>
<linearGradient id="paint39_linear_1978_37475" x1="-3.45268" y1="-18.8204" x2="24.3732" y2="-13.652" gradientUnits="userSpaceOnUse">
<stop stop-color="#F9DD06"/>
<stop offset="1" stop-color="#FABD0C"/>
</linearGradient>
<linearGradient id="paint40_linear_1978_37475" x1="-2.76032" y1="-18.328" x2="24.3797" y2="-13.2808" gradientUnits="userSpaceOnUse">
<stop stop-color="#F9DD06"/>
<stop offset="1" stop-color="#FABD0C"/>
</linearGradient>
<linearGradient id="paint41_linear_1978_37475" x1="-2.13129" y1="-18.7643" x2="25.0466" y2="-13.6737" gradientUnits="userSpaceOnUse">
<stop stop-color="#F9DD06"/>
<stop offset="1" stop-color="#FABD0C"/>
</linearGradient>
<linearGradient id="paint42_linear_1978_37475" x1="-1.66412" y1="-20.9658" x2="26.5856" y2="-15.7146" gradientUnits="userSpaceOnUse">
<stop stop-color="#F9DD06"/>
<stop offset="1" stop-color="#FABD0C"/>
</linearGradient>
<linearGradient id="paint43_linear_1978_37475" x1="-0.917408" y1="-19.3156" x2="25.871" y2="-14.3023" gradientUnits="userSpaceOnUse">
<stop stop-color="#F9DD06"/>
<stop offset="1" stop-color="#FABD0C"/>
</linearGradient>
<linearGradient id="paint44_linear_1978_37475" x1="-0.338159" y1="-20.4453" x2="26.8371" y2="-15.383" gradientUnits="userSpaceOnUse">
<stop stop-color="#F9DD06"/>
<stop offset="1" stop-color="#FABD0C"/>
</linearGradient>
<linearGradient id="paint45_linear_1978_37475" x1="0.26364" y1="-21.7087" x2="28.1379" y2="-16.4577" gradientUnits="userSpaceOnUse">
<stop stop-color="#F9DD06"/>
<stop offset="1" stop-color="#FABD0C"/>
</linearGradient>
<linearGradient id="paint46_linear_1978_37475" x1="0.876948" y1="-21.4092" x2="28.0264" y2="-16.337" gradientUnits="userSpaceOnUse">
<stop stop-color="#F9DD06"/>
<stop offset="1" stop-color="#FABD0C"/>
</linearGradient>
<linearGradient id="paint47_linear_1978_37475" x1="1.45257" y1="-23.4048" x2="29.7088" y2="-18.1245" gradientUnits="userSpaceOnUse">
<stop stop-color="#F9DD06"/>
<stop offset="1" stop-color="#FABD0C"/>
</linearGradient>
<linearGradient id="paint48_linear_1978_37475" x1="2.03649" y1="-22.6265" x2="29.1899" y2="-17.5876" gradientUnits="userSpaceOnUse">
<stop stop-color="#F9DD06"/>
<stop offset="1" stop-color="#FABD0C"/>
</linearGradient>
<linearGradient id="paint49_linear_1978_37475" x1="2.68273" y1="-24.4705" x2="30.9103" y2="-19.2211" gradientUnits="userSpaceOnUse">
<stop stop-color="#F9DD06"/>
<stop offset="1" stop-color="#FABD0C"/>
</linearGradient>
<linearGradient id="paint50_linear_1978_37475" x1="3.52767" y1="-23.2858" x2="31.6406" y2="-17.6039" gradientUnits="userSpaceOnUse">
<stop stop-color="#F9DD06"/>
<stop offset="1" stop-color="#FABD0C"/>
</linearGradient>
<linearGradient id="paint51_linear_1978_37475" x1="4.35472" y1="-20.2585" x2="35.1365" y2="-12.5753" gradientUnits="userSpaceOnUse">
<stop stop-color="#F9DD06"/>
<stop offset="1" stop-color="#FABD0C"/>
</linearGradient>
<linearGradient id="paint52_linear_1978_37475" x1="22.2331" y1="-4.17098" x2="33.9519" y2="30.2905" gradientUnits="userSpaceOnUse">
<stop stop-color="#F9DD06"/>
<stop offset="1" stop-color="#FABD0C"/>
</linearGradient>
<linearGradient id="paint53_linear_1978_37475" x1="32.817" y1="-2.32566" x2="38.0579" y2="29.6051" gradientUnits="userSpaceOnUse">
<stop stop-color="#F9DD06"/>
<stop offset="1" stop-color="#FABD0C"/>
</linearGradient>
<linearGradient id="paint54_linear_1978_37475" x1="36.1136" y1="-2.0225" x2="40.0329" y2="28.0637" gradientUnits="userSpaceOnUse">
<stop stop-color="#F9DD06"/>
<stop offset="1" stop-color="#FABD0C"/>
</linearGradient>
<linearGradient id="paint55_linear_1978_37475" x1="37.7905" y1="-2.87231" x2="41.7926" y2="28.0211" gradientUnits="userSpaceOnUse">
<stop stop-color="#F9DD06"/>
<stop offset="1" stop-color="#FABD0C"/>
</linearGradient>
<linearGradient id="paint56_linear_1978_37475" x1="38.8787" y1="-3.64579" x2="42.9537" y2="27.6875" gradientUnits="userSpaceOnUse">
<stop stop-color="#F9DD06"/>
<stop offset="1" stop-color="#FABD0C"/>
</linearGradient>
<linearGradient id="paint57_linear_1978_37475" x1="38.7332" y1="-4.00214" x2="42.6845" y2="26.4563" gradientUnits="userSpaceOnUse">
<stop stop-color="#F9DD06"/>
<stop offset="1" stop-color="#FABD0C"/>
</linearGradient>
<linearGradient id="paint58_linear_1978_37475" x1="39.8585" y1="-4.78333" x2="43.8918" y2="26.1598" gradientUnits="userSpaceOnUse">
<stop stop-color="#F9DD06"/>
<stop offset="1" stop-color="#FABD0C"/>
</linearGradient>
<linearGradient id="paint59_linear_1978_37475" x1="38.9199" y1="-4.77415" x2="42.7432" y2="24.5019" gradientUnits="userSpaceOnUse">
<stop stop-color="#F9DD06"/>
<stop offset="1" stop-color="#FABD0C"/>
</linearGradient>
<linearGradient id="paint60_linear_1978_37475" x1="39.9737" y1="-5.54376" x2="43.8458" y2="24.0941" gradientUnits="userSpaceOnUse">
<stop stop-color="#F9DD06"/>
<stop offset="1" stop-color="#FABD0C"/>
</linearGradient>
<linearGradient id="paint61_linear_1978_37475" x1="41.8968" y1="-6.72743" x2="45.9542" y2="24.246" gradientUnits="userSpaceOnUse">
<stop stop-color="#F9DD06"/>
<stop offset="1" stop-color="#FABD0C"/>
</linearGradient>
<linearGradient id="paint62_linear_1978_37475" x1="42.4883" y1="-7.32556" x2="46.5505" y2="23.5816" gradientUnits="userSpaceOnUse">
<stop stop-color="#F9DD06"/>
<stop offset="1" stop-color="#FABD0C"/>
</linearGradient>
<linearGradient id="paint63_linear_1978_37475" x1="42.1877" y1="-7.33609" x2="46.0442" y2="22.2603" gradientUnits="userSpaceOnUse">
<stop stop-color="#F9DD06"/>
<stop offset="1" stop-color="#FABD0C"/>
</linearGradient>
<linearGradient id="paint64_linear_1978_37475" x1="43.3328" y1="-8.17864" x2="47.2479" y2="21.883" gradientUnits="userSpaceOnUse">
<stop stop-color="#F9DD06"/>
<stop offset="1" stop-color="#FABD0C"/>
</linearGradient>
<linearGradient id="paint65_linear_1978_37475" x1="44.198" y1="-8.76279" x2="48.088" y2="21.2982" gradientUnits="userSpaceOnUse">
<stop stop-color="#F9DD06"/>
<stop offset="1" stop-color="#FABD0C"/>
</linearGradient>
<linearGradient id="paint66_linear_1978_37475" x1="45.4518" y1="-9.84891" x2="49.4938" y2="21.0705" gradientUnits="userSpaceOnUse">
<stop stop-color="#F9DD06"/>
<stop offset="1" stop-color="#FABD0C"/>
</linearGradient>
<linearGradient id="paint67_linear_1978_37475" x1="47.0151" y1="-10.9831" x2="51.1472" y2="20.829" gradientUnits="userSpaceOnUse">
<stop stop-color="#F9DD06"/>
<stop offset="1" stop-color="#FABD0C"/>
</linearGradient>
<linearGradient id="paint68_linear_1978_37475" x1="47.7529" y1="-11.6359" x2="51.8828" y2="20.1939" gradientUnits="userSpaceOnUse">
<stop stop-color="#F9DD06"/>
<stop offset="1" stop-color="#FABD0C"/>
</linearGradient>
<linearGradient id="paint69_linear_1978_37475" x1="48.2414" y1="-12.3246" x2="52.4062" y2="19.4995" gradientUnits="userSpaceOnUse">
<stop stop-color="#F9DD06"/>
<stop offset="1" stop-color="#FABD0C"/>
</linearGradient>
<linearGradient id="paint70_linear_1978_37475" x1="46.6885" y1="-11.0913" x2="50.449" y2="17.7231" gradientUnits="userSpaceOnUse">
<stop stop-color="#F9DD06"/>
<stop offset="1" stop-color="#FABD0C"/>
</linearGradient>
<linearGradient id="paint71_linear_1978_37475" x1="48.9085" y1="-12.7496" x2="52.8303" y2="17.709" gradientUnits="userSpaceOnUse">
<stop stop-color="#F9DD06"/>
<stop offset="1" stop-color="#FABD0C"/>
</linearGradient>
<linearGradient id="paint72_linear_1978_37475" x1="49.2677" y1="-13.3991" x2="53.2824" y2="17.1086" gradientUnits="userSpaceOnUse">
<stop stop-color="#F9DD06"/>
<stop offset="1" stop-color="#FABD0C"/>
</linearGradient>
<linearGradient id="paint73_linear_1978_37475" x1="52.4622" y1="-10.5982" x2="56.36" y2="19.4554" gradientUnits="userSpaceOnUse">
<stop stop-color="#F9DD06"/>
<stop offset="1" stop-color="#FABD0C"/>
</linearGradient>
<linearGradient id="paint74_linear_1978_37475" x1="50.6748" y1="-11.7601" x2="55.3213" y2="18.7137" gradientUnits="userSpaceOnUse">
<stop stop-color="#F9DD06"/>
<stop offset="1" stop-color="#FABD0C"/>
</linearGradient>
<linearGradient id="paint75_linear_1978_37475" x1="28.7494" y1="-11.9059" x2="46.2779" y2="15.0259" gradientUnits="userSpaceOnUse">
<stop stop-color="#F9DD06"/>
<stop offset="1" stop-color="#FABD0C"/>
</linearGradient>
<linearGradient id="paint76_linear_1978_37475" x1="18.5601" y1="-14.7049" x2="52.574" y2="-2.11754" gradientUnits="userSpaceOnUse">
<stop stop-color="#F9DD06"/>
<stop offset="1" stop-color="#FABD0C"/>
</linearGradient>
<linearGradient id="paint77_linear_1978_37475" x1="9.76891" y1="7.22478" x2="10.1232" y2="10.7049" gradientUnits="userSpaceOnUse">
<stop stop-color="#FEE802"/>
<stop offset="1" stop-color="#FAB320"/>
</linearGradient>
<linearGradient id="paint78_linear_1978_37475" x1="10.9035" y1="23.77" x2="0.824549" y2="20.8129" gradientUnits="userSpaceOnUse">
<stop stop-color="#FEE802"/>
<stop offset="0.623743" stop-color="#FEE802"/>
<stop offset="1" stop-color="#FAB320"/>
</linearGradient>
<linearGradient id="paint79_linear_1978_37475" x1="9.35649" y1="23.445" x2="-4.27779" y2="16.4528" gradientUnits="userSpaceOnUse">
<stop stop-color="#FAB320"/>
<stop offset="0.554376" stop-color="#FEE802"/>
<stop offset="1" stop-color="#FEE802"/>
</linearGradient>
<linearGradient id="paint80_linear_1978_37475" x1="16.8991" y1="2.96827" x2="25.8752" y2="32.4788" gradientUnits="userSpaceOnUse">
<stop stop-color="#F9DD06"/>
<stop offset="1" stop-color="#FABD0C"/>
</linearGradient>
<linearGradient id="paint81_linear_1978_37475" x1="21.8275" y1="4.31494" x2="27.2335" y2="31.2193" gradientUnits="userSpaceOnUse">
<stop stop-color="#F9DD06"/>
<stop offset="1" stop-color="#FABD0C"/>
</linearGradient>
<linearGradient id="paint82_linear_1978_37475" x1="22.4221" y1="3.75636" x2="27.788" y2="30.6512" gradientUnits="userSpaceOnUse">
<stop stop-color="#F9DD06"/>
<stop offset="1" stop-color="#FABD0C"/>
</linearGradient>
<linearGradient id="paint83_linear_1978_37475" x1="22.4127" y1="3.46791" x2="27.6748" y2="29.744" gradientUnits="userSpaceOnUse">
<stop stop-color="#F9DD06"/>
<stop offset="1" stop-color="#FABD0C"/>
</linearGradient>
<linearGradient id="paint84_linear_1978_37475" x1="23.6107" y1="2.42735" x2="29.0248" y2="29.6315" gradientUnits="userSpaceOnUse">
<stop stop-color="#F9DD06"/>
<stop offset="1" stop-color="#FABD0C"/>
</linearGradient>
<linearGradient id="paint85_linear_1978_37475" x1="23.6543" y1="2.16312" x2="28.9574" y2="28.7506" gradientUnits="userSpaceOnUse">
<stop stop-color="#F9DD06"/>
<stop offset="1" stop-color="#FABD0C"/>
</linearGradient>
<linearGradient id="paint86_linear_1978_37475" x1="15.0526" y1="6.90452" x2="22.3224" y2="34.029" gradientUnits="userSpaceOnUse">
<stop stop-color="#F9DD06"/>
<stop offset="1" stop-color="#FABD0C"/>
</linearGradient>
<linearGradient id="paint87_linear_1978_37475" x1="8.76227" y1="4.29411" x2="23.7025" y2="32.6524" gradientUnits="userSpaceOnUse">
<stop stop-color="#F9DD06"/>
<stop offset="1" stop-color="#FABD0C"/>
</linearGradient>
<linearGradient id="paint88_linear_1978_37475" x1="18.8828" y1="6.93757" x2="24.4362" y2="33.6603" gradientUnits="userSpaceOnUse">
<stop stop-color="#F9DD06"/>
<stop offset="1" stop-color="#FABD0C"/>
</linearGradient>
<linearGradient id="paint89_linear_1978_37475" x1="19.4926" y1="6.1966" x2="25.141" y2="33.2468" gradientUnits="userSpaceOnUse">
<stop stop-color="#F9DD06"/>
<stop offset="1" stop-color="#FABD0C"/>
</linearGradient>
<linearGradient id="paint90_linear_1978_37475" x1="21.7441" y1="6.41652" x2="26.3592" y2="32.3182" gradientUnits="userSpaceOnUse">
<stop stop-color="#F9DD06"/>
<stop offset="1" stop-color="#FABD0C"/>
</linearGradient>
<linearGradient id="paint91_linear_1978_37475" x1="19.2898" y1="4.67856" x2="25.5325" y2="31.9336" gradientUnits="userSpaceOnUse">
<stop stop-color="#F9DD06"/>
<stop offset="1" stop-color="#FABD0C"/>
</linearGradient>
<linearGradient id="paint92_linear_1978_37475" x1="10.0114" y1="0.480643" x2="27.0356" y2="28.2137" gradientUnits="userSpaceOnUse">
<stop stop-color="#F9DD06"/>
<stop offset="1" stop-color="#FABD0C"/>
</linearGradient>
<linearGradient id="paint93_linear_1978_37475" x1="4.96992" y1="-6.84409" x2="34.3934" y2="12.2216" gradientUnits="userSpaceOnUse">
<stop stop-color="#F9DD06"/>
<stop offset="1" stop-color="#FABD0C"/>
</linearGradient>
<linearGradient id="paint94_linear_1978_37475" x1="1.79138" y1="-17.0899" x2="30.7683" y2="-10.7878" gradientUnits="userSpaceOnUse">
<stop stop-color="#F9DD06"/>
<stop offset="1" stop-color="#FABD0C"/>
</linearGradient>
<linearGradient id="paint95_linear_1978_37475" x1="2.09882" y1="-19.199" x2="31.3873" y2="-13.2545" gradientUnits="userSpaceOnUse">
<stop stop-color="#F9DD06"/>
<stop offset="1" stop-color="#FABD0C"/>
</linearGradient>
<linearGradient id="paint96_linear_1978_37475" x1="7.28225" y1="-7.07231" x2="35.0551" y2="13.5164" gradientUnits="userSpaceOnUse">
<stop stop-color="#F9DD06"/>
<stop offset="1" stop-color="#FABD0C"/>
</linearGradient>
<linearGradient id="paint97_linear_1978_37475" x1="14.0283" y1="-1.12772" x2="27.993" y2="27.0024" gradientUnits="userSpaceOnUse">
<stop stop-color="#F9DD06"/>
<stop offset="1" stop-color="#FABD0C"/>
</linearGradient>
<linearGradient id="paint98_linear_1978_37475" x1="6.27844" y1="16.7581" x2="8.43119" y2="19.2443" gradientUnits="userSpaceOnUse">
<stop stop-color="#939694"/>
<stop offset="0.490476" stop-color="#939694"/>
<stop offset="0.720665" stop-color="#939694"/>
<stop offset="0.914286" stop-color="white"/>
<stop offset="1" stop-color="#F7F5F6"/>
</linearGradient>
<linearGradient id="paint99_linear_1978_37475" x1="6.19623" y1="16.8292" x2="8.16671" y2="19.1587" gradientUnits="userSpaceOnUse">
<stop stop-color="#939694"/>
<stop offset="0.543141" stop-color="#939694"/>
<stop offset="1" stop-color="#CECCC9"/>
</linearGradient>
<linearGradient id="paint100_linear_1978_37475" x1="5.75873" y1="17.2044" x2="6.90954" y2="18.6668" gradientUnits="userSpaceOnUse">
<stop stop-color="white"/>
<stop offset="0.543141" stop-color="white"/>
<stop offset="1" stop-color="#CECCC9"/>
</linearGradient>
</defs>
</svg>
